<svg width="31" height="30" viewBox="0 0 31 30" fill="none" xmlns="http://www.w3.org/2000/svg">
<path d="M30.2414 0.278465C29.8702 -0.0928218 29.2762 -0.0928218 28.9421 0.278465L15.5037 13.7191L2.10239 0.278465C1.73116 -0.0928218 1.1372 -0.0928218 0.803092 0.278465C0.431865 0.649752 0.431865 1.24381 0.803092 1.57797L14.2044 15.0186L0.765969 28.422C0.394742 28.7933 0.394742 29.3874 0.765969 29.7215C1.1372 30.0928 1.73116 30.0928 2.06527 29.7215L15.5037 16.3181L28.905 29.7215C29.2762 30.0928 29.8702 30.0928 30.2043 29.7215C30.5755 29.3502 30.5755 28.7562 30.2043 28.422L16.803 15.0186L30.2043 1.6151C30.5755 1.24381 30.5755 0.649752 30.2414 0.278465Z" fill="#4F4F4F"/>
</svg>
