<svg width="230" height="227" viewBox="0 0 230 227" fill="none" xmlns="http://www.w3.org/2000/svg">
<g opacity="0.5">
<path d="M120.931 137.496L130.168 122.927L206.907 123.282L217.21 137.851L120.931 137.496Z" fill="#DADADA"/>
<path d="M217.21 137.851V226.334H121.286L120.931 137.496L217.21 137.851Z" fill="#A3A4AE"/>
<path d="M131.589 166.635C133.721 166.28 136.208 165.924 139.76 165.924C144.024 165.924 146.866 166.99 148.997 168.767C150.774 170.189 151.84 172.676 151.84 175.519C151.84 178.362 151.129 180.849 149.353 182.626C147.221 185.113 143.313 186.179 139.405 186.179C137.984 186.179 136.918 186.179 135.852 185.824V198.972H131.589V166.635ZM135.852 182.626C136.918 182.981 137.984 182.981 139.405 182.981C144.379 182.981 147.576 180.494 147.576 175.874C147.576 171.61 144.379 169.478 139.76 169.478C137.984 169.478 136.563 169.478 135.852 169.833V182.626Z" fill="white"/>
<path d="M161.787 166.28V180.138H177.775V166.28H182.038V198.972H177.775V183.692H161.787V198.972H157.524V166.28H161.787Z" fill="white"/>
<path d="M189.144 166.635C191.275 166.28 193.762 165.924 197.315 165.924C201.578 165.924 204.42 166.99 206.552 168.767C208.328 170.189 209.394 172.676 209.394 175.519C209.394 178.362 208.684 180.849 206.907 182.626C204.776 185.113 200.868 186.179 196.96 186.179C195.539 186.179 194.473 186.179 193.407 185.824V198.972H189.144V166.635ZM193.407 182.626C194.473 182.981 195.539 182.981 196.96 182.981C201.933 182.981 205.131 180.494 205.131 175.874C205.131 171.61 201.933 169.478 197.315 169.478C195.538 169.478 194.117 169.478 193.407 169.833V182.626Z" fill="white"/>
<path d="M133.721 46.5264L142.958 39.4194H219.697L230 46.8818L133.721 46.5264Z" fill="#A3A4AE"/>
<path d="M230 46.8817L229.645 135.009H134.076L133.721 46.5264L230 46.8817Z" fill="#7973B3"/>
<path d="M172.801 104.093C171.38 104.804 168.893 105.515 165.695 105.515C158.235 105.515 152.55 100.895 152.55 92.3667C152.55 84.1937 158.235 78.5081 166.406 78.5081C169.603 78.5081 171.735 79.2188 172.801 79.5741L172.09 82.4169C170.669 81.7062 168.893 81.3509 166.761 81.3509C160.722 81.3509 156.458 85.2597 156.458 92.0114C156.458 98.4077 160.011 102.672 166.406 102.672C168.538 102.672 170.669 102.317 172.09 101.606L172.801 104.093Z" fill="#D5D5D5"/>
<path d="M176.709 100.895C178.13 101.961 180.617 102.672 182.749 102.672C186.301 102.672 188.078 100.895 188.078 98.0524C188.078 95.565 186.657 94.1436 183.104 92.7222C178.841 91.3008 175.998 88.8133 175.998 85.2598C175.998 80.9956 179.551 78.1528 184.525 78.1528C187.367 78.1528 189.144 78.8635 190.209 79.5742L189.144 82.417C188.433 82.0617 186.657 80.9956 184.17 80.9956C180.617 80.9956 179.196 83.1277 179.196 84.9045C179.196 87.3919 180.617 88.458 184.525 89.8794C189.144 91.6561 191.275 93.7882 191.275 97.6971C191.275 101.606 188.433 105.159 182.038 105.159C179.551 105.159 176.709 104.449 175.288 103.383L176.709 100.895Z" fill="#D5D5D5"/>
<path d="M195.894 100.895C197.315 101.961 199.802 102.672 201.933 102.672C205.486 102.672 207.263 100.895 207.263 98.0524C207.263 95.565 205.841 94.1436 202.289 92.7222C198.025 91.3008 195.183 88.8133 195.183 85.2598C195.183 80.9956 198.736 78.1528 203.71 78.1528C206.552 78.1528 208.328 78.8635 209.394 79.5742L208.328 82.417C207.618 82.0617 205.841 80.9956 203.355 80.9956C199.802 80.9956 198.381 83.1277 198.381 84.9045C198.381 87.3919 199.802 88.458 203.71 89.8794C208.328 91.6561 210.46 93.7882 210.46 97.6971C210.46 101.606 207.618 105.159 201.223 105.159C198.736 105.159 195.894 104.449 194.473 103.383L195.894 100.895Z" fill="#D5D5D5"/>
<path d="M39.5728 11.7022C39.9281 5.66126 44.9019 -0.0243396 50.2311 0.331011C55.9155 0.331011 61.5999 5.66126 61.2446 11.7022C60.8893 17.7432 55.5602 28.0483 50.2311 27.693C44.9019 27.693 39.5728 17.7432 39.5728 11.7022Z" fill="#A3A4AE"/>
<path d="M50.5863 40.4856C47.7441 40.4856 45.6125 37.9981 44.1914 36.2214C42.415 33.7339 34.599 33.7339 34.599 34.4446C34.599 37.9981 38.8623 39.4195 38.8623 41.907C38.8623 43.3284 34.599 47.9479 35.6648 57.5424C36.0201 61.0959 39.9281 62.8726 40.6386 62.5173C48.0994 55.7656 53.4285 55.0549 60.534 62.5173C61.5999 63.5833 64.7974 61.0959 65.5079 58.2531C67.6396 50.08 63.3762 44.7498 62.6657 41.907C61.5999 35.5107 67.9948 34.0893 66.2184 33.0232C64.7973 32.3125 58.7577 33.0232 57.3366 36.5767C56.2707 39.0642 54.1391 40.4856 50.5863 40.4856Z" fill="#A3A4AE"/>
<path d="M63.021 73.1778C63.021 73.1778 66.2184 63.5833 63.7315 65.0047C58.4024 68.2029 58.7577 60.0298 50.2311 60.3852C42.0597 60.7405 43.4808 67.8475 36.0201 64.6494C34.599 63.9387 38.507 72.4671 39.2175 73.8885C40.6386 76.7313 40.6386 80.2848 50.5863 80.2848C60.8893 80.2848 60.534 77.442 63.021 73.1778Z" fill="#A3A4AE"/>
<path d="M43.4809 145.314C42.0598 146.025 42.0598 144.248 38.1517 143.537C33.8884 142.826 33.5332 146.025 31.0462 144.958C29.9804 144.603 30.3357 97.6969 32.1121 95.2095C37.4412 87.7471 43.8361 100.184 45.9678 105.87C47.7442 110.134 46.3231 143.892 43.4809 145.314Z" fill="#A3A4AE"/>
<path d="M62.3104 91.656C63.021 93.0774 58.4024 93.7881 54.8496 98.4077C52.718 101.25 51.2969 105.159 48.4547 104.804C44.9019 104.449 44.1914 99.4737 43.4808 96.6309C42.0597 92.0114 37.0859 92.3667 37.7964 90.2346C38.8623 87.0365 45.6125 89.1686 49.8758 89.5239C54.4944 89.8793 60.1788 86.6811 62.3104 91.656Z" fill="#A3A4AE"/>
<path d="M31.0462 152.776C33.1779 152.421 33.1779 154.553 36.3753 155.264C39.9281 155.974 39.5728 153.487 43.1256 155.619C44.5467 156.33 44.1914 187.956 42.0597 190.088C38.8623 192.931 36.3753 190.799 36.0201 189.733C34.9542 187.6 34.9542 179.783 34.2437 174.808C32.112 160.239 28.5593 153.487 31.0462 152.776Z" fill="#A3A4AE"/>
<path d="M31.0462 149.223C31.0462 147.801 32.8226 146.025 36.0201 146.025C39.2175 146.025 42.7703 147.091 42.7703 148.512C42.7703 149.933 41.7045 154.553 36.0201 153.842C32.8226 153.487 31.4015 150.644 31.0462 149.223Z" fill="#A3A4AE"/>
<path d="M68.3501 140.694C67.2843 141.05 65.5079 139.628 61.2446 140.339C58.0471 140.694 56.9813 143.182 55.2049 142.826C54.1391 142.471 45.6125 110.49 52.0074 105.159C57.6918 100.54 63.3762 89.8792 65.1526 94.4988C66.5737 98.0523 70.837 139.984 68.3501 140.694Z" fill="#A3A4AE"/>
<path d="M60.8893 158.106C58.7577 154.553 57.6919 155.974 55.5602 153.842C53.4286 151.71 53.0733 149.933 50.9416 149.223C49.5205 148.867 28.9146 162.015 21.4538 175.519C23.5854 179.072 23.5854 181.204 23.5854 181.204C24.296 180.138 35.6648 173.031 39.5728 170.188C50.5864 162.371 62.3104 160.239 60.8893 158.106Z" fill="#A3A4AE"/>
<path d="M65.8632 150.644C65.1526 152.776 62.6657 154.908 59.8235 154.198C56.9813 153.132 54.4944 150.289 54.8496 148.157C55.5602 146.025 60.8893 141.405 63.7315 142.116C66.929 143.182 66.5737 148.512 65.8632 150.644Z" fill="#A3A4AE"/>
<path d="M20.7432 198.972C17.5458 197.906 17.1905 198.261 15.7694 195.418C15.4141 194.352 14.7036 192.931 14.3483 189.377C14.3483 189.022 13.993 186.89 13.993 186.179C13.2825 182.27 10.7955 181.204 11.8614 179.427C13.2825 176.94 18.9669 175.163 20.388 178.717C21.0985 180.494 22.1643 183.336 21.4538 185.468C20.7432 186.89 21.0985 191.865 21.0985 192.575C21.0985 193.641 28.204 201.459 20.7432 198.972Z" fill="#A3A4AE"/>
<path d="M40.2834 80.9955C40.2834 80.9955 45.2572 82.0615 49.1652 81.7062C54.8497 81.3508 59.1129 79.9294 60.8893 81.3508C61.2446 81.3508 60.1788 86.6811 59.1129 86.3257C58.4024 86.3257 52.0074 87.7471 49.8758 87.7471C45.6125 87.3918 40.9939 87.3918 39.5728 86.3257C38.8623 85.615 38.8623 80.6401 39.5728 80.6401C40.2834 80.9955 40.2834 80.9955 40.2834 80.9955Z" fill="#A3A4AE"/>
<path d="M54.4944 36.5767C54.4944 36.5767 52.3627 38.3535 50.5863 38.3535C49.1652 38.3535 46.6783 36.5767 46.6783 36.5767C45.6125 36.5767 47.3889 32.6679 47.3889 32.6679C47.3889 31.6018 45.9678 28.0483 47.3889 28.0483C47.3889 28.0483 50.2311 29.4697 50.9416 29.4697C52.0074 29.4697 54.8497 28.0483 54.8497 28.0483C55.9155 28.0483 54.8497 31.6018 54.8497 32.6679C54.1391 32.6679 55.5602 36.5767 54.4944 36.5767Z" fill="#A3A4AE"/>
<path d="M45.9678 196.84C48.0994 196.484 47.7441 201.459 46.6783 203.591C45.2572 206.434 43.4808 207.145 38.8623 207.145C36.0201 207.145 32.4673 206.434 31.4015 204.657C30.3357 202.881 29.9804 196.84 31.0462 196.484C32.8226 195.774 34.599 199.682 38.1517 199.682C42.415 199.682 44.1914 197.195 45.9678 196.84Z" fill="#A3A4AE"/>
<path d="M38.8623 198.616C38.1517 198.616 33.8884 196.84 33.8884 195.774C33.8884 195.774 34.2437 193.997 34.2437 193.286C34.9542 189.377 35.3095 192.931 38.8623 192.931C42.0597 192.931 43.1256 189.377 43.4808 193.286L43.8361 195.774C43.8361 196.484 39.5728 198.616 38.8623 198.616Z" fill="#A3A4AE"/>
<path d="M27.8488 91.3006C26.7829 92.3667 27.4935 95.2095 26.4276 98.4076C25.0065 103.027 26.7829 104.093 27.4935 104.093C28.204 104.449 29.2699 99.1183 31.7568 95.2095C36.7306 87.7471 34.9543 87.0364 33.8884 86.3257C33.1779 85.9704 30.691 84.9043 31.0462 85.9704C31.0462 88.4578 30.3357 89.1685 27.8488 91.3006Z" fill="#A3A4AE"/>
<path d="M101.035 38.7088C100.68 37.6427 90.7324 38.3534 87.535 37.9981C82.9164 37.6427 70.837 31.2464 69.4159 34.7999C69.0606 36.2213 72.6134 37.2874 72.9687 40.1302C73.3239 44.039 68.7054 44.039 69.0606 45.1051C69.7712 46.8818 81.14 46.1711 83.6269 46.5265C86.1138 46.8818 101.035 48.6586 100.325 46.8818C99.9696 45.8158 98.9037 44.039 98.9037 42.973C98.9037 40.8409 101.035 39.4195 101.035 38.7088Z" fill="#A3A4AE"/>
<path d="M132.3 37.998C131.944 37.998 121.641 38.7087 121.641 38.7087C121.641 38.7087 105.654 37.6427 104.943 39.0641C104.588 40.4855 106.009 39.7748 106.364 42.9729C106.72 44.7497 103.877 46.1711 104.943 46.1711C106.009 46.1711 112.404 44.7497 114.536 44.7497C116.667 44.7497 131.234 44.039 132.655 44.039C134.786 43.3283 134.786 38.3534 132.3 37.998Z" fill="#A3A4AE"/>
<path d="M67.6396 43.6837C69.2093 43.6837 70.4818 42.0927 70.4818 40.1302C70.4818 38.1676 69.2093 36.5767 67.6396 36.5767C66.0699 36.5767 64.7974 38.1676 64.7974 40.1302C64.7974 42.0927 66.0699 43.6837 67.6396 43.6837Z" fill="#A3A4AE"/>
<path d="M102.457 45.4605C103.83 45.4605 104.943 44.1877 104.943 42.6177C104.943 41.0477 103.83 39.7749 102.457 39.7749C101.083 39.7749 99.9696 41.0477 99.9696 42.6177C99.9696 44.1877 101.083 45.4605 102.457 45.4605Z" fill="#A3A4AE"/>
<path d="M2.26894 59.6745C0.492563 58.2531 12.9272 51.5014 15.4141 49.7247C18.9669 46.8819 25.3618 34.4446 28.5593 36.9321C29.6251 37.6428 27.4935 40.8409 28.5593 43.3284C30.6909 46.8819 34.2437 44.0391 34.599 45.4605C34.9542 47.2372 25.0065 53.2782 23.2302 54.6996C21.4538 56.121 10.7955 65.3601 10.085 63.5833C9.72971 62.5173 9.01916 61.8066 8.30861 61.0959C7.24279 58.9638 2.97949 60.0298 2.26894 59.6745Z" fill="#A3A4AE"/>
<path d="M28.5593 82.7722C28.204 82.4169 20.7432 76.0206 20.7432 76.0206C20.7432 76.0206 10.7955 67.1368 8.66388 66.0708C7.59806 65.3601 8.30861 66.4261 5.46641 66.7815C3.69003 67.1368 2.26893 65.0047 0.49256 65.3601C-1.28382 65.7154 10.085 74.2438 11.8614 75.6652C13.2825 77.0866 23.9407 87.0364 25.0065 87.3918C25.7171 88.1025 25.3618 85.2597 26.0724 84.1936C27.1382 83.4829 29.2698 83.8383 28.5593 82.7722Z" fill="#A3A4AE"/>
<path d="M35.4949 43.2403C36.7091 42.245 36.6851 40.2076 35.4413 38.6896C34.1975 37.1715 32.2049 36.7477 30.9907 37.743C29.7766 38.7382 29.8006 40.7756 31.0444 42.2937C32.2882 43.8117 34.2808 44.2355 35.4949 43.2403Z" fill="#A3A4AE"/>
<path d="M7.88165 64.0849C8.23554 62.9617 7.46043 61.7165 6.1504 61.3036C4.84036 60.8906 3.49148 61.4663 3.13759 62.5894C2.7837 63.7125 3.55881 64.9578 4.86885 65.3707C6.17889 65.7837 7.52776 65.208 7.88165 64.0849Z" fill="#A3A4AE"/>
<path d="M29.5667 88.6982C30.4773 87.9517 30.7114 86.7313 30.0895 85.9723C29.4676 85.2133 28.2253 85.2031 27.3146 85.9495C26.404 86.696 26.1699 87.9164 26.7918 88.6754C27.4137 89.4344 28.6561 89.4446 29.5667 88.6982Z" fill="#A3A4AE"/>
<path d="M135.852 36.5767C139.405 32.6679 153.971 40.4856 154.682 42.973C155.392 45.1051 145.445 42.973 142.958 42.973C141.892 42.973 137.984 44.7498 136.918 44.0391C135.852 42.973 134.786 37.9981 135.852 36.5767Z" fill="#A3A4AE"/>
<path d="M101.391 38.3535C101.035 37.2874 91.0877 37.9981 87.8902 37.6428C83.2716 37.2874 71.1923 30.8911 69.7712 34.4446C69.4159 35.866 72.9687 36.9321 73.3239 39.7749C73.6792 43.6837 69.0606 43.6837 69.4159 44.7498C70.1265 46.5265 81.4953 45.8158 83.9822 46.1712C86.4691 46.1712 101.391 48.3033 100.68 46.5265C100.325 45.4605 99.259 43.6837 99.259 42.6177C99.259 40.4856 101.746 39.0642 101.391 38.3535Z" fill="#9D9D9C"/>
<path d="M133.01 37.6428C132.655 37.6428 122.352 38.3535 122.352 38.3535C122.352 38.3535 106.365 37.2874 105.654 38.7088C105.299 40.1302 106.72 39.4195 107.075 42.6177C107.43 44.3945 104.588 45.8158 105.654 45.8158C106.72 45.8158 113.115 44.3945 115.246 44.3945C117.378 44.0391 131.944 43.6837 133.365 43.6837C135.497 42.973 135.497 38.3535 133.01 37.6428Z" fill="#9D9D9C"/>
</g>
</svg>
