<svg width="271" height="56" viewBox="0 0 271 56" fill="none" xmlns="http://www.w3.org/2000/svg">
<path d="M33.2188 29.1545L36.6641 10.9436H41.9199L36.2422 36.5374H30.9336L26.7676 19.4163L22.6016 36.5374H17.293L11.6152 10.9436H16.8711L20.334 29.1194L24.5527 10.9436H29.0176L33.2188 29.1545ZM58.0566 29.8225C58.0566 28.8264 57.7051 28.0647 57.002 27.5374C56.2988 26.9983 55.0332 26.4358 53.2051 25.8499C51.377 25.2522 49.9297 24.6663 48.8633 24.092C45.957 22.5217 44.5039 20.4065 44.5039 17.7463C44.5039 16.3635 44.8906 15.1331 45.6641 14.0549C46.4492 12.9651 47.5684 12.1155 49.0215 11.5061C50.4863 10.8967 52.127 10.592 53.9434 10.592C55.7715 10.592 57.4004 10.926 58.8301 11.594C60.2598 12.2502 61.3672 13.1819 62.1523 14.3889C62.9492 15.5959 63.3477 16.967 63.3477 18.5022H58.0742C58.0742 17.3303 57.7051 16.4221 56.9668 15.7776C56.2285 15.1213 55.1914 14.7932 53.8555 14.7932C52.5664 14.7932 51.5645 15.0686 50.8496 15.6194C50.1348 16.1584 49.7773 16.8733 49.7773 17.7639C49.7773 18.5959 50.1934 19.2932 51.0254 19.8557C51.8691 20.4182 53.1055 20.9456 54.7344 21.4377C57.7344 22.3401 59.9199 23.4592 61.291 24.7952C62.6621 26.1311 63.3477 27.7952 63.3477 29.7874C63.3477 32.0022 62.5098 33.7424 60.834 35.0081C59.1582 36.262 56.9023 36.8889 54.0664 36.8889C52.0977 36.8889 50.3047 36.5315 48.6875 35.8167C47.0703 35.0901 45.834 34.0999 44.9785 32.8459C44.1348 31.592 43.7129 30.1389 43.7129 28.4866H49.0039C49.0039 31.3108 50.6914 32.7229 54.0664 32.7229C55.3203 32.7229 56.2988 32.4709 57.002 31.967C57.7051 31.4514 58.0566 30.7366 58.0566 29.8225Z" fill="white"/>
<path d="M0 27.2717C3.38462 27.2717 3.86813 24.663 3.86813 22.3441C3.86813 20.5084 3.67473 18.6726 3.48132 16.7403C3.28791 14.9045 3.09451 13.0688 3.09451 11.233C3.09451 5.14605 5.9956 2.53735 10.0571 2.53735H11.0242V6.20885H10.1538C7.44615 6.30547 6.38242 8.33446 6.38242 11.9093C6.38242 13.4552 6.57583 15.0011 6.67253 16.6436C6.86593 18.2861 7.05934 19.9287 7.05934 21.6678C7.05934 25.919 5.7055 28.0446 3.67473 28.8176V28.9142C5.8022 29.6871 7.05934 31.9093 7.05934 36.1605C7.05934 37.8997 6.86593 39.6388 6.67253 41.1847C6.57583 42.8272 6.38242 44.3731 6.38242 45.919C6.38242 49.5905 7.54286 51.6195 10.1538 51.7161H10.9275V55.3876H9.96044C6.09231 55.3876 3.09451 52.9721 3.09451 46.3055C3.09451 44.5663 3.28791 42.634 3.48132 40.8948C3.67473 39.1557 3.86813 37.32 3.86813 35.5808C3.86813 33.5518 3.38462 30.6533 0 30.6533V27.2717Z" fill="white"/>
<path d="M76.2945 30.5567C72.9099 30.5567 72.4264 33.3586 72.4264 35.4842C72.4264 37.2233 72.6198 39.0591 72.8132 40.7982C73.0066 42.5374 73.2 44.4697 73.2 46.2089C73.2 52.8755 70.2022 55.291 66.3341 55.291H65.367V51.6195H66.1406C68.8483 51.5229 69.9121 49.5905 69.9121 45.8224C69.9121 44.2765 69.7187 42.7306 69.622 41.0881C69.4286 39.5422 69.2352 37.8031 69.2352 36.0639C69.2352 31.8127 70.589 29.5905 72.6198 28.8175V28.7209C70.4923 27.948 69.2352 25.8224 69.2352 21.5712C69.2352 19.832 69.4286 18.1895 69.622 16.547C69.7187 15.0011 69.9121 13.3586 69.9121 11.8127C69.9121 8.23784 68.945 6.20885 66.1406 6.11223H65.2703V2.53735H66.2374C70.2989 2.53735 73.2 5.14605 73.2 11.233C73.2 13.0688 73.0066 14.9045 72.8132 16.7403C72.6198 18.576 72.4264 20.4118 72.4264 22.3441C72.4264 24.663 72.9099 27.2717 76.2945 27.2717V30.5567Z" fill="white"/>
<path d="M15.8975 46.1677L17.0146 41.7258H18.0083L16.3164 47.5374H15.5107L14.0981 43.1331L12.7231 47.5374H11.9175L10.231 41.7258H11.2192L12.3633 46.0764L13.7168 41.7258H14.5171L15.8975 46.1677ZM21.4351 47.6448C20.6473 47.6448 20.0063 47.387 19.5122 46.8713C19.0181 46.3521 18.771 45.6593 18.771 44.7927V44.6101C18.771 44.0336 18.8802 43.5198 19.0986 43.0686C19.3206 42.6139 19.6286 42.2594 20.0225 42.0051C20.4199 41.7473 20.8496 41.6184 21.3115 41.6184C22.0671 41.6184 22.6543 41.8673 23.0732 42.365C23.4922 42.8627 23.7017 43.5753 23.7017 44.5027V44.9163H19.7646C19.779 45.4892 19.9455 45.9529 20.2642 46.3074C20.5864 46.6583 20.9946 46.8337 21.4888 46.8337C21.8397 46.8337 22.1369 46.7621 22.3804 46.6189C22.6239 46.4757 22.8369 46.2859 23.0195 46.0496L23.6265 46.5222C23.1395 47.2706 22.409 47.6448 21.4351 47.6448ZM21.3115 42.4348C20.9105 42.4348 20.5739 42.5816 20.3018 42.8752C20.0296 43.1653 19.8613 43.5735 19.7969 44.0999H22.708V44.0247C22.6794 43.5198 22.5433 43.1295 22.2998 42.8538C22.0563 42.5745 21.7269 42.4348 21.3115 42.4348ZM29.7764 44.696C29.7764 45.5841 29.5723 46.2984 29.1641 46.8391C28.7559 47.3762 28.208 47.6448 27.5205 47.6448C26.7865 47.6448 26.2189 47.3852 25.8179 46.866L25.7695 47.5374H24.8564V39.2874H25.8501V42.365C26.2511 41.8673 26.8044 41.6184 27.5098 41.6184C28.2152 41.6184 28.7684 41.8852 29.1694 42.4187C29.5741 42.9522 29.7764 43.6827 29.7764 44.6101V44.696ZM28.7827 44.5833C28.7827 43.9065 28.652 43.3837 28.3906 43.0149C28.1292 42.6461 27.7533 42.4617 27.2627 42.4617C26.6074 42.4617 26.1366 42.766 25.8501 43.3748V45.8884C26.1545 46.4972 26.6289 46.8015 27.2734 46.8015C27.7497 46.8015 28.1203 46.6171 28.3853 46.2483C28.6502 45.8795 28.7827 45.3245 28.7827 44.5833ZM37.1455 45.9958C37.1455 45.7273 37.0435 45.5196 36.8394 45.3728C36.6388 45.2224 36.2861 45.0935 35.7812 44.9861C35.2799 44.8787 34.8807 44.7498 34.5835 44.5994C34.2899 44.449 34.0715 44.2699 33.9282 44.0623C33.7886 43.8546 33.7188 43.6075 33.7188 43.321C33.7188 42.8448 33.9193 42.442 34.3203 42.1125C34.7249 41.7831 35.2406 41.6184 35.8672 41.6184C36.526 41.6184 37.0596 41.7885 37.4678 42.1287C37.8796 42.4688 38.0854 42.9039 38.0854 43.4338H37.0864C37.0864 43.1617 36.9701 42.9272 36.7373 42.7302C36.5081 42.5333 36.2181 42.4348 35.8672 42.4348C35.5055 42.4348 35.2227 42.5136 35.0186 42.6711C34.8145 42.8287 34.7124 43.0346 34.7124 43.2888C34.7124 43.5287 34.8073 43.7096 34.9971 43.8313C35.1868 43.953 35.5288 44.0694 36.0229 44.1804C36.5207 44.2914 36.9235 44.4239 37.2314 44.5779C37.5394 44.7319 37.7668 44.9181 37.9136 45.1365C38.064 45.3513 38.1392 45.6145 38.1392 45.926C38.1392 46.4452 37.9315 46.8624 37.5161 47.1775C37.1007 47.489 36.5618 47.6448 35.8994 47.6448C35.4339 47.6448 35.0221 47.5624 34.6641 47.3977C34.306 47.233 34.0249 47.0038 33.8208 46.7102C33.6203 46.413 33.52 46.0925 33.52 45.7488H34.5137C34.5316 46.0818 34.6641 46.3468 34.9111 46.5437C35.1618 46.7371 35.4912 46.8337 35.8994 46.8337C36.2754 46.8337 36.5762 46.7585 36.8018 46.6082C37.0309 46.4542 37.1455 46.2501 37.1455 45.9958ZM41.7646 46.8337C42.1191 46.8337 42.4289 46.7263 42.6938 46.5115C42.9588 46.2966 43.1056 46.0281 43.1343 45.7058H44.0742C44.0563 46.0388 43.9417 46.3557 43.7305 46.6565C43.5192 46.9573 43.2363 47.1972 42.8818 47.3762C42.5309 47.5553 42.1585 47.6448 41.7646 47.6448C40.9733 47.6448 40.3431 47.3816 39.874 46.8552C39.4085 46.3253 39.1758 45.602 39.1758 44.6853V44.5188C39.1758 43.953 39.2796 43.45 39.4873 43.0095C39.695 42.5691 39.9922 42.2271 40.3789 41.9836C40.7692 41.7402 41.2293 41.6184 41.7593 41.6184C42.411 41.6184 42.9517 41.8136 43.3813 42.2039C43.8146 42.5942 44.0456 43.1008 44.0742 43.7239H43.1343C43.1056 43.3479 42.9624 43.04 42.7046 42.8C42.4504 42.5566 42.1353 42.4348 41.7593 42.4348C41.2544 42.4348 40.8623 42.6174 40.583 42.9827C40.3073 43.3443 40.1694 43.8689 40.1694 44.5564V44.7444C40.1694 45.414 40.3073 45.9296 40.583 46.2913C40.8587 46.6529 41.2526 46.8337 41.7646 46.8337ZM46.1851 42.4294C46.6255 41.8888 47.1984 41.6184 47.9038 41.6184C49.132 41.6184 49.7515 42.3113 49.7622 43.697V47.5374H48.7686V43.6917C48.765 43.2727 48.6683 42.963 48.4785 42.7625C48.2923 42.5619 48.0005 42.4617 47.603 42.4617C47.2808 42.4617 46.9979 42.5476 46.7544 42.7195C46.5109 42.8914 46.3211 43.1169 46.1851 43.3962V47.5374H45.1914V39.2874H46.1851V42.4294ZM50.9868 44.5779C50.9868 44.0085 51.0978 43.4965 51.3198 43.0417C51.5454 42.587 51.8569 42.2361 52.2544 41.989C52.6554 41.7419 53.112 41.6184 53.624 41.6184C54.4154 41.6184 55.0545 41.8923 55.5415 42.4402C56.0321 42.988 56.2773 43.7167 56.2773 44.6262V44.696C56.2773 45.2618 56.1681 45.7703 55.9497 46.2214C55.7349 46.669 55.4251 47.0181 55.0205 47.2688C54.6195 47.5194 54.1576 47.6448 53.6348 47.6448C52.847 47.6448 52.2078 47.3708 51.7173 46.823C51.2303 46.2751 50.9868 45.55 50.9868 44.6477V44.5779ZM51.9858 44.696C51.9858 45.3406 52.1344 45.858 52.4316 46.2483C52.7324 46.6386 53.1335 46.8337 53.6348 46.8337C54.1396 46.8337 54.5407 46.6368 54.8379 46.2429C55.1351 45.8455 55.2837 45.2904 55.2837 44.5779C55.2837 43.9405 55.1315 43.4249 54.8271 43.031C54.5264 42.6335 54.1253 42.4348 53.624 42.4348C53.1335 42.4348 52.7378 42.63 52.437 43.0203C52.1362 43.4106 51.9858 43.9692 51.9858 44.696ZM57.2603 44.5779C57.2603 44.0085 57.3713 43.4965 57.5933 43.0417C57.8188 42.587 58.1304 42.2361 58.5278 41.989C58.9289 41.7419 59.3854 41.6184 59.8975 41.6184C60.6888 41.6184 61.328 41.8923 61.8149 42.4402C62.3055 42.988 62.5508 43.7167 62.5508 44.6262V44.696C62.5508 45.2618 62.4416 45.7703 62.2231 46.2214C62.0083 46.669 61.6986 47.0181 61.2939 47.2688C60.8929 47.5194 60.431 47.6448 59.9082 47.6448C59.1204 47.6448 58.4813 47.3708 57.9907 46.823C57.5037 46.2751 57.2603 45.55 57.2603 44.6477V44.5779ZM58.2593 44.696C58.2593 45.3406 58.4079 45.858 58.7051 46.2483C59.0059 46.6386 59.4069 46.8337 59.9082 46.8337C60.4131 46.8337 60.8141 46.6368 61.1113 46.2429C61.4085 45.8455 61.5571 45.2904 61.5571 44.5779C61.5571 43.9405 61.4049 43.4249 61.1006 43.031C60.7998 42.6335 60.3988 42.4348 59.8975 42.4348C59.4069 42.4348 59.0112 42.63 58.7104 43.0203C58.4097 43.4106 58.2593 43.9692 58.2593 44.696ZM64.8765 47.5374H63.8828V39.2874H64.8765V47.5374Z" fill="white"/>
<path d="M100.66 45.4435C100.563 46.2706 100.257 46.9098 99.7417 47.361C99.2297 47.8086 98.5475 48.0323 97.6953 48.0323C96.7715 48.0323 96.0303 47.7011 95.4717 47.0387C94.9167 46.3763 94.6392 45.49 94.6392 44.38V43.6281C94.6392 42.9012 94.7681 42.262 95.0259 41.7106C95.2873 41.1591 95.6561 40.7366 96.1323 40.443C96.6086 40.1458 97.16 39.9972 97.7866 39.9972C98.6174 39.9972 99.2834 40.2299 99.7847 40.6954C100.286 41.1573 100.578 41.7983 100.66 42.6183H99.6235C99.534 41.9952 99.3389 41.5441 99.0381 41.2648C98.7409 40.9855 98.3237 40.8458 97.7866 40.8458C97.1278 40.8458 96.6104 41.0893 96.2344 41.5763C95.862 42.0633 95.6758 42.7561 95.6758 43.6549V44.4122C95.6758 45.2609 95.853 45.9358 96.2075 46.4371C96.562 46.9384 97.0579 47.1891 97.6953 47.1891C98.2682 47.1891 98.7069 47.0602 99.0112 46.8024C99.3192 46.541 99.5233 46.088 99.6235 45.4435H100.66Z" fill="white"/>
<path d="M111.252 47.9249H110.215V44.3102H106.273V47.9249H105.241V40.1046H106.273V43.4669H110.215V40.1046H111.252V47.9249Z" fill="white"/>
<path d="M115.989 44.6432L117.788 40.1046H118.986L116.22 46.6198C116.033 47.0351 115.86 47.3305 115.699 47.506C115.537 47.6779 115.348 47.8103 115.129 47.9034C114.914 47.993 114.644 48.0377 114.318 48.0377C114.035 48.0377 113.854 48.0216 113.776 47.9894L113.808 47.173L114.297 47.1945C114.673 47.1945 114.952 47.0136 115.135 46.652L115.269 46.3727L115.473 45.8947L112.809 40.1046H113.964L115.989 44.6432Z" fill="white"/>
<path d="M126.065 40.1046V47.9249H125.033V40.9532H122.23L122.09 44.0524C122.036 45.0908 121.929 45.8714 121.768 46.3942C121.61 46.917 121.377 47.3019 121.069 47.549C120.762 47.7924 120.35 47.9178 119.834 47.9249H119.496V47.0817L119.711 47.0709C120.044 47.0459 120.3 46.9384 120.479 46.7487C120.658 46.5553 120.794 46.2491 120.887 45.8302C120.98 45.4113 121.046 44.7667 121.086 43.8966L121.247 40.1046H126.065Z" fill="white"/>
<path d="M132.252 47.9249V44.8795H130.447L128.83 47.9249H127.729L129.545 44.5948C128.535 44.1974 128.03 43.4866 128.03 42.4625C128.03 41.7177 128.274 41.1394 128.761 40.7277C129.251 40.3123 129.932 40.1046 130.802 40.1046H133.288V47.9249H132.252ZM129.061 42.4625C129.061 42.9352 129.208 43.3147 129.502 43.6012C129.799 43.8877 130.211 44.0327 130.737 44.0363H132.252V40.9532H130.786C130.227 40.9532 129.799 41.0857 129.502 41.3507C129.208 41.6157 129.061 41.9863 129.061 42.4625Z" fill="white"/>
<path d="M145.368 49.8424H144.342V47.9249H138.729V49.8478H137.698L137.692 47.0817H138.332C138.668 46.7021 138.935 46.1936 139.132 45.5563C139.332 44.9153 139.458 44.2135 139.508 43.4508L139.68 40.1046H144.358V47.0817H145.378L145.368 49.8424ZM139.508 47.0817H143.321V40.9532H140.673L140.561 43.2521C140.514 44.1508 140.394 44.9171 140.201 45.5509C140.011 46.1847 139.78 46.6949 139.508 47.0817Z" fill="white"/>
<path d="M152.71 44.2672C152.71 45.0335 152.581 45.7031 152.323 46.276C152.065 46.8453 151.7 47.2804 151.227 47.5812C150.755 47.882 150.203 48.0323 149.573 48.0323C148.957 48.0323 148.411 47.882 147.935 47.5812C147.459 47.2768 147.088 46.8453 146.823 46.2867C146.562 45.7246 146.427 45.0747 146.42 44.337V43.7731C146.42 43.0211 146.551 42.3569 146.812 41.7804C147.074 41.2039 147.442 40.7635 147.919 40.4591C148.399 40.1512 148.946 39.9972 149.562 39.9972C150.189 39.9972 150.74 40.1494 151.217 40.4537C151.696 40.7545 152.065 41.1932 152.323 41.7697C152.581 42.3426 152.71 43.0104 152.71 43.7731V44.2672ZM151.684 43.7623C151.684 42.8349 151.498 42.1241 151.125 41.63C150.753 41.1323 150.232 40.8834 149.562 40.8834C148.911 40.8834 148.397 41.1323 148.021 41.63C147.648 42.1241 147.457 42.8116 147.446 43.6925V44.2672C147.446 45.166 147.634 45.8732 148.01 46.3888C148.39 46.9008 148.911 47.1569 149.573 47.1569C150.239 47.1569 150.755 46.9152 151.12 46.4318C151.485 45.9448 151.673 45.2483 151.684 44.3424V43.7623Z" fill="white"/>
<path d="M160.111 44.6432L161.91 40.1046H163.108L160.342 46.6198C160.155 47.0351 159.982 47.3305 159.821 47.506C159.659 47.6779 159.47 47.8103 159.251 47.9034C159.036 47.993 158.766 48.0377 158.44 48.0377C158.157 48.0377 157.977 48.0216 157.898 47.9894L157.93 47.173L158.419 47.1945C158.795 47.1945 159.074 47.0136 159.257 46.652L159.391 46.3727L159.595 45.8947L156.931 40.1046H158.086L160.111 44.6432Z" fill="white"/>
<path d="M170.187 45.4435C170.09 46.2706 169.784 46.9098 169.268 47.361C168.756 47.8086 168.074 48.0323 167.222 48.0323C166.298 48.0323 165.557 47.7011 164.998 47.0387C164.443 46.3763 164.166 45.49 164.166 44.38V43.6281C164.166 42.9012 164.295 42.262 164.552 41.7106C164.814 41.1591 165.183 40.7366 165.659 40.443C166.135 40.1458 166.686 39.9972 167.313 39.9972C168.144 39.9972 168.81 40.2299 169.311 40.6954C169.812 41.1573 170.104 41.7983 170.187 42.6183H169.15C169.06 41.9952 168.865 41.5441 168.565 41.2648C168.267 40.9855 167.85 40.8458 167.313 40.8458C166.654 40.8458 166.137 41.0893 165.761 41.5763C165.388 42.0633 165.202 42.7561 165.202 43.6549V44.4122C165.202 45.2609 165.379 45.9358 165.734 46.4371C166.088 46.9384 166.584 47.1891 167.222 47.1891C167.795 47.1891 168.233 47.0602 168.538 46.8024C168.846 46.541 169.05 46.088 169.15 45.4435H170.187Z" fill="white"/>
<path d="M177.792 47.9249H176.755V40.9532H172.899V47.9249H171.868V40.1046H177.792V47.9249Z" fill="white"/>
<path d="M184.312 44.3102H180.923V47.0817H184.86V47.9249H179.892V40.1046H184.806V40.9532H180.923V43.4669H184.312V44.3102Z" fill="white"/>
<path d="M187.438 40.1046V47.0817H190.129V40.1046H191.155V47.0817H193.83V40.1046H194.861V47.9249H186.401V40.1046H187.438Z" fill="white"/>
<path d="M202.949 47.9249H201.913V44.3102H197.97V47.9249H196.939V40.1046H197.97V43.4669H201.913V40.1046H202.949V47.9249Z" fill="white"/>
<path d="M211.017 44.2672C211.017 45.0335 210.888 45.7031 210.63 46.276C210.372 46.8453 210.007 47.2804 209.534 47.5812C209.062 47.882 208.51 48.0323 207.88 48.0323C207.264 48.0323 206.718 47.882 206.242 47.5812C205.765 47.2768 205.395 46.8453 205.13 46.2867C204.868 45.7246 204.734 45.0747 204.727 44.337V43.7731C204.727 43.0211 204.858 42.3569 205.119 41.7804C205.381 41.2039 205.749 40.7635 206.226 40.4591C206.705 40.1512 207.253 39.9972 207.869 39.9972C208.496 39.9972 209.047 40.1494 209.523 40.4537C210.003 40.7545 210.372 41.1932 210.63 41.7697C210.888 42.3426 211.017 43.0104 211.017 43.7731V44.2672ZM209.991 43.7623C209.991 42.8349 209.805 42.1241 209.432 41.63C209.06 41.1323 208.539 40.8834 207.869 40.8834C207.217 40.8834 206.704 41.1323 206.328 41.63C205.955 42.1241 205.764 42.8116 205.753 43.6925V44.2672C205.753 45.166 205.941 45.8732 206.317 46.3888C206.696 46.9008 207.217 47.1569 207.88 47.1569C208.546 47.1569 209.062 46.9152 209.427 46.4318C209.792 45.9448 209.98 45.2483 209.991 44.3424V43.7623Z" fill="white"/>
<path d="M217.634 40.9532H213.863V47.9249H212.826V40.1046H217.634V40.9532Z" fill="white"/>
<path d="M224.777 44.2672C224.777 45.0335 224.648 45.7031 224.39 46.276C224.132 46.8453 223.767 47.2804 223.294 47.5812C222.822 47.882 222.27 48.0323 221.64 48.0323C221.024 48.0323 220.478 47.882 220.002 47.5812C219.526 47.2768 219.155 46.8453 218.89 46.2867C218.629 45.7246 218.495 45.0747 218.487 44.337V43.7731C218.487 43.0211 218.618 42.3569 218.879 41.7804C219.141 41.2039 219.51 40.7635 219.986 40.4591C220.466 40.1512 221.014 39.9972 221.629 39.9972C222.256 39.9972 222.807 40.1494 223.284 40.4537C223.764 40.7545 224.132 41.1932 224.39 41.7697C224.648 42.3426 224.777 43.0104 224.777 43.7731V44.2672ZM223.751 43.7623C223.751 42.8349 223.565 42.1241 223.192 41.63C222.82 41.1323 222.299 40.8834 221.629 40.8834C220.978 40.8834 220.464 41.1323 220.088 41.63C219.716 42.1241 219.524 42.8116 219.513 43.6925V44.2672C219.513 45.166 219.701 45.8732 220.077 46.3888C220.457 46.9008 220.978 47.1569 221.64 47.1569C222.306 47.1569 222.822 46.9152 223.187 46.4318C223.552 45.9448 223.74 45.2483 223.751 44.3424V43.7623Z" fill="white"/>
<path d="M235.245 45.4435C235.148 46.2706 234.842 46.9098 234.326 47.361C233.814 47.8086 233.132 48.0323 232.28 48.0323C231.356 48.0323 230.615 47.7011 230.056 47.0387C229.501 46.3763 229.224 45.49 229.224 44.38V43.6281C229.224 42.9012 229.353 42.262 229.61 41.7106C229.872 41.1591 230.241 40.7366 230.717 40.443C231.193 40.1458 231.745 39.9972 232.371 39.9972C233.202 39.9972 233.868 40.2299 234.369 40.6954C234.871 41.1573 235.162 41.7983 235.245 42.6183H234.208C234.119 41.9952 233.923 41.5441 233.623 41.2648C233.325 40.9855 232.908 40.8458 232.371 40.8458C231.712 40.8458 231.195 41.0893 230.819 41.5763C230.447 42.0633 230.26 42.7561 230.26 43.6549V44.4122C230.26 45.2609 230.438 45.9358 230.792 46.4371C231.147 46.9384 231.643 47.1891 232.28 47.1891C232.853 47.1891 233.291 47.0602 233.596 46.8024C233.904 46.541 234.108 46.088 234.208 45.4435H235.245Z" fill="white"/>
<path d="M242.12 40.9532H239.606V47.9249H238.58V40.9532H236.072V40.1046H242.12V40.9532Z" fill="white"/>
<path d="M247.388 45.8839H244.112L243.376 47.9249H242.313L245.299 40.1046H246.201L249.193 47.9249H248.135L247.388 45.8839ZM244.423 45.0353H247.082L245.75 41.3776L244.423 45.0353Z" fill="white"/>
<path d="M251.497 44.8634V47.9249H250.466V40.1046H253.35C254.206 40.1046 254.875 40.323 255.359 40.7599C255.846 41.1967 256.089 41.775 256.089 42.4948C256.089 43.2539 255.851 43.8393 255.375 44.2511C254.902 44.6593 254.224 44.8634 253.339 44.8634H251.497ZM251.497 44.0201H253.35C253.901 44.0201 254.324 43.8912 254.618 43.6334C254.911 43.372 255.058 42.9961 255.058 42.5055C255.058 42.04 254.911 41.6676 254.618 41.3883C254.324 41.109 253.921 40.964 253.409 40.9532H251.497V44.0201Z" fill="white"/>
<path d="M263.029 40.9532H260.515V47.9249H259.489V40.9532H256.981V40.1046H263.029V40.9532Z" fill="white"/>
<path d="M268.297 45.8839H265.021L264.285 47.9249H263.222L266.208 40.1046H267.11L270.102 47.9249H269.044L268.297 45.8839ZM265.333 45.0353H267.991L266.659 41.3776L265.333 45.0353Z" fill="white"/>
<path d="M98.5215 34H95.1465V8.40625H98.5215V34Z" fill="white"/>
<path d="M121.865 11.1836H113.639V34H110.281V11.1836H102.072V8.40625H121.865V11.1836Z" fill="white"/>
<path d="M146.334 8.40625V31.2402H155.141V8.40625H158.498V31.2402H167.252V8.40625H170.627V34H142.941V8.40625H146.334Z" fill="white"/>
<path d="M183.354 22.5039H180.242V34H176.867V8.40625H180.242V19.6914H182.879L191.826 8.40625H196.027L186.254 20.8164L196.748 34H192.617L183.354 22.5039Z" fill="white"/>
<path d="M218.967 22.0293C218.967 24.5371 218.545 26.7285 217.701 28.6035C216.857 30.4668 215.662 31.8906 214.115 32.875C212.568 33.8594 210.764 34.3516 208.701 34.3516C206.686 34.3516 204.898 33.8594 203.34 32.875C201.781 31.8789 200.568 30.4668 199.701 28.6387C198.846 26.7988 198.406 24.6719 198.383 22.2578V20.4121C198.383 17.9512 198.811 15.7773 199.666 13.8906C200.521 12.0039 201.729 10.5625 203.287 9.56641C204.857 8.55859 206.65 8.05469 208.666 8.05469C210.717 8.05469 212.521 8.55273 214.08 9.54883C215.65 10.5332 216.857 11.9688 217.701 13.8555C218.545 15.7305 218.967 17.916 218.967 20.4121V22.0293ZM215.609 20.377C215.609 17.3418 215 15.0156 213.781 13.3984C212.562 11.7695 210.857 10.9551 208.666 10.9551C206.533 10.9551 204.852 11.7695 203.621 13.3984C202.402 15.0156 201.775 17.2656 201.74 20.1484V22.0293C201.74 24.9707 202.355 27.2852 203.586 28.9727C204.828 30.6484 206.533 31.4863 208.701 31.4863C210.881 31.4863 212.568 30.6953 213.764 29.1133C214.959 27.5195 215.574 25.2402 215.609 22.2754V20.377Z" fill="white"/>
<path d="M242.82 8.40625V34H239.445V11.1836H230.27L229.812 21.3262C229.637 24.7246 229.285 27.2793 228.758 28.9902C228.242 30.7012 227.48 31.9609 226.473 32.7695C225.465 33.5664 224.117 33.9766 222.43 34H221.322V31.2402L222.025 31.2051C223.115 31.123 223.953 30.7715 224.539 30.1504C225.125 29.5176 225.57 28.5156 225.875 27.1445C226.18 25.7734 226.396 23.6641 226.525 20.8164L227.053 8.40625H242.82Z" fill="white"/>
<path d="M263.404 27.3203H252.682L250.273 34H246.793L256.566 8.40625H259.52L269.311 34H265.848L263.404 27.3203ZM253.701 24.543H262.402L258.043 12.5723L253.701 24.543Z" fill="white"/>
</svg>
