<svg width="77" height="55" viewBox="0 0 77 55" fill="none" xmlns="http://www.w3.org/2000/svg">
<path d="M33.6418 28.6172L37.0871 10.4062H42.343L36.6652 36H31.3566L27.1906 18.8789L23.0246 36H17.716L12.0383 10.4062H17.2941L20.757 28.582L24.9758 10.4062H29.4406L33.6418 28.6172ZM58.4797 29.2852C58.4797 28.2891 58.1281 27.5273 57.425 27C56.7219 26.4609 55.4562 25.8984 53.6281 25.3125C51.8 24.7148 50.3527 24.1289 49.2863 23.5547C46.3801 21.9844 44.9269 19.8691 44.9269 17.209C44.9269 15.8262 45.3137 14.5957 46.0871 13.5176C46.8723 12.4277 47.9914 11.5781 49.4445 10.9688C50.9094 10.3594 52.55 10.0547 54.3664 10.0547C56.1945 10.0547 57.8234 10.3887 59.2531 11.0566C60.6828 11.7129 61.7902 12.6445 62.5754 13.8516C63.3723 15.0586 63.7707 16.4297 63.7707 17.9648H58.4973C58.4973 16.793 58.1281 15.8848 57.3898 15.2402C56.6516 14.584 55.6144 14.2559 54.2785 14.2559C52.9894 14.2559 51.9875 14.5313 51.2726 15.082C50.5578 15.6211 50.2004 16.3359 50.2004 17.2266C50.2004 18.0586 50.6164 18.7559 51.4484 19.3184C52.2922 19.8809 53.5285 20.4082 55.1574 20.9004C58.1574 21.8027 60.343 22.9219 61.7141 24.2578C63.0851 25.5938 63.7707 27.2578 63.7707 29.25C63.7707 31.4648 62.9328 33.2051 61.257 34.4707C59.5812 35.7246 57.3254 36.3516 54.4894 36.3516C52.5207 36.3516 50.7277 35.9941 49.1105 35.2793C47.4933 34.5527 46.257 33.5625 45.4016 32.3086C44.5578 31.0547 44.1359 29.6016 44.1359 27.9492H49.4269C49.4269 30.7734 51.1144 32.1855 54.4894 32.1855C55.7433 32.1855 56.7219 31.9336 57.425 31.4297C58.1281 30.9141 58.4797 30.1992 58.4797 29.2852Z" fill="white"/>
<path d="M0.423035 26.7343C3.80765 26.7343 4.29117 24.1256 4.29117 21.8068C4.29117 19.971 4.09776 18.1353 3.90435 16.2029C3.71095 14.3672 3.51754 12.5314 3.51754 10.6957C3.51754 4.6087 6.41864 2 10.4802 2H11.4472V5.6715H10.5769C7.86919 5.76812 6.80545 7.7971 6.80545 11.372C6.80545 12.9179 6.99886 14.4638 7.09556 16.1063C7.28897 17.7488 7.48238 19.3913 7.48238 21.1304C7.48238 25.3816 6.12853 27.5072 4.09776 28.2802V28.3768C6.22523 29.1498 7.48238 31.372 7.48238 35.6232C7.48238 37.3623 7.28897 39.1015 7.09556 40.6473C6.99886 42.2899 6.80545 43.8358 6.80545 45.3816C6.80545 49.0531 7.96589 51.0821 10.5769 51.1787H11.3505V54.8502H10.3835C6.51534 54.8502 3.51754 52.4348 3.51754 45.7681C3.51754 44.029 3.71095 42.0966 3.90435 40.3575C4.09776 38.6184 4.29117 36.7826 4.29117 35.0435C4.29117 33.0145 3.80765 30.1159 0.423035 30.1159V26.7343Z" fill="white"/>
<path d="M76.7175 30.0193C73.3329 30.0193 72.8494 32.8213 72.8494 34.9469C72.8494 36.686 73.0428 38.5217 73.2362 40.2609C73.4296 42 73.623 43.9324 73.623 45.6715C73.623 52.3382 70.6252 54.7536 66.7571 54.7536H65.7901V51.0821H66.5637C69.2714 50.9855 70.3351 49.0531 70.3351 45.285C70.3351 43.7391 70.1417 42.1932 70.045 40.5507C69.8516 39.0048 69.6582 37.2657 69.6582 35.5266C69.6582 31.2754 71.012 29.0531 73.0428 28.2802V28.1836C70.9153 27.4106 69.6582 25.285 69.6582 21.0338C69.6582 19.2947 69.8516 17.6522 70.045 16.0097C70.1417 14.4638 70.3351 12.8213 70.3351 11.2754C70.3351 7.70048 69.3681 5.6715 66.5637 5.57488H65.6934V2H66.6604C70.7219 2 73.623 4.6087 73.623 10.6957C73.623 12.5314 73.4296 14.3672 73.2362 16.2029C73.0428 18.0386 72.8494 19.8744 72.8494 21.8068C72.8494 24.1256 73.3329 26.7343 76.7175 26.7343V30.0193Z" fill="white"/>
<path d="M16.3205 45.6304L17.4377 41.1885H18.4313L16.7394 47H15.9338L14.5212 42.5957L13.1462 47H12.3405L10.654 41.1885H11.6423L12.7863 45.5391L14.1398 41.1885H14.9401L16.3205 45.6304ZM21.8581 47.1074C21.0703 47.1074 20.4294 46.8496 19.9352 46.334C19.4411 45.8148 19.194 45.1219 19.194 44.2554V44.0728C19.194 43.4963 19.3032 42.9824 19.5217 42.5312C19.7437 42.0765 20.0516 41.722 20.4455 41.4678C20.843 41.21 21.2726 41.0811 21.7346 41.0811C22.4901 41.0811 23.0773 41.3299 23.4963 41.8276C23.9152 42.3254 24.1247 43.0379 24.1247 43.9653V44.3789H20.1877C20.202 44.9518 20.3685 45.4155 20.6872 45.77C21.0095 46.1209 21.4177 46.2964 21.9118 46.2964C22.2627 46.2964 22.5599 46.2248 22.8034 46.0815C23.0469 45.9383 23.2599 45.7485 23.4426 45.5122L24.0495 45.9849C23.5625 46.7332 22.8321 47.1074 21.8581 47.1074ZM21.7346 41.8975C21.3335 41.8975 20.9969 42.0443 20.7248 42.3379C20.4527 42.6279 20.2844 43.0361 20.2199 43.5625H23.131V43.4873C23.1024 42.9824 22.9663 42.5921 22.7228 42.3164C22.4793 42.0371 22.1499 41.8975 21.7346 41.8975ZM30.1994 44.1587C30.1994 45.0467 29.9953 45.7611 29.5871 46.3018C29.1789 46.8389 28.631 47.1074 27.9435 47.1074C27.2095 47.1074 26.6419 46.8478 26.2409 46.3286L26.1926 47H25.2795V38.75H26.2731V41.8276C26.6742 41.3299 27.2274 41.0811 27.9328 41.0811C28.6382 41.0811 29.1914 41.3478 29.5925 41.8813C29.9971 42.4149 30.1994 43.1453 30.1994 44.0728V44.1587ZM29.2057 44.0459C29.2057 43.3691 29.0751 42.8464 28.8137 42.4775C28.5523 42.1087 28.1763 41.9243 27.6857 41.9243C27.0305 41.9243 26.5596 42.2287 26.2731 42.8374V45.3511C26.5775 45.9598 27.0519 46.2642 27.6965 46.2642C28.1727 46.2642 28.5433 46.0798 28.8083 45.7109C29.0733 45.3421 29.2057 44.7871 29.2057 44.0459ZM37.5685 45.4585C37.5685 45.1899 37.4665 44.9823 37.2624 44.8354C37.0619 44.6851 36.7092 44.5562 36.2043 44.4487C35.703 44.3413 35.3037 44.2124 35.0065 44.062C34.7129 43.9116 34.4945 43.7326 34.3513 43.5249C34.2116 43.3172 34.1418 43.0701 34.1418 42.7837C34.1418 42.3075 34.3423 41.9046 34.7433 41.5752C35.148 41.2458 35.6636 41.0811 36.2902 41.0811C36.9491 41.0811 37.4826 41.2511 37.8908 41.5913C38.3026 41.9315 38.5085 42.3665 38.5085 42.8965H37.5095C37.5095 42.6243 37.3931 42.3898 37.1603 42.1929C36.9312 41.9959 36.6411 41.8975 36.2902 41.8975C35.9286 41.8975 35.6457 41.9762 35.4416 42.1338C35.2375 42.2913 35.1354 42.4972 35.1354 42.7515C35.1354 42.9914 35.2303 43.1722 35.4201 43.2939C35.6099 43.4157 35.9518 43.5321 36.446 43.6431C36.9437 43.7541 37.3465 43.8866 37.6545 44.0405C37.9624 44.1945 38.1898 44.3807 38.3366 44.5991C38.487 44.814 38.5622 45.0771 38.5622 45.3887C38.5622 45.9079 38.3545 46.325 37.9391 46.6401C37.5238 46.9517 36.9849 47.1074 36.3224 47.1074C35.857 47.1074 35.4452 47.0251 35.0871 46.8604C34.729 46.6956 34.4479 46.4665 34.2438 46.1729C34.0433 45.8757 33.9431 45.5552 33.9431 45.2114H34.9367C34.9546 45.5444 35.0871 45.8094 35.3342 46.0063C35.5848 46.1997 35.9142 46.2964 36.3224 46.2964C36.6984 46.2964 36.9992 46.2212 37.2248 46.0708C37.454 45.9168 37.5685 45.7127 37.5685 45.4585ZM42.1877 46.2964C42.5422 46.2964 42.8519 46.189 43.1169 45.9741C43.3819 45.7593 43.5287 45.4907 43.5573 45.1685H44.4973C44.4793 45.5015 44.3648 45.8184 44.1535 46.1191C43.9422 46.4199 43.6594 46.6598 43.3049 46.8389C42.954 47.0179 42.5816 47.1074 42.1877 47.1074C41.3963 47.1074 40.7661 46.8442 40.2971 46.3179C39.8316 45.7879 39.5988 45.0646 39.5988 44.1479V43.9814C39.5988 43.4157 39.7027 42.9126 39.9103 42.4722C40.118 42.0317 40.4152 41.6898 40.8019 41.4463C41.1922 41.2028 41.6524 41.0811 42.1823 41.0811C42.834 41.0811 43.3747 41.2762 43.8044 41.6665C44.2377 42.0568 44.4686 42.5635 44.4973 43.1865H43.5573C43.5287 42.8105 43.3854 42.5026 43.1276 42.2627C42.8734 42.0192 42.5583 41.8975 42.1823 41.8975C41.6774 41.8975 41.2853 42.0801 41.006 42.4453C40.7303 42.807 40.5925 43.3315 40.5925 44.019V44.207C40.5925 44.8766 40.7303 45.3923 41.006 45.7539C41.2818 46.1156 41.6756 46.2964 42.1877 46.2964ZM46.6081 41.8921C47.0485 41.3514 47.6214 41.0811 48.3268 41.0811C49.555 41.0811 50.1745 41.7739 50.1852 43.1597V47H49.1916V43.1543C49.188 42.7354 49.0913 42.4256 48.9016 42.2251C48.7154 42.0246 48.4235 41.9243 48.0261 41.9243C47.7038 41.9243 47.4209 42.0103 47.1774 42.1821C46.9339 42.354 46.7442 42.5796 46.6081 42.8589V47H45.6144V38.75H46.6081V41.8921ZM51.4099 44.0405C51.4099 43.4712 51.5209 42.9591 51.7429 42.5044C51.9684 42.0496 52.28 41.6987 52.6774 41.4517C53.0785 41.2046 53.535 41.0811 54.0471 41.0811C54.8384 41.0811 55.4776 41.355 55.9645 41.9028C56.4551 42.4507 56.7004 43.1794 56.7004 44.0889V44.1587C56.7004 44.7244 56.5912 45.2329 56.3727 45.6841C56.1579 46.1317 55.8482 46.4808 55.4435 46.7314C55.0425 46.9821 54.5806 47.1074 54.0578 47.1074C53.27 47.1074 52.6309 46.8335 52.1403 46.2856C51.6533 45.7378 51.4099 45.0127 51.4099 44.1104V44.0405ZM52.4089 44.1587C52.4089 44.8032 52.5575 45.3206 52.8547 45.7109C53.1555 46.1012 53.5565 46.2964 54.0578 46.2964C54.5627 46.2964 54.9637 46.0994 55.2609 45.7056C55.5581 45.3081 55.7067 44.7531 55.7067 44.0405C55.7067 43.4032 55.5545 42.8875 55.2502 42.4937C54.9494 42.0962 54.5484 41.8975 54.0471 41.8975C53.5565 41.8975 53.1608 42.0926 52.86 42.4829C52.5593 42.8732 52.4089 43.4318 52.4089 44.1587ZM57.6833 44.0405C57.6833 43.4712 57.7943 42.9591 58.0163 42.5044C58.2419 42.0496 58.5534 41.6987 58.9509 41.4517C59.3519 41.2046 59.8085 41.0811 60.3205 41.0811C61.1118 41.0811 61.751 41.355 62.238 41.9028C62.7285 42.4507 62.9738 43.1794 62.9738 44.0889V44.1587C62.9738 44.7244 62.8646 45.2329 62.6462 45.6841C62.4313 46.1317 62.1216 46.4808 61.717 46.7314C61.3159 46.9821 60.854 47.1074 60.3312 47.1074C59.5435 47.1074 58.9043 46.8335 58.4138 46.2856C57.9268 45.7378 57.6833 45.0127 57.6833 44.1104V44.0405ZM58.6823 44.1587C58.6823 44.8032 58.8309 45.3206 59.1281 45.7109C59.4289 46.1012 59.8299 46.2964 60.3312 46.2964C60.8361 46.2964 61.2372 46.0994 61.5344 45.7056C61.8316 45.3081 61.9802 44.7531 61.9802 44.0405C61.9802 43.4032 61.828 42.8875 61.5236 42.4937C61.2228 42.0962 60.8218 41.8975 60.3205 41.8975C59.8299 41.8975 59.4343 42.0926 59.1335 42.4829C58.8327 42.8732 58.6823 43.4318 58.6823 44.1587ZM65.2995 47H64.3058V38.75H65.2995V47Z" fill="white"/>
</svg>
