<svg width="56" height="71" viewBox="0 0 56 71" fill="none" xmlns="http://www.w3.org/2000/svg">
<path d="M39.7329 26.9597C40.3572 23.8145 39.1085 20.879 34.9461 20.879C31.6161 20.879 30.9917 23.3952 30.5755 25.0726C29.9511 23.3952 28.7024 20.879 25.7887 20.879C21.8344 20.879 20.3775 23.1855 21.0019 26.9597C21.8344 32.2016 30.5755 38.9113 30.5755 38.9113C30.5755 38.9113 38.9004 31.7823 39.7329 26.9597Z" fill="#7973B3"/>
<path d="M54.3013 31.5726C53.677 30.7339 52.6364 30.3146 51.5958 30.3146H45.5602C45.5602 30.1049 45.7683 30.1049 45.7683 29.8952C46.6008 28.2178 46.809 26.5404 46.809 24.8629C46.809 21.5081 45.5602 18.3629 43.479 16.2662C41.6059 14.3791 39.1084 13.3307 36.4029 13.3307C34.1135 13.3307 32.2404 14.1694 30.5755 15.6371C28.9105 14.1694 26.413 13.3307 24.1237 13.3307C21.21 13.3307 18.5044 14.5888 16.6313 16.8952C14.7582 18.992 13.7176 21.9275 13.7176 24.8629C13.7176 26.5404 14.1338 28.2178 14.7582 29.8952C14.7582 30.1049 14.9663 30.1049 14.9663 30.3146H9.34703C7.89018 30.3146 6.64144 31.1533 6.01708 32.2017L1.02216 41.0081C-0.018453 42.6855 -0.018453 44.7823 1.02216 46.4597C2.06277 48.1371 3.72774 49.1855 5.80896 49.1855H7.47393L7.89018 56.1049C7.89018 57.992 8.72266 59.8791 10.1795 61.1371C11.6364 62.3952 13.5095 63.0242 15.3826 62.6049L16.8394 62.3952V66.3791C16.8394 68.4758 18.5044 70.3629 20.7937 70.3629H42.8546C44.9359 70.3629 46.809 68.6855 46.809 66.3791V54.0081C52.4282 49.8146 55.3419 43.3146 55.7582 34.2984C55.3419 33.25 55.1338 32.2017 54.3013 31.5726ZM43.2709 51.2823L42.2303 51.9113V66.1694H21.0018V57.7823L14.7582 58.621C14.1338 58.8307 13.3013 58.621 12.8851 57.992C12.2607 57.5726 12.0526 56.7339 12.0526 55.8952L11.4282 44.7823H5.60084C5.18459 44.7823 4.76835 44.5726 4.56023 44.1533C4.3521 43.7339 4.3521 43.3146 4.56023 42.8952L9.55515 34.2984H22.8749L20.5856 30.9436C19.9612 29.8952 19.3369 28.8468 18.9206 28.0081C18.5044 26.75 18.0881 25.7017 18.0881 24.6533C18.0881 22.5565 18.7125 20.8791 19.9612 19.4113C22.2506 16.6855 27.0374 16.6855 29.3267 19.621L30.7836 21.7178L32.0323 19.621C34.3216 16.6855 38.0678 16.6855 40.5653 18.992C42.0222 20.4597 42.8546 22.5565 42.6465 24.6533C42.6465 25.7017 42.4384 26.9597 41.814 28.0081C41.3978 28.8468 40.7734 29.8952 40.1491 30.9436L37.8597 34.2984H51.3876C50.9714 42.4758 48.2658 47.9275 43.2709 51.2823Z" fill="#7973B3"/>
<path d="M30.3672 5.99194C31.4078 5.99194 32.2403 5.15323 32.2403 4.10484V2.6371C32.2403 1.58871 31.4078 0.75 30.3672 0.75C29.3266 0.75 28.4941 1.58871 28.4941 2.6371V4.10484C28.4941 5.15323 29.3266 5.99194 30.3672 5.99194Z" fill="#7973B3"/>
<path d="M13.0932 11.0242C13.5094 11.4435 13.9257 11.6532 14.3419 11.6532C14.7582 11.6532 15.3825 11.4435 15.5906 11.0242C16.4231 10.1854 16.4231 9.13706 15.5906 8.29835L14.3419 7.04029C13.5094 6.20158 12.4688 6.20158 11.6363 7.04029C10.8038 7.879 10.8038 8.92738 11.6363 9.76609L13.0932 11.0242Z" fill="#7973B3"/>
<path d="M46.6009 11.6532C47.0171 11.6532 47.6415 11.4435 47.8496 11.0242L49.0983 9.76609C49.9308 8.92738 49.9308 7.879 49.0983 7.04029C48.2658 6.20158 47.2252 6.20158 46.3928 7.04029L45.144 8.29835C44.3115 9.13706 44.3115 10.1854 45.144 11.0242C45.5603 11.4435 46.1846 11.6532 46.6009 11.6532Z" fill="#7973B3"/>
<path d="M7.2658 23.8145H8.72265C9.76326 23.8145 10.5957 22.9758 10.5957 21.9274C10.5957 20.879 9.76326 20.0403 8.72265 20.0403H7.2658C6.22519 20.0403 5.3927 20.879 5.3927 21.9274C5.3927 22.9758 6.22519 23.8145 7.2658 23.8145Z" fill="#7973B3"/>
<path d="M53.4689 20.0403H52.012C50.9714 20.0403 50.1389 20.879 50.1389 21.9274C50.1389 22.9758 50.9714 23.8145 52.012 23.8145H53.4689C54.5095 23.8145 55.342 22.9758 55.342 21.9274C55.342 20.879 54.5095 20.0403 53.4689 20.0403Z" fill="#7973B3"/>
</svg>
