<svg width="72" height="72" viewBox="0 0 72 72" fill="none" xmlns="http://www.w3.org/2000/svg">
<path d="M41.5398 51.5265L48.9239 50.0042C48.9728 49.6087 49.0145 49.2098 49.045 48.8028C49.1132 47.8521 49.123 46.9109 49.0843 45.9795L41.8552 43.8787C41.7733 43.4359 41.6692 43.0029 41.5556 42.5715L47.1788 37.6027C46.6475 36.359 46.0188 35.1645 45.2917 34.0337L37.9608 35.7965C37.6685 35.4573 37.3631 35.1325 37.0456 34.8172L39.409 27.725C38.3304 26.9154 37.1828 26.1905 35.9712 25.5672L30.5134 30.7198C30.091 30.5742 29.6594 30.441 29.2239 30.325L27.6895 23.0124C27.288 22.9663 26.8837 22.925 26.4746 22.8959C25.5133 22.8237 24.562 22.8169 23.6216 22.8537L21.4996 30.0126C21.0549 30.093 20.6146 30.195 20.1824 30.3093L15.1623 24.7382C13.9064 25.2657 12.6996 25.8907 11.5561 26.6085L13.336 33.8681C12.994 34.1568 12.6659 34.4601 12.3479 34.7736L5.18584 32.4347C4.36859 33.5028 3.63761 34.6377 3.00506 35.8363L8.21162 41.2426C8.06203 41.6611 7.92942 42.0861 7.81126 42.5177L0.425753 44.0381C0.376654 44.4352 0.335586 44.8375 0.306219 45.2394C0.235094 46.1921 0.226832 47.1328 0.266294 48.0651L7.49647 50.1662C7.57815 50.6067 7.67933 51.0417 7.79611 51.4699L2.16946 56.441C2.70198 57.6845 3.33062 58.8797 4.05885 60.0094L11.3891 58.2479C11.6816 58.5864 11.9881 58.9106 12.3047 59.2266L9.94225 66.3189C11.0206 67.1256 12.1675 67.8494 13.3771 68.4784L18.837 63.3222C19.26 63.4712 19.6889 63.6025 20.1257 63.7197L21.6613 71.0286C22.0621 71.0785 22.4671 71.1195 22.8762 71.1488C23.8368 71.2208 24.7876 71.2271 25.7292 71.1892L27.8515 64.0316C28.297 63.9491 28.7348 63.8487 29.1693 63.7345L34.1885 69.3055C35.4446 68.7762 36.6505 68.1538 37.7938 67.4334L36.0143 60.1729C36.3548 59.8856 36.6822 59.5823 37.0002 59.2681L44.1647 61.6091C44.9808 60.5425 45.713 59.4049 46.346 58.2068L41.1376 52.8007C41.2876 52.384 41.4221 51.9588 41.5398 51.5265ZM23.6211 61.1568C15.7341 60.5825 9.81468 53.7898 10.3984 45.977C10.9786 38.1729 17.8449 32.3095 25.7251 32.8851C33.616 33.4621 39.5357 40.2581 38.955 48.0635C38.3713 55.8724 31.507 61.7358 23.6211 61.1568Z" fill="#7973B3"/>
<path d="M68.7144 47.3665L71.3608 45.8315C71.2374 45.1372 71.0362 44.461 70.7656 43.8162L67.7021 43.9367L69.2192 41.2973C68.7661 40.7632 68.2533 40.277 67.6865 39.8469L65.0919 41.4666L65.0737 38.4295C64.744 38.3121 64.4056 38.2096 64.0576 38.1252C63.7095 38.0401 63.3609 37.9789 63.0141 37.9333L61.5853 40.6207L60.0356 37.9987C59.3327 38.1221 58.6505 38.3219 58.0005 38.589L58.1197 41.6234L55.4557 40.1187C54.9156 40.5693 54.4238 41.0769 53.9898 41.6366L55.6265 44.2067L52.5593 44.2253C52.4398 44.5516 52.3355 44.8866 52.2511 45.2308C52.1669 45.5744 52.102 45.9203 52.0564 46.2634L54.7719 47.6779L52.124 49.213C52.2487 49.9081 52.449 50.5828 52.7195 51.2271L55.7833 51.1086L54.2665 53.7475C54.7198 54.2814 55.2326 54.7685 55.7977 55.1995L58.3931 53.5798L58.412 56.6161C58.7414 56.7337 59.0797 56.837 59.4273 56.9199C59.7759 57.0034 60.1234 57.0677 60.4706 57.1123L61.8999 54.4251L63.4483 57.0468C64.1518 56.9227 64.8336 56.725 65.4841 56.4557L65.3639 53.4237L68.0293 54.9251C68.5689 54.4761 69.0605 53.9685 69.4945 53.4092L67.8579 50.8385L70.9255 50.8206C71.0441 50.4939 71.1482 50.1591 71.2349 49.8148C71.3175 49.4704 71.3811 49.1241 71.4282 48.7817L68.7144 47.3665ZM66.6165 48.8835C65.931 51.6652 63.0945 53.3724 60.2847 52.6947C57.4712 52.0151 55.7492 49.207 56.4347 46.4228C57.1211 43.6396 59.955 41.9344 62.767 42.6128C65.58 43.2928 67.3013 46.0978 66.6165 48.8835Z" fill="#7973B3"/>
<path d="M66.6723 15.45L71.0067 12.936C70.8046 11.7988 70.475 10.6913 70.0319 9.6352L65.0143 9.83255L67.4991 5.50956C66.757 4.63479 65.917 3.8385 64.9888 3.13405L60.7391 5.78688L60.7094 0.81264C60.1694 0.620329 59.6152 0.452395 59.0451 0.31418C58.475 0.174777 57.904 0.0746061 57.336 0L54.996 4.40146L52.4578 0.107005C51.3065 0.309125 50.1891 0.636383 49.1246 1.07391L49.3197 6.04369L44.9566 3.57931C44.0719 4.31735 43.2665 5.14872 42.5556 6.06539L45.2364 10.2748L40.2128 10.3052C40.0171 10.8396 39.8462 11.3883 39.7079 11.9521C39.5701 12.5148 39.4638 13.0813 39.389 13.6434L43.8365 15.9601L39.4998 18.4744C39.704 19.6128 40.0321 20.7179 40.4752 21.7731L45.4931 21.579L43.0089 25.9011C43.7513 26.7756 44.5912 27.5734 45.5168 28.2793L49.7676 25.6265L49.7986 30.5995C50.338 30.7921 50.8922 30.9613 51.4614 31.0971C52.0324 31.2338 52.6015 31.339 53.1701 31.4122L55.5111 27.011L58.0472 31.3049C59.1994 31.1016 60.3161 30.7779 61.3816 30.3368L61.1846 25.3708L65.5502 27.8299C66.434 27.0945 67.2391 26.2631 67.95 25.3471L65.2695 21.1367L70.2937 21.1073C70.4879 20.5723 70.6584 20.0239 70.8004 19.46C70.9358 18.8959 71.04 18.3287 71.1171 17.7679L66.6723 15.45ZM63.2362 17.9346C62.1135 22.4906 57.4678 25.2867 52.8657 24.1768C48.2576 23.0637 45.4372 18.4646 46.56 13.9044C47.6842 9.34598 52.3257 6.55316 56.9314 7.66422C61.5386 8.77796 64.3578 13.372 63.2362 17.9346Z" fill="#7973B3"/>
</svg>
