<svg width="14" height="52" viewBox="0 0 14 52" fill="none" xmlns="http://www.w3.org/2000/svg">
<path d="M11.6631 34.7432H2.33203L0.862305 0.734375H13.1328L11.6631 34.7432ZM0.520508 45.3389C0.520508 43.6527 1.12435 42.2741 2.33203 41.2031C3.5625 40.1094 5.08919 39.5625 6.91211 39.5625C8.73503 39.5625 10.2503 40.1094 11.458 41.2031C12.6885 42.2741 13.3037 43.6527 13.3037 45.3389C13.3037 47.0251 12.6885 48.415 11.458 49.5088C10.2503 50.5798 8.73503 51.1152 6.91211 51.1152C5.08919 51.1152 3.5625 50.5798 2.33203 49.5088C1.12435 48.415 0.520508 47.0251 0.520508 45.3389Z" fill="#7973B3"/>
</svg>
