<svg width="53" height="56" viewBox="0 0 53 56" fill="none" xmlns="http://www.w3.org/2000/svg">
<path d="M42.0686 0.25H26.8539H0.589844V10.517V14.6825V55.0074H52.5898V14.6825V10.517V0.25H42.0686ZM47.7595 4.84571V10.1063H42.0686V4.84571H47.7595ZM31.6842 10.0868V4.86527H37.2382V10.0868H31.6842ZM5.42023 4.84571H26.8539V10.1063H5.42023V4.84571ZM47.7595 50.7246H5.42023V14.7998H26.8539H42.0686H47.7595V50.7246Z" fill="#7973B3"/>
<path d="M36.3972 40.0274C36.0061 40.0274 35.6346 39.871 35.3412 39.5972L32.7402 37.0744L32.9749 36.8593C33.8549 36.038 35.6737 33.8672 36.2408 33.1828L32.7598 29.78L35.3217 26.9639C35.5954 26.651 36.0061 26.475 36.4168 26.475C36.4168 26.475 36.4168 26.475 36.4364 26.475C36.847 26.475 37.2577 26.651 37.5315 26.9443L43.3788 33.1632L37.4728 39.5581C37.1991 39.8514 36.8275 40.0274 36.4168 40.047C36.4168 40.0274 36.4168 40.0274 36.3972 40.0274Z" fill="#7973B3"/>
<path d="M16.9193 40.047C16.5086 40.0274 16.137 39.8514 15.8633 39.5581L9.95728 33.1632L15.8046 26.9443C16.0784 26.651 16.4891 26.475 16.8997 26.475C16.9193 26.475 16.9193 26.475 16.9193 26.475C17.33 26.475 17.7407 26.651 18.0144 26.9639L20.5763 29.78L17.0953 33.1828C17.6624 33.8672 19.4812 36.038 20.3612 36.8593L20.5959 37.0744L17.9949 39.5972C17.7015 39.871 17.33 40.0274 16.9388 40.0274C16.9193 40.0274 16.9193 40.0274 16.9193 40.047Z" fill="#7973B3"/>
<path d="M24.5071 43.9973C24.3311 43.9973 24.1356 43.9582 23.9595 43.8995L21.8084 43.0781C21.0261 42.7848 20.635 41.8852 20.9283 41.103L27.3232 24.441C27.6166 23.6588 28.5162 23.2677 29.2984 23.561L31.4496 24.3824C31.8212 24.5193 32.1341 24.8126 32.2905 25.1842C32.447 25.5558 32.4665 25.9664 32.3101 26.3576L25.9152 43.0195C25.7783 43.391 25.4849 43.7039 25.1134 43.8604C24.9374 43.9386 24.7222 43.9973 24.5071 43.9973Z" fill="#7973B3"/>
</svg>
