<svg width="470" height="382" viewBox="0 0 470 382" fill="none" xmlns="http://www.w3.org/2000/svg">
<path d="M369.33 249.213L411.322 66.8398H469.184L397.162 331H348.334L291.694 149.604L236.029 331H187.201L114.936 66.8398H172.797L215.522 247.26L269.721 66.8398H314.399L369.33 249.213Z" fill="#545452"/>
<path fill-rule="evenodd" clip-rule="evenodd" d="M138.824 0C81.7213 0 53.1706 19.531 53.172 58.593C53.2802 67.8161 54.2336 77.0099 56.02 86.059L62.937 122.273C63.8749 127.58 64.3513 132.959 64.361 138.348C64.361 163.169 49.17 175.579 18.788 175.579H0.273987V205.688H18.788C49.1687 205.688 64.3597 218.166 64.361 243.123C64.3513 248.512 63.8749 253.89 62.937 259.196L56.02 295.41C54.2319 304.459 53.2769 313.653 53.167 322.876C53.167 341.863 60.525 356.376 75.241 366.414C89.957 376.452 111.15 381.47 138.819 381.469H160.995V351.359H144.928C124.716 351.359 110.474 348.884 102.203 343.933C93.9317 338.982 89.795 330.403 89.793 318.196C89.9783 311.848 90.6422 305.523 91.779 299.275L96.354 271.199C97.6629 263.602 98.394 255.917 98.541 248.209C98.541 218.642 85.249 199.45 58.665 190.633C85.247 181.954 98.539 163.033 98.541 133.87C98.3816 125.954 97.6016 118.064 96.208 110.27L91.738 81.99C90.6203 75.8087 89.9701 69.552 89.793 63.273C89.793 51.0657 93.9297 42.4867 102.203 37.536C110.476 32.5853 124.718 30.11 144.928 30.11H161V0H138.824Z" fill="#7973B3"/>
<path d="M126.694 54.8366L128.407 45.4748H131.975L128.807 60.4045H125.074L123.075 51.8938L121.116 60.4045H117.394L114.215 45.4748H117.794L119.506 54.8366L121.557 45.4748H124.613L126.694 54.8366Z" fill="#545452"/>
<path d="M137.23 50.4992C137.968 49.5695 138.911 49.1047 140.06 49.1047C141.283 49.1047 142.206 49.467 142.828 50.1916C143.45 50.9162 143.768 51.986 143.782 53.4011V60.4045H140.316V53.4831C140.316 52.8952 140.196 52.4646 139.957 52.1911C139.718 51.9108 139.311 51.7707 138.737 51.7707C138.026 51.7707 137.524 51.9963 137.23 52.4475V60.4045H133.774V44.6545H137.23V50.4992Z" fill="#545452"/>
<path d="M149.98 60.4045H146.514V49.3098H149.98V60.4045ZM146.309 46.4489C146.309 45.9567 146.487 45.5534 146.842 45.239C147.198 44.9245 147.659 44.7673 148.226 44.7673C148.794 44.7673 149.255 44.9245 149.611 45.239C149.966 45.5534 150.144 45.9567 150.144 46.4489C150.144 46.9411 149.966 47.3444 149.611 47.6589C149.255 47.9733 148.794 48.1306 148.226 48.1306C147.659 48.1306 147.198 47.9733 146.842 47.6589C146.487 47.3444 146.309 46.9411 146.309 46.4489Z" fill="#545452"/>
<path d="M156.393 60.4045H152.927V44.6545H156.393V60.4045Z" fill="#545452"/>
<path d="M164.529 60.6096C162.827 60.6096 161.449 60.1037 160.396 59.092C159.344 58.0734 158.817 56.7507 158.817 55.1237V54.8366C158.817 53.7019 159.026 52.7004 159.443 51.8322C159.867 50.9641 160.482 50.2941 161.289 49.8225C162.095 49.3439 163.052 49.1047 164.16 49.1047C165.718 49.1047 166.949 49.59 167.851 50.5607C168.753 51.5246 169.205 52.8713 169.205 54.6008V55.944H162.334C162.458 56.5661 162.728 57.0549 163.145 57.4104C163.562 57.7658 164.102 57.9436 164.765 57.9436C165.858 57.9436 166.713 57.5607 167.328 56.7951L168.907 58.6613C168.477 59.2561 167.865 59.7312 167.072 60.0866C166.286 60.4353 165.438 60.6096 164.529 60.6096ZM164.139 51.7707C163.127 51.7707 162.526 52.4406 162.334 53.7805H165.821V53.5139C165.834 52.9602 165.694 52.5329 165.4 52.2321C165.106 51.9245 164.686 51.7707 164.139 51.7707Z" fill="#545452"/>
<path d="M188.819 54.8366L190.531 45.4748H194.1L190.931 60.4045H187.199L185.199 51.8938L183.241 60.4045H179.519L176.34 45.4748H179.919L181.631 54.8366L183.682 45.4748H186.738L188.819 54.8366Z" fill="#545452"/>
<path d="M201.015 60.6096C199.313 60.6096 197.936 60.1037 196.883 59.092C195.83 58.0734 195.304 56.7507 195.304 55.1237V54.8366C195.304 53.7019 195.513 52.7004 195.93 51.8322C196.353 50.9641 196.969 50.2941 197.775 49.8225C198.582 49.3439 199.539 49.1047 200.646 49.1047C202.205 49.1047 203.435 49.59 204.338 50.5607C205.24 51.5246 205.691 52.8713 205.691 54.6008V55.944H198.821C198.944 56.5661 199.214 57.0549 199.631 57.4104C200.048 57.7658 200.588 57.9436 201.251 57.9436C202.345 57.9436 203.2 57.5607 203.815 56.7951L205.394 58.6613C204.963 59.2561 204.351 59.7312 203.558 60.0866C202.772 60.4353 201.925 60.6096 201.015 60.6096ZM200.626 51.7707C199.614 51.7707 199.013 52.4406 198.821 53.7805H202.307V53.5139C202.321 52.9602 202.181 52.5329 201.887 52.2321C201.593 51.9245 201.173 51.7707 200.626 51.7707Z" fill="#545452"/>
<path d="M218.021 54.9494C218.021 56.7678 217.645 58.1657 216.893 59.1433C216.141 60.1208 215.082 60.6096 213.714 60.6096C212.586 60.6096 211.677 60.1618 210.987 59.2663L210.843 60.4045H207.747V44.6545H211.202V50.2019C211.845 49.4704 212.675 49.1047 213.694 49.1047C215.075 49.1047 216.141 49.6003 216.893 50.5915C217.645 51.5827 218.021 52.9772 218.021 54.7751V54.9494ZM214.555 54.7341C214.555 53.6677 214.412 52.9089 214.124 52.4577C213.844 51.9997 213.41 51.7707 212.822 51.7707C212.043 51.7707 211.503 52.0681 211.202 52.6628V57.072C211.496 57.6599 212.043 57.9538 212.843 57.9538C213.656 57.9538 214.172 57.5573 214.391 56.7644C214.5 56.3747 214.555 55.698 214.555 54.7341Z" fill="#545452"/>
<path d="M229.801 55.3391V60.4045H226.202V45.4748H232.16C233.301 45.4748 234.31 45.6867 235.185 46.1105C236.067 46.5275 236.747 47.1257 237.225 47.905C237.711 48.6774 237.953 49.5559 237.953 50.5402C237.953 51.9963 237.43 53.1618 236.384 54.0368C235.345 54.905 233.917 55.3391 232.098 55.3391H229.801ZM229.801 52.5603H232.16C232.857 52.5603 233.387 52.3859 233.749 52.0373C234.118 51.6887 234.303 51.1965 234.303 50.5607C234.303 49.8635 234.115 49.3064 233.739 48.8894C233.363 48.4724 232.85 48.2605 232.201 48.2536H229.801V52.5603Z" fill="#545452"/>
<path d="M247.063 52.4372L245.925 52.3552C244.838 52.3552 244.141 52.697 243.833 53.3806V60.4045H240.378V49.3098H243.618L243.731 50.7351C244.312 49.6481 245.122 49.1047 246.161 49.1047C246.53 49.1047 246.851 49.1457 247.125 49.2277L247.063 52.4372Z" fill="#545452"/>
<path d="M248.134 54.7546C248.134 53.6472 248.35 52.6628 248.78 51.8015C249.211 50.9333 249.83 50.2668 250.636 49.802C251.443 49.3371 252.39 49.1047 253.477 49.1047C255.138 49.1047 256.447 49.6208 257.404 50.653C258.361 51.6784 258.839 53.0764 258.839 54.8469V54.9699C258.839 56.6994 258.357 58.0734 257.393 59.092C256.436 60.1037 255.138 60.6096 253.497 60.6096C251.918 60.6096 250.65 60.1379 249.693 59.1945C248.736 58.2443 248.22 56.9592 248.144 55.3391L248.134 54.7546ZM251.59 54.9699C251.59 55.9953 251.75 56.7473 252.072 57.2258C252.393 57.7043 252.868 57.9436 253.497 57.9436C254.727 57.9436 255.356 56.9968 255.384 55.1032V54.7546C255.384 52.7653 254.748 51.7707 253.477 51.7707C252.321 51.7707 251.696 52.6286 251.6 54.3444L251.59 54.9699Z" fill="#545452"/>
<path d="M260.556 54.7751C260.556 53.0183 260.936 51.634 261.694 50.6223C262.453 49.6105 263.513 49.1047 264.873 49.1047C265.864 49.1047 266.698 49.4943 267.375 50.2736V44.6545H270.841V60.4045H267.734L267.56 59.215C266.849 60.1447 265.946 60.6096 264.853 60.6096C263.533 60.6096 262.487 60.1037 261.715 59.092C260.942 58.0803 260.556 56.6413 260.556 54.7751ZM264.012 54.9904C264.012 56.9592 264.586 57.9436 265.734 57.9436C266.5 57.9436 267.047 57.6223 267.375 56.9797V52.7551C267.061 52.0988 266.521 51.7707 265.755 51.7707C264.689 51.7707 264.111 52.632 264.022 54.3547L264.012 54.9904Z" fill="#545452"/>
<path d="M280.043 59.2048C279.312 60.1413 278.324 60.6096 277.08 60.6096C275.863 60.6096 274.94 60.2575 274.311 59.5534C273.689 58.8425 273.378 57.8239 273.378 56.4978V49.3098H276.834V56.5183C276.834 57.4685 277.295 57.9436 278.218 57.9436C279.011 57.9436 279.575 57.6599 279.91 57.0925V49.3098H283.386V60.4045H280.146L280.043 59.2048Z" fill="#545452"/>
<path d="M290.609 57.9436C291.095 57.9436 291.471 57.8137 291.737 57.5539C292.004 57.2873 292.134 56.9182 292.127 56.4465H295.367C295.367 57.6633 294.929 58.6613 294.054 59.4406C293.186 60.2199 292.065 60.6096 290.691 60.6096C289.078 60.6096 287.806 60.1037 286.877 59.092C285.947 58.0803 285.482 56.6789 285.482 54.8879V54.7443C285.482 53.6232 285.687 52.6355 286.097 51.781C286.514 50.9196 287.113 50.26 287.892 49.802C288.671 49.3371 289.594 49.1047 290.66 49.1047C292.103 49.1047 293.248 49.5046 294.096 50.3044C294.943 51.1042 295.367 52.1877 295.367 53.5549H292.127C292.127 52.9807 291.987 52.5397 291.706 52.2321C291.426 51.9245 291.05 51.7707 290.578 51.7707C289.683 51.7707 289.16 52.3415 289.01 53.4831C288.962 53.8454 288.938 54.3444 288.938 54.9802C288.938 56.0944 289.071 56.8669 289.338 57.2976C289.604 57.7282 290.028 57.9436 290.609 57.9436Z" fill="#545452"/>
<path d="M301.483 46.5515V49.3098H303.308V51.7092H301.483V56.7849C301.483 57.2019 301.558 57.4924 301.708 57.6564C301.859 57.8205 302.156 57.9025 302.601 57.9025C302.942 57.9025 303.229 57.882 303.462 57.841V60.3122C302.84 60.5105 302.19 60.6096 301.514 60.6096C300.324 60.6096 299.446 60.3293 298.878 59.7688C298.311 59.2082 298.027 58.3571 298.027 57.2155V51.7092H296.612V49.3098H298.027V46.5515H301.483Z" fill="#545452"/>
<path d="M308.952 60.4045H305.486V49.3098H308.952V60.4045ZM305.281 46.4489C305.281 45.9567 305.459 45.5534 305.814 45.239C306.17 44.9245 306.631 44.7673 307.199 44.7673C307.766 44.7673 308.228 44.9245 308.583 45.239C308.939 45.5534 309.116 45.9567 309.116 46.4489C309.116 46.9411 308.939 47.3444 308.583 47.6589C308.228 47.9733 307.766 48.1306 307.199 48.1306C306.631 48.1306 306.17 47.9733 305.814 47.6589C305.459 47.3444 305.281 46.9411 305.281 46.4489Z" fill="#545452"/>
<path d="M311.284 54.7546C311.284 53.6472 311.5 52.6628 311.93 51.8015C312.361 50.9333 312.98 50.2668 313.786 49.802C314.593 49.3371 315.54 49.1047 316.627 49.1047C318.288 49.1047 319.597 49.6208 320.554 50.653C321.511 51.6784 321.989 53.0764 321.989 54.8469V54.9699C321.989 56.6994 321.507 58.0734 320.544 59.092C319.587 60.1037 318.288 60.6096 316.647 60.6096C315.068 60.6096 313.8 60.1379 312.843 59.1945C311.886 58.2443 311.37 56.9592 311.295 55.3391L311.284 54.7546ZM314.74 54.9699C314.74 55.9953 314.901 56.7473 315.222 57.2258C315.543 57.7043 316.018 57.9436 316.647 57.9436C317.878 57.9436 318.507 56.9968 318.534 55.1032V54.7546C318.534 52.7653 317.898 51.7707 316.627 51.7707C315.471 51.7707 314.846 52.6286 314.75 54.3444L314.74 54.9699Z" fill="#545452"/>
<path d="M327.316 49.3098L327.428 50.612C328.194 49.6071 329.25 49.1047 330.597 49.1047C331.752 49.1047 332.614 49.4499 333.181 50.1403C333.755 50.8308 334.053 51.8698 334.073 53.2575V60.4045H330.607V53.4011C330.607 52.8405 330.494 52.4304 330.269 52.1706C330.043 51.904 329.633 51.7707 329.038 51.7707C328.362 51.7707 327.859 52.0373 327.531 52.5705V60.4045H324.075V49.3098H327.316Z" fill="#545452"/>
</svg>
