<svg width="77" height="63" viewBox="0 0 77 63" fill="none" xmlns="http://www.w3.org/2000/svg">
<g opacity="0.8">
<path d="M1 61.32V61.82H1.5H19.43C19.5639 61.82 19.68 61.9361 19.68 62.07C19.68 62.2082 19.5695 62.32 19.43 62.32H0.75C0.616142 62.32 0.5 62.2039 0.5 62.07V56.75C0.5 56.6161 0.616142 56.5 0.75 56.5C0.883858 56.5 1 56.6161 1 56.75V61.32ZM75.43 62.32H51.43C51.2961 62.32 51.18 62.2039 51.18 62.07C51.18 61.9361 51.2961 61.82 51.43 61.82H75.43C75.5639 61.82 75.68 61.9361 75.68 62.07C75.68 62.2082 75.5695 62.32 75.43 62.32ZM47.43 62.32H23.43C23.2961 62.32 23.18 62.2039 23.18 62.07C23.18 61.9361 23.2961 61.82 23.43 61.82H47.43C47.5639 61.82 47.68 61.9361 47.68 62.07C47.68 62.2082 47.5695 62.32 47.43 62.32ZM0.75 53C0.616142 53 0.5 52.8839 0.5 52.75V28.75C0.5 28.6161 0.616142 28.5 0.75 28.5C0.883858 28.5 1 28.6161 1 28.75V52.75C1 52.8839 0.883858 53 0.75 53ZM0.75 25C0.616142 25 0.5 24.8839 0.5 24.75V0.75C0.5 0.616142 0.616142 0.5 0.75 0.5C0.883858 0.5 1 0.616142 1 0.75V24.75C1 24.8839 0.883858 25 0.75 25Z" stroke="#7973B3"/>
<path d="M20.98 42.32L20.98 42.3221C20.9888 44.4524 19.2457 46.19 17.11 46.19C14.9654 46.19 13.23 44.4531 13.23 42.32C13.23 40.1876 14.9746 38.45 17.11 38.45C19.2438 38.45 20.98 40.1862 20.98 42.32ZM17.11 38.95C15.245 38.95 13.73 40.4627 13.73 42.32C13.73 44.1773 15.245 45.69 17.11 45.69C18.9656 45.69 20.4791 44.177 20.48 42.3216C20.4909 40.462 18.9738 38.95 17.11 38.95Z" stroke="#7973B3"/>
<path d="M33.9501 33.24C31.8162 33.24 30.0801 31.5038 30.0801 29.37C30.0801 27.2254 31.817 25.49 33.9501 25.49C36.0825 25.49 37.8201 27.2346 37.8201 29.37C37.8201 31.5038 36.0839 33.24 33.9501 33.24ZM33.9501 25.99C32.0817 25.99 30.5801 27.5061 30.5801 29.37C30.5801 31.2261 32.0939 32.74 33.9501 32.74C35.8062 32.74 37.3201 31.2261 37.3201 29.37C37.3201 27.5061 35.8185 25.99 33.9501 25.99Z" stroke="#7973B3"/>
<path d="M58.03 33.51L58.03 33.5121C58.0389 35.6439 56.2943 37.39 54.16 37.39C52.0277 37.39 50.29 35.6454 50.29 33.51C50.29 31.3762 52.0262 29.64 54.16 29.64C56.2939 29.64 58.03 31.3762 58.03 33.51ZM54.16 30.13C52.3039 30.13 50.79 31.6439 50.79 33.5C50.79 35.365 52.3028 36.88 54.16 36.88C56.0168 36.88 57.5292 35.3659 57.53 33.5016C57.5409 31.642 56.0239 30.13 54.16 30.13Z" stroke="#7973B3"/>
<path d="M62.2001 18.48C60.0555 18.48 58.3201 16.7431 58.3201 14.61C58.3201 12.4669 60.0655 10.73 62.2001 10.73C64.3324 10.73 66.0701 12.4747 66.0701 14.61C66.0701 16.7439 64.3339 18.48 62.2001 18.48ZM62.2001 11.22C60.3339 11.22 58.8201 12.7339 58.8201 14.6C58.8201 16.4573 60.3351 17.97 62.2001 17.97C64.0562 17.97 65.5701 16.4562 65.5701 14.6C65.5701 12.735 64.0573 11.22 62.2001 11.22Z" stroke="#7973B3"/>
<path d="M19.832 39.9186L19.8349 39.9163L30.922 31.3885C30.9223 31.3883 30.9227 31.388 30.923 31.3877C31.0375 31.3019 31.192 31.327 31.2715 31.4319C31.3583 31.5465 31.3333 31.7017 31.2281 31.7815L31.2281 31.7814L31.2252 31.7836L20.1534 40.2974C20.0825 40.3465 20.0243 40.36 19.99 40.36C19.9093 40.36 19.8373 40.3272 19.7856 40.2641C19.7023 40.1499 19.7279 39.9973 19.832 39.9186ZM50.6063 33.03L50.6041 33.0291L50.5602 33.0201L37.4602 30.3401L37.4602 30.3401L37.4558 30.3393C37.3201 30.3128 37.2402 30.1827 37.2678 30.0598L37.2694 30.0528L37.2708 30.0458C37.2972 29.9101 37.4273 29.8301 37.5503 29.8578L37.5502 29.8579L37.5598 29.8599L50.6598 32.5399L50.6598 32.5399L50.6643 32.5407C50.8 32.5672 50.8799 32.6973 50.8522 32.8202L50.8506 32.8274L50.8492 32.8346C50.8265 32.9512 50.7293 33.03 50.61 33.03L50.6063 33.03ZM55.4931 30.4131L55.4931 30.413L55.4841 30.4092C55.358 30.3561 55.2985 30.2092 55.3506 30.0846C55.3507 30.0844 55.3508 30.0842 55.3508 30.084L60.5502 17.8455L60.5508 17.844C60.604 17.7178 60.7513 17.6583 60.876 17.7108C61.0021 17.7639 61.0616 17.9109 61.0094 18.0355C61.0093 18.0356 61.0093 18.0358 61.0092 18.036L55.8098 30.2745L55.808 30.2788C55.7694 30.3722 55.6784 30.43 55.58 30.43C55.5453 30.43 55.515 30.4228 55.4931 30.4131Z" stroke="#7973B3"/>
</g>
</svg>
