<svg width="50" height="65" viewBox="0 0 50 65" fill="none" xmlns="http://www.w3.org/2000/svg">
<g opacity="0.8">
<mask id="path-1-inside-1" fill="white">
<path d="M1.15936 64.5C1.06505 64.5 0.970748 64.4758 0.884301 64.4274C0.687829 64.3226 0.569946 64.113 0.569946 63.8952V57.5976C0.569946 57.267 0.837148 56.9929 1.15936 56.9929C1.48157 56.9929 1.74878 57.267 1.74878 57.5976V62.7422L11.313 56.0011C11.5802 55.8156 11.9496 55.8801 12.1303 56.1543C12.3111 56.4284 12.2482 56.8074 11.981 56.9929L1.48943 64.3871C1.39513 64.4597 1.27724 64.5 1.15936 64.5ZM48.1475 63.9194C48.0375 63.9194 47.9196 63.8872 47.8174 63.8146L32.1233 53.0901C31.8561 52.9047 31.7775 52.5257 31.9582 52.2515C32.139 51.9774 32.5084 51.8968 32.7756 52.0822L48.4697 62.8147C48.7369 63.0002 48.8155 63.3792 48.6347 63.6533C48.5247 63.8307 48.3361 63.9194 48.1475 63.9194ZM48.9805 62.3067C48.6583 62.3067 48.3911 62.0326 48.3911 61.702V42.3496C48.3911 42.019 48.6583 41.7448 48.9805 41.7448C49.3027 41.7448 49.5699 42.019 49.5699 42.3496V61.702C49.5699 62.0326 49.3106 62.3067 48.9805 62.3067ZM14.2365 55.2754C14.0479 55.2754 13.8671 55.1867 13.7493 55.0093C13.5685 54.7351 13.6314 54.3561 13.8986 54.1707L24.3587 46.7926C24.5552 46.6555 24.8145 46.6474 25.0189 46.7845L30.1507 50.2921C30.4179 50.4776 30.4965 50.8566 30.3157 51.1307C30.135 51.4049 29.7656 51.4855 29.4984 51.3L24.6967 48.0182L14.5744 55.1705C14.4723 55.235 14.3544 55.2754 14.2365 55.2754ZM1.15936 54.977C0.837148 54.977 0.569946 54.7028 0.569946 54.3722V35.0198C0.569946 34.6892 0.837148 34.4151 1.15936 34.4151C1.48157 34.4151 1.74878 34.6892 1.74878 35.0198V54.3722C1.74878 54.7028 1.48157 54.977 1.15936 54.977ZM48.9805 39.7289C48.6583 39.7289 48.3911 39.4548 48.3911 39.1242V19.7718C48.3911 19.4412 48.6583 19.167 48.9805 19.167C49.3027 19.167 49.5699 19.4412 49.5699 19.7718V39.1242C49.5699 39.4548 49.3106 39.7289 48.9805 39.7289ZM1.15936 32.3992C0.837148 32.3992 0.569946 32.125 0.569946 31.7944V12.442C0.569946 12.1114 0.837148 11.8373 1.15936 11.8373C1.48157 11.8373 1.74878 12.1114 1.74878 12.442V31.7944C1.74878 32.125 1.48157 32.3992 1.15936 32.3992ZM48.9805 17.1511C48.6583 17.1511 48.3911 16.877 48.3911 16.5464V1.70952H45.169C44.8468 1.70952 44.5796 1.43537 44.5796 1.10476C44.5796 0.774159 44.8468 0.5 45.169 0.5H48.9805C49.3027 0.5 49.5699 0.774159 49.5699 1.10476V16.5464C49.5699 16.877 49.3106 17.1511 48.9805 17.1511ZM1.15936 9.82141C0.837148 9.82141 0.569946 9.54725 0.569946 9.21664V1.10476C0.569946 0.774159 0.837148 0.5 1.15936 0.5H20.0206C20.3428 0.5 20.61 0.774159 20.61 1.10476C20.61 1.43537 20.3428 1.70952 20.0206 1.70952H1.74878V9.21664C1.74878 9.54725 1.48157 9.82141 1.15936 9.82141ZM42.0254 1.70952H23.1642C22.842 1.70952 22.5748 1.43537 22.5748 1.10476C22.5748 0.774159 22.842 0.5 23.1642 0.5H42.0254C42.3477 0.5 42.6149 0.774159 42.6149 1.10476C42.6149 1.43537 42.3477 1.70952 42.0254 1.70952Z"/>
</mask>
<path d="M0.884301 64.4274L2.8378 60.9369L2.80271 60.9173L2.76722 60.8983L0.884301 64.4274ZM1.74878 62.7422H-2.25122V70.4552L4.05319 66.0117L1.74878 62.7422ZM11.313 56.0011L9.03222 52.715L9.02038 52.7233L9.00859 52.7316L11.313 56.0011ZM11.981 56.9929L9.70023 53.7068L9.68843 53.715L9.67669 53.7233L11.981 56.9929ZM1.48943 64.3871L-0.814889 61.1175L-0.883491 61.1659L-0.950005 61.2171L1.48943 64.3871ZM47.8174 63.8146L50.1338 60.5536L50.1042 60.5325L50.0742 60.512L47.8174 63.8146ZM32.1233 53.0901L29.8425 56.3762L29.8545 56.3845L29.8665 56.3927L32.1233 53.0901ZM32.7756 52.0822L30.4948 55.3682L30.5062 55.3762L30.5176 55.384L32.7756 52.0822ZM48.4697 62.8147L50.7505 59.5287L50.7391 59.5208L50.7276 59.513L48.4697 62.8147ZM48.6347 63.6533L45.2952 61.4516L45.2647 61.4979L45.2355 61.545L48.6347 63.6533ZM13.7493 55.0093L10.4097 57.211L10.4137 57.2171L10.4178 57.2231L13.7493 55.0093ZM13.8986 54.1707L16.1794 57.4567L16.1918 57.4481L16.2042 57.4393L13.8986 54.1707ZM24.3587 46.7926L22.0699 43.5121L22.0615 43.518L22.0531 43.5239L24.3587 46.7926ZM25.0189 46.7845L27.276 43.4822L27.2617 43.4724L27.2473 43.4627L25.0189 46.7845ZM30.1507 50.2921L32.4315 47.0061L32.4197 46.9979L32.4078 46.9898L30.1507 50.2921ZM29.4984 51.3L31.7792 48.014L31.7674 48.0058L31.7555 47.9977L29.4984 51.3ZM24.6967 48.0182L26.9537 44.7158L24.6587 43.1472L22.3884 44.7514L24.6967 48.0182ZM14.5744 55.1705L16.71 58.5527L16.7979 58.4973L16.8827 58.4373L14.5744 55.1705ZM48.3911 1.70952H52.3911V-2.29047H48.3911V1.70952ZM1.74878 1.70952V-2.29047H-2.25122V1.70952H1.74878ZM1.15936 60.5C1.75519 60.5 2.33272 60.6542 2.8378 60.9369L-1.0692 67.918C-0.391221 68.2974 0.374919 68.5 1.15936 68.5V60.5ZM2.76722 60.8983C3.9432 61.5257 4.56995 62.7162 4.56995 63.8952H-3.43005C-3.43005 65.5097 -2.56754 67.1195 -0.998621 67.9565L2.76722 60.8983ZM4.56995 63.8952V57.5976H-3.43005V63.8952H4.56995ZM4.56995 57.5976C4.56995 59.3786 3.14259 60.9929 1.15936 60.9929V52.9929C-1.4683 52.9929 -3.43005 55.1555 -3.43005 57.5976H4.56995ZM1.15936 60.9929C-0.823872 60.9929 -2.25122 59.3786 -2.25122 57.5976H5.74878C5.74878 55.1555 3.78702 52.9929 1.15936 52.9929V60.9929ZM-2.25122 57.5976V62.7422H5.74878V57.5976H-2.25122ZM4.05319 66.0117L13.6174 59.2706L9.00859 52.7316L-0.555644 59.4727L4.05319 66.0117ZM13.5938 59.2871C12.0731 60.3426 9.88487 60.0154 8.79082 58.356L15.4698 53.9525C14.0143 51.7448 11.0874 51.2886 9.03222 52.715L13.5938 59.2871ZM8.79082 58.356C7.85077 56.9302 8.07367 54.8358 9.70023 53.7068L14.2618 60.2789C16.4228 58.779 16.7714 55.9267 15.4698 53.9525L8.79082 58.356ZM9.67669 53.7233L-0.814889 61.1175L3.79376 67.6567L14.2853 60.2625L9.67669 53.7233ZM-0.950005 61.2171C-0.352127 60.757 0.385827 60.5 1.15936 60.5V68.5C2.16866 68.5 3.14238 68.1624 3.92887 67.5572L-0.950005 61.2171ZM48.1475 59.9194C48.8001 59.9194 49.5062 60.1078 50.1338 60.5536L45.501 67.0756C46.3329 67.6666 47.2749 67.9194 48.1475 67.9194V59.9194ZM50.0742 60.512L34.3801 49.7876L29.8665 56.3927L45.5606 67.1172L50.0742 60.512ZM34.4041 49.8041C35.8787 50.8277 36.3407 52.8713 35.2977 54.4533L28.6187 50.0498C27.2142 52.1801 27.8334 54.9817 29.8425 56.3762L34.4041 49.8041ZM35.2977 54.4533C34.3141 55.9453 32.179 56.5372 30.4948 55.3682L35.0563 48.7962C32.8377 47.2563 29.9639 48.0095 28.6187 50.0498L35.2977 54.4533ZM30.5176 55.384L46.2118 66.1165L50.7276 59.513L35.0335 48.7804L30.5176 55.384ZM46.1889 66.1008C44.7142 65.0772 44.2523 63.0335 45.2952 61.4516L51.9743 65.8551C53.3787 63.7248 52.7596 60.9232 50.7505 59.5287L46.1889 66.1008ZM45.2355 61.545C45.9317 60.4224 47.1043 59.9194 48.1475 59.9194V67.9194C49.5679 67.9194 51.1177 67.2391 52.034 65.7616L45.2355 61.545ZM48.9805 58.3067C50.9638 58.3067 52.3911 59.921 52.3911 61.702H44.3911C44.3911 64.1442 46.3529 66.3067 48.9805 66.3067V58.3067ZM52.3911 61.702V42.3496H44.3911V61.702H52.3911ZM52.3911 42.3496C52.3911 44.1306 50.9638 45.7448 48.9805 45.7448V37.7448C46.3529 37.7448 44.3911 39.9074 44.3911 42.3496H52.3911ZM48.9805 45.7448C46.9973 45.7448 45.5699 44.1306 45.5699 42.3496H53.5699C53.5699 39.9074 51.6082 37.7448 48.9805 37.7448V45.7448ZM45.5699 42.3496V61.702H53.5699V42.3496H45.5699ZM45.5699 61.702C45.5699 59.9562 46.9709 58.3067 48.9805 58.3067V66.3067C51.6503 66.3067 53.5699 64.1089 53.5699 61.702H45.5699ZM14.2365 51.2754C15.3637 51.2754 16.4443 51.8376 17.0808 52.7954L10.4178 57.2231C11.29 58.5357 12.7321 59.2754 14.2365 59.2754V51.2754ZM17.0888 52.8075C18.0288 54.2333 17.8059 56.3277 16.1794 57.4567L11.6178 50.8846C9.45682 52.3845 9.10819 55.2369 10.4097 57.211L17.0888 52.8075ZM16.2042 57.4393L26.6643 50.0612L22.0531 43.5239L11.593 50.902L16.2042 57.4393ZM26.6475 50.073C25.5356 50.8488 24.001 50.9184 22.7904 50.1062L27.2473 43.4627C25.6281 42.3764 23.5748 42.4622 22.0699 43.5121L26.6475 50.073ZM22.7617 50.0868L27.8936 53.5944L32.4078 46.9898L27.276 43.4822L22.7617 50.0868ZM27.8699 53.5781C26.3952 52.5546 25.9333 50.5109 26.9762 48.929L33.6552 53.3325C35.0597 51.2022 34.4406 48.4006 32.4315 47.0061L27.8699 53.5781ZM26.9762 48.929C27.9599 47.437 30.095 46.845 31.7792 48.014L27.2176 54.5861C29.4362 56.126 32.3101 55.3728 33.6552 53.3325L26.9762 48.929ZM31.7555 47.9977L26.9537 44.7158L22.4396 51.3206L27.2414 54.6024L31.7555 47.9977ZM22.3884 44.7514L12.2661 51.9038L16.8827 58.4373L27.0049 51.285L22.3884 44.7514ZM12.4389 51.7883C12.8449 51.5319 13.4572 51.2754 14.2365 51.2754V59.2754C15.2515 59.2754 16.0996 58.9382 16.71 58.5527L12.4389 51.7883ZM1.15936 50.977C3.14259 50.977 4.56995 52.5913 4.56995 54.3722H-3.43005C-3.43005 56.8144 -1.4683 58.977 1.15936 58.977V50.977ZM4.56995 54.3722V35.0198H-3.43005V54.3722H4.56995ZM4.56995 35.0198C4.56995 36.8008 3.14259 38.4151 1.15936 38.4151V30.4151C-1.4683 30.4151 -3.43005 32.5777 -3.43005 35.0198H4.56995ZM1.15936 38.4151C-0.823872 38.4151 -2.25122 36.8008 -2.25122 35.0198H5.74878C5.74878 32.5777 3.78702 30.4151 1.15936 30.4151V38.4151ZM-2.25122 35.0198V54.3722H5.74878V35.0198H-2.25122ZM-2.25122 54.3722C-2.25122 52.5913 -0.823872 50.977 1.15936 50.977V58.977C3.78702 58.977 5.74878 56.8144 5.74878 54.3722H-2.25122ZM48.9805 35.7289C50.9638 35.7289 52.3911 37.3432 52.3911 39.1242H44.3911C44.3911 41.5664 46.3529 43.7289 48.9805 43.7289V35.7289ZM52.3911 39.1242V19.7718H44.3911V39.1242H52.3911ZM52.3911 19.7718C52.3911 21.5527 50.9638 23.167 48.9805 23.167V15.167C46.3529 15.167 44.3911 17.3296 44.3911 19.7718H52.3911ZM48.9805 23.167C46.9973 23.167 45.5699 21.5527 45.5699 19.7718H53.5699C53.5699 17.3296 51.6082 15.167 48.9805 15.167V23.167ZM45.5699 19.7718V39.1242H53.5699V19.7718H45.5699ZM45.5699 39.1242C45.5699 37.3784 46.9709 35.7289 48.9805 35.7289V43.7289C51.6503 43.7289 53.5699 41.5311 53.5699 39.1242H45.5699ZM1.15936 28.3992C3.14259 28.3992 4.56995 30.0135 4.56995 31.7944H-3.43005C-3.43005 34.2366 -1.4683 36.3992 1.15936 36.3992V28.3992ZM4.56995 31.7944V12.442H-3.43005V31.7944H4.56995ZM4.56995 12.442C4.56995 14.223 3.14259 15.8373 1.15936 15.8373V7.83728C-1.4683 7.83728 -3.43005 9.99985 -3.43005 12.442H4.56995ZM1.15936 15.8373C-0.823872 15.8373 -2.25122 14.223 -2.25122 12.442H5.74878C5.74878 9.99985 3.78702 7.83728 1.15936 7.83728V15.8373ZM-2.25122 12.442V31.7944H5.74878V12.442H-2.25122ZM-2.25122 31.7944C-2.25122 30.0135 -0.823872 28.3992 1.15936 28.3992V36.3992C3.78702 36.3992 5.74878 34.2366 5.74878 31.7944H-2.25122ZM48.9805 13.1511C50.9638 13.1511 52.3911 14.7654 52.3911 16.5464H44.3911C44.3911 18.9886 46.3529 21.1511 48.9805 21.1511V13.1511ZM52.3911 16.5464V1.70952H44.3911V16.5464H52.3911ZM48.3911 -2.29047H45.169V5.70953H48.3911V-2.29047ZM45.169 -2.29047C47.1522 -2.29047 48.5796 -0.67622 48.5796 1.10476H40.5796C40.5796 3.54695 42.5413 5.70953 45.169 5.70953V-2.29047ZM48.5796 1.10476C48.5796 2.88575 47.1522 4.5 45.169 4.5V-3.5C42.5413 -3.5 40.5796 -1.33743 40.5796 1.10476H48.5796ZM45.169 4.5H48.9805V-3.5H45.169V4.5ZM48.9805 4.5C46.9973 4.5 45.5699 2.88575 45.5699 1.10476H53.5699C53.5699 -1.33743 51.6082 -3.5 48.9805 -3.5V4.5ZM45.5699 1.10476V16.5464H53.5699V1.10476H45.5699ZM45.5699 16.5464C45.5699 14.8006 46.9709 13.1511 48.9805 13.1511V21.1511C51.6503 21.1511 53.5699 18.9533 53.5699 16.5464H45.5699ZM1.15936 5.82141C3.14259 5.82141 4.56995 7.43566 4.56995 9.21664H-3.43005C-3.43005 11.6588 -1.4683 13.8214 1.15936 13.8214V5.82141ZM4.56995 9.21664V1.10476H-3.43005V9.21664H4.56995ZM4.56995 1.10476C4.56995 2.88575 3.14259 4.5 1.15936 4.5V-3.5C-1.4683 -3.5 -3.43005 -1.33743 -3.43005 1.10476H4.56995ZM1.15936 4.5H20.0206V-3.5H1.15936V4.5ZM20.0206 4.5C18.0374 4.5 16.61 2.88575 16.61 1.10476H24.61C24.61 -1.33743 22.6483 -3.5 20.0206 -3.5V4.5ZM16.61 1.10476C16.61 -0.67622 18.0374 -2.29047 20.0206 -2.29047V5.70953C22.6483 5.70953 24.61 3.54695 24.61 1.10476H16.61ZM20.0206 -2.29047H1.74878V5.70953H20.0206V-2.29047ZM-2.25122 1.70952V9.21664H5.74878V1.70952H-2.25122ZM-2.25122 9.21664C-2.25122 7.43566 -0.823872 5.82141 1.15936 5.82141V13.8214C3.78702 13.8214 5.74878 11.6588 5.74878 9.21664H-2.25122ZM42.0254 -2.29047H23.1642V5.70953H42.0254V-2.29047ZM23.1642 -2.29047C25.1474 -2.29047 26.5748 -0.67622 26.5748 1.10476H18.5748C18.5748 3.54695 20.5365 5.70953 23.1642 5.70953V-2.29047ZM26.5748 1.10476C26.5748 2.88575 25.1474 4.5 23.1642 4.5V-3.5C20.5365 -3.5 18.5748 -1.33743 18.5748 1.10476H26.5748ZM23.1642 4.5H42.0254V-3.5H23.1642V4.5ZM42.0254 4.5C40.0422 4.5 38.6149 2.88575 38.6149 1.10476H46.6149C46.6149 -1.33743 44.6531 -3.5 42.0254 -3.5V4.5ZM38.6149 1.10476C38.6149 -0.67622 40.0422 -2.29047 42.0254 -2.29047V5.70953C44.6531 5.70953 46.6149 3.54695 46.6149 1.10476H38.6149Z" fill="#7973B3" mask="url(#path-1-inside-1)"/>
<mask id="path-3-inside-2" fill="white">
<path d="M18.4567 34.0764C18.3388 34.0764 18.2131 34.0361 18.1109 33.9635C17.9066 33.8103 17.8202 33.5362 17.8988 33.2862L20.3114 25.7226L16.1384 22.6343C15.8712 22.4408 15.8162 22.0618 16.0048 21.7876C16.1934 21.5215 16.5627 21.457 16.8299 21.6506L21.3488 24.9969C21.5531 25.1501 21.6474 25.4243 21.561 25.6742L19.5805 31.8751L22.229 29.8995C22.4883 29.706 22.8577 29.7624 23.0542 30.0366C23.2428 30.3027 23.1878 30.6817 22.9284 30.8833L18.8104 33.9635C18.7004 34.0361 18.5825 34.0764 18.4567 34.0764ZM31.6832 34.0764C31.5575 34.0764 31.4396 34.0361 31.3374 33.9635L24.7753 29.0448C24.5159 28.8513 24.453 28.4723 24.6495 28.1981C24.8381 27.924 25.2075 27.8675 25.4747 28.061L30.5672 31.867L28.5947 25.6581C28.5161 25.4081 28.6025 25.134 28.8069 24.9808L30.8737 23.4487C31.1331 23.2552 31.5024 23.3116 31.6989 23.5858C31.8875 23.86 31.8325 24.2309 31.5653 24.4325L29.8442 25.7065L32.249 33.2701C32.3276 33.52 32.2412 33.7942 32.0368 33.9474C31.9268 34.0361 31.8089 34.0764 31.6832 34.0764ZM33.7579 22.6666C33.5772 22.6666 33.3964 22.5779 33.2785 22.4166C33.0899 22.1424 33.1449 21.7715 33.4121 21.5699L33.9465 21.1748L27.5809 21.1829C27.3215 21.1829 27.1015 21.0135 27.0229 20.7636L25.066 14.5547L23.1092 20.7636C23.0306 21.0135 22.8027 21.1829 22.5512 21.1829L14.8967 21.1748C14.5745 21.1748 14.3073 20.9007 14.3073 20.57C14.3073 20.2394 14.5745 19.9653 14.8967 19.9653L22.119 19.9733L24.5002 12.4017C24.5788 12.1518 24.8067 11.9824 25.0582 11.9824C25.3175 11.9824 25.5376 12.1518 25.6162 12.4017L27.9974 19.9733L35.7541 19.9653C36.0134 19.9653 36.2335 20.1346 36.3121 20.3846C36.3907 20.6346 36.3042 20.9087 36.0999 21.0619L34.088 22.5537C34.0016 22.6262 33.8837 22.6666 33.7579 22.6666Z"/>
</mask>
<path d="M18.1109 33.9635L15.7114 37.1638L15.7525 37.1947L15.7945 37.2245L18.1109 33.9635ZM17.8988 33.2862L14.0879 32.0706L14.0854 32.0785L14.0829 32.0865L17.8988 33.2862ZM20.3114 25.7226L24.1222 26.9382L24.9923 24.2105L22.6909 22.5074L20.3114 25.7226ZM16.1384 22.6343L18.5179 19.419L18.5013 19.4068L18.4847 19.3947L16.1384 22.6343ZM16.0048 21.7876L12.7414 19.4745L12.7252 19.4974L12.7093 19.5205L16.0048 21.7876ZM16.8299 21.6506L19.2104 18.436L19.1934 18.4234L19.1763 18.411L16.8299 21.6506ZM21.3488 24.9969L23.7484 21.7966L23.7388 21.7895L23.7293 21.7824L21.3488 24.9969ZM21.561 25.6742L17.7807 24.3669L17.7651 24.4119L17.7506 24.4573L21.561 25.6742ZM19.5805 31.8751L15.7702 30.6581L11.976 42.5378L21.9722 35.0813L19.5805 31.8751ZM22.229 29.8995L24.6206 33.1058L24.6212 33.1053L22.229 29.8995ZM23.0542 30.0366L26.3175 27.7235L26.3115 27.715L26.3055 27.7066L23.0542 30.0366ZM22.9284 30.8833L25.3243 34.0864L25.354 34.0641L25.3833 34.0414L22.9284 30.8833ZM18.8104 33.9635L21.0128 37.3026L21.1115 37.2375L21.2063 37.1666L18.8104 33.9635ZM31.3374 33.9635L28.9383 37.1642L28.9793 37.1949L29.021 37.2245L31.3374 33.9635ZM24.7753 29.0448L27.1744 25.8441L27.1675 25.839L24.7753 29.0448ZM24.6495 28.1981L27.9008 30.5281L27.9232 30.4969L27.945 30.4653L24.6495 28.1981ZM25.4747 28.061L27.8693 24.857L27.8453 24.839L27.821 24.8215L25.4747 28.061ZM30.5672 31.867L28.1726 35.0711L38.1516 42.5289L34.3795 30.6559L30.5672 31.867ZM28.5947 25.6581L24.7788 26.8578L24.7824 26.8693L28.5947 25.6581ZM28.8069 24.9808L26.4249 21.7673L26.4161 21.7739L26.4073 21.7805L28.8069 24.9808ZM30.8737 23.4487L33.2557 26.6622L33.2659 26.6545L30.8737 23.4487ZM31.6989 23.5858L34.9944 21.3186L34.9726 21.287L34.9502 21.2558L31.6989 23.5858ZM31.5653 24.4325L33.9452 27.6475L33.9598 27.6366L33.9744 27.6256L31.5653 24.4325ZM29.8442 25.7065L27.4643 22.4915L25.1657 24.1931L26.0323 26.9185L29.8442 25.7065ZM32.249 33.2701L36.0649 32.0704L36.061 32.0581L32.249 33.2701ZM32.0368 33.9474L29.6373 30.7471L29.5811 30.7892L29.5264 30.8333L32.0368 33.9474ZM33.2785 22.4166L29.9831 24.6838L30.0155 24.7309L30.0493 24.7771L33.2785 22.4166ZM33.4121 21.5699L31.0341 18.3536L31.0185 18.3651L31.0031 18.3767L33.4121 21.5699ZM33.9465 21.1748L36.3246 24.3912L46.1058 17.1594L33.9415 17.1748L33.9465 21.1748ZM27.5809 21.1829V25.1829L27.5859 25.1829L27.5809 21.1829ZM27.0229 20.7636L30.8387 19.5639L30.8379 19.5612L27.0229 20.7636ZM25.066 14.5547L28.881 13.3523L25.066 1.24769L21.251 13.3523L25.066 14.5547ZM23.1092 20.7636L19.2942 19.5612L19.2933 19.5639L23.1092 20.7636ZM22.5512 21.1829L22.547 25.1829H22.5512V21.1829ZM14.8967 21.1748L14.9009 17.1748H14.8967V21.1748ZM14.8967 19.9653L14.9011 15.9653H14.8967V19.9653ZM22.119 19.9733L22.1145 23.9733L25.0531 23.9766L25.9347 21.1734L22.119 19.9733ZM24.5002 12.4017L28.3159 13.6018L28.3161 13.6014L24.5002 12.4017ZM25.6162 12.4017L21.8003 13.6014L21.8004 13.6018L25.6162 12.4017ZM27.9974 19.9733L24.1816 21.1734L25.0632 23.9764L28.0015 23.9733L27.9974 19.9733ZM35.7541 19.9653V15.9653L35.7499 15.9653L35.7541 19.9653ZM36.0999 21.0619L38.4823 24.275L38.4909 24.2687L38.4995 24.2622L36.0999 21.0619ZM34.088 22.5537L31.7056 19.3406L31.6086 19.4125L31.5162 19.4901L34.088 22.5537ZM18.4567 30.0764C19.1986 30.0764 19.8773 30.3118 20.4274 30.7025L15.7945 37.2245C16.5489 37.7604 17.4791 38.0764 18.4567 38.0764V30.0764ZM20.5105 30.7632C21.7016 31.6563 22.1306 33.1629 21.7146 34.4859L14.0829 32.0865C13.5098 33.9094 14.1116 35.9644 15.7114 37.1638L20.5105 30.7632ZM21.7096 34.5018L24.1222 26.9382L16.5006 24.507L14.0879 32.0706L21.7096 34.5018ZM22.6909 22.5074L18.5179 19.419L13.7589 25.8496L17.9319 28.9379L22.6909 22.5074ZM18.4847 19.3947C20.0837 20.5528 20.2656 22.6515 19.3002 24.0548L12.7093 19.5205C11.3667 21.4721 11.6587 24.3287 13.7921 25.8739L18.4847 19.3947ZM19.2681 24.1008C18.1854 25.6283 16.04 26.0174 14.4836 24.8901L19.1763 18.411C17.0855 16.8967 14.2014 17.4148 12.7414 19.4745L19.2681 24.1008ZM14.4495 24.8651L18.9683 28.2115L23.7293 21.7824L19.2104 18.436L14.4495 24.8651ZM18.9492 28.1972C17.8394 27.3651 17.2682 25.8488 17.7807 24.3669L25.3413 26.9816C26.0267 24.9998 25.2668 22.9351 23.7484 21.7966L18.9492 28.1972ZM17.7506 24.4573L15.7702 30.6581L23.3909 33.092L25.3714 26.8912L17.7506 24.4573ZM21.9722 35.0813L24.6206 33.1058L19.8373 26.6933L17.1889 28.6688L21.9722 35.0813ZM24.6212 33.1053C23.0454 34.2812 20.8812 33.8713 19.8028 32.3666L26.3055 27.7066C24.8342 25.6536 21.9313 25.1307 19.8368 26.6937L24.6212 33.1053ZM19.7908 32.3497C18.7429 30.8713 19.0412 28.8385 20.4736 27.7251L25.3833 34.0414C27.3343 32.5248 27.7427 29.7341 26.3175 27.7235L19.7908 32.3497ZM20.5325 27.6802L16.4145 30.7604L21.2063 37.1666L25.3243 34.0864L20.5325 27.6802ZM16.6079 30.6245C17.0425 30.3378 17.6783 30.0764 18.4567 30.0764V38.0764C19.4866 38.0764 20.3582 37.7344 21.0128 37.3026L16.6079 30.6245ZM31.6832 30.0764C32.4444 30.0764 33.1271 30.3283 33.6538 30.7025L29.021 37.2245C29.7521 37.7439 30.6706 38.0764 31.6832 38.0764V30.0764ZM33.7365 30.7628L27.1744 25.8441L22.3762 32.2455L28.9383 37.1642L33.7365 30.7628ZM27.1675 25.839C28.6622 26.9543 28.9681 29.0388 27.9008 30.5281L21.3982 25.8681C19.9379 27.9058 20.3696 30.7482 22.383 32.2506L27.1675 25.839ZM27.945 30.4653C26.8166 32.1055 24.6185 32.3798 23.1284 31.3006L27.821 24.8215C25.7965 23.3552 22.8597 23.7425 21.3541 25.931L27.945 30.4653ZM23.0801 31.2651L28.1726 35.0711L32.9618 28.663L27.8693 24.857L23.0801 31.2651ZM34.3795 30.6559L32.4069 24.447L24.7824 26.8693L26.755 33.0782L34.3795 30.6559ZM32.4105 24.4584C32.8265 25.7814 32.3975 27.2881 31.2064 28.1811L26.4073 21.7805C24.8076 22.9799 24.2057 25.0349 24.7788 26.8578L32.4105 24.4584ZM31.1888 28.1942L33.2557 26.6622L28.4918 20.2353L26.4249 21.7673L31.1888 28.1942ZM33.2659 26.6545C31.6901 27.8304 29.5259 27.4205 28.4476 25.9158L34.9502 21.2558C33.479 19.2028 30.576 18.68 28.4815 20.2429L33.2659 26.6545ZM28.4035 25.853C27.4089 24.4073 27.6717 22.3593 29.1562 21.2393L33.9744 27.6256C35.9933 26.1025 36.3661 23.3126 34.9944 21.3186L28.4035 25.853ZM29.1854 21.2175L27.4643 22.4915L32.2241 28.9215L33.9452 27.6475L29.1854 21.2175ZM26.0323 26.9185L28.4371 34.4821L36.061 32.0581L33.6562 24.4945L26.0323 26.9185ZM28.4332 34.4697C28.0172 33.1467 28.4462 31.6401 29.6373 30.7471L34.4364 37.1477C36.0361 35.9482 36.638 33.8933 36.0649 32.0704L28.4332 34.4697ZM29.5264 30.8333C30.103 30.3685 30.8645 30.0764 31.6832 30.0764V38.0764C32.7534 38.0764 33.7507 37.7037 34.5473 37.0615L29.5264 30.8333ZM33.7579 18.6666C34.8786 18.6666 35.8874 19.2074 36.5078 20.0561L30.0493 24.7771C30.9054 25.9483 32.2757 26.6666 33.7579 26.6666V18.6666ZM36.574 20.1494C37.5685 21.5951 37.3058 23.6431 35.8212 24.7631L31.0031 18.3767C28.9841 19.8999 28.6113 22.6898 29.9831 24.6838L36.574 20.1494ZM35.7902 24.7863L36.3246 24.3912L31.5685 17.9584L31.0341 18.3536L35.7902 24.7863ZM33.9415 17.1748L27.5758 17.1829L27.5859 25.1829L33.9516 25.1748L33.9415 17.1748ZM27.5809 17.1829C29.1642 17.1829 30.4226 18.2404 30.8387 19.5639L23.207 21.9633C23.7803 23.7867 25.4789 25.1829 27.5809 25.1829V17.1829ZM30.8379 19.5612L28.881 13.3523L21.251 15.7571L23.2079 21.9659L30.8379 19.5612ZM21.251 13.3523L19.2942 19.5612L26.9242 21.9659L28.881 15.7571L21.251 13.3523ZM19.2933 19.5639C19.7192 18.2094 20.9915 17.1829 22.5512 17.1829V25.1829C24.6139 25.1829 26.342 23.8177 26.925 21.9633L19.2933 19.5639ZM22.5554 17.1829L14.9009 17.1748L14.8925 25.1748L22.547 25.1829L22.5554 17.1829ZM14.8967 17.1748C16.8799 17.1748 18.3073 18.7891 18.3073 20.57H10.3073C10.3073 23.0122 12.269 25.1748 14.8967 25.1748V17.1748ZM18.3073 20.57C18.3073 22.351 16.8799 23.9653 14.8967 23.9653V15.9653C12.269 15.9653 10.3073 18.1279 10.3073 20.57H18.3073ZM14.8922 23.9653L22.1145 23.9733L22.1234 15.9734L14.9011 15.9653L14.8922 23.9653ZM25.9347 21.1734L28.3159 13.6018L20.6844 11.2017L18.3032 18.7733L25.9347 21.1734ZM28.3161 13.6014C27.8902 14.9559 26.6179 15.9824 25.0582 15.9824V7.98242C22.9955 7.98242 21.2674 9.3476 20.6843 11.202L28.3161 13.6014ZM25.0582 15.9824C23.4749 15.9824 22.2164 14.9249 21.8003 13.6014L29.432 11.202C28.8587 9.37857 27.1601 7.98242 25.0582 7.98242V15.9824ZM21.8004 13.6018L24.1816 21.1734L31.8131 18.7733L29.4319 11.2017L21.8004 13.6018ZM28.0015 23.9733L35.7582 23.9653L35.7499 15.9653L27.9932 15.9734L28.0015 23.9733ZM35.7541 23.9653C34.1708 23.9653 32.9123 22.9078 32.4962 21.5843L40.1279 19.1849C39.5546 17.3614 37.8561 15.9653 35.7541 15.9653V23.9653ZM32.4962 21.5843C32.0803 20.2613 32.5092 18.7547 33.7003 17.8616L38.4995 24.2622C40.0992 23.0628 40.701 21.0078 40.1279 19.1849L32.4962 21.5843ZM33.7174 17.8488L31.7056 19.3406L36.4704 25.7668L38.4823 24.275L33.7174 17.8488ZM31.5162 19.4901C32.2333 18.8881 33.0574 18.6666 33.7579 18.6666V26.6666C34.7099 26.6666 35.7698 26.3644 36.6599 25.6173L31.5162 19.4901Z" fill="#7973B3" mask="url(#path-3-inside-2)"/>
</g>
</svg>
