<svg width="58" height="81" viewBox="0 0 58 81" fill="none" xmlns="http://www.w3.org/2000/svg">
<g opacity="0.8">
<mask id="path-1-inside-1" fill="white">
<path d="M40.565 80.185H25.495C25.085 80.185 24.745 79.845 24.745 79.435C24.745 79.025 25.085 78.685 25.495 78.685H40.575C41.505 78.685 42.265 77.925 42.265 76.995V71.895C42.265 71.485 42.605 71.145 43.015 71.145C43.425 71.145 43.765 71.485 43.765 71.895V76.995C43.755 78.755 42.325 80.185 40.565 80.185ZM21.495 80.185H3.41498C1.65498 80.185 0.224976 78.755 0.224976 76.995V74.905C0.224976 74.495 0.564976 74.155 0.974976 74.155C1.38498 74.155 1.72498 74.495 1.72498 74.905V76.995C1.72498 77.925 2.48498 78.685 3.41498 78.685H21.495C21.905 78.685 22.245 79.025 22.245 79.435C22.245 79.845 21.905 80.185 21.495 80.185ZM0.974976 71.655C0.564976 71.655 0.224976 71.315 0.224976 70.905V46.905C0.224976 46.495 0.564976 46.155 0.974976 46.155C1.38498 46.155 1.72498 46.495 1.72498 46.905V70.905C1.72498 71.315 1.38498 71.655 0.974976 71.655ZM43.005 68.645C42.595 68.645 42.255 68.305 42.255 67.895V56.305H39.395C38.985 56.305 38.645 55.965 38.645 55.555V52.035C37.485 51.665 36.395 51.115 35.385 50.405C35.045 50.165 34.965 49.695 35.205 49.355C35.445 49.015 35.905 48.935 36.245 49.175C37.265 49.895 38.395 50.425 39.585 50.745C39.915 50.835 40.135 51.125 40.135 51.465V54.795H42.995C43.405 54.795 43.745 55.135 43.745 55.545V67.885C43.755 68.315 43.425 68.645 43.005 68.645ZM30.845 51.375C30.775 51.375 30.715 51.365 30.655 51.345C30.465 51.295 30.295 51.165 30.195 50.995L27.205 45.805C26.995 45.445 27.125 44.985 27.485 44.785L30.525 43.035C30.345 42.205 30.255 41.345 30.255 40.495C30.255 39.645 30.345 38.795 30.525 37.965L27.485 36.205C27.125 35.995 27.005 35.535 27.215 35.185L28.225 33.425C28.435 33.065 28.895 32.945 29.245 33.155C29.605 33.365 29.725 33.825 29.515 34.175L28.875 35.275L31.755 36.945C32.045 37.115 32.195 37.455 32.105 37.785C31.875 38.665 31.755 39.575 31.755 40.495C31.755 41.405 31.875 42.325 32.105 43.205C32.195 43.535 32.045 43.875 31.755 44.045L28.875 45.705L31.115 49.595L32.165 48.985C32.525 48.775 32.985 48.895 33.195 49.255C33.405 49.615 33.275 50.075 32.925 50.285L31.225 51.275C31.105 51.335 30.975 51.375 30.845 51.375ZM0.974976 43.655C0.564976 43.655 0.224976 43.315 0.224976 42.905V18.905C0.224976 18.495 0.564976 18.155 0.974976 18.155C1.38498 18.155 1.72498 18.495 1.72498 18.905V42.905C1.72498 43.315 1.38498 43.655 0.974976 43.655ZM34.375 33.165C34.245 33.165 34.115 33.135 33.995 33.065L30.505 31.045C30.145 30.835 30.025 30.375 30.235 30.025C30.445 29.665 30.905 29.545 31.255 29.755L34.265 31.495C35.525 30.355 37.025 29.495 38.645 28.965V25.445C38.645 25.035 38.985 24.695 39.395 24.695H42.255V19.015C42.255 18.605 42.595 18.265 43.005 18.265C43.415 18.265 43.755 18.605 43.755 19.015V25.435C43.755 25.845 43.415 26.185 43.005 26.185H40.145V29.515C40.145 29.855 39.915 30.145 39.595 30.235C37.825 30.725 36.195 31.665 34.895 32.945C34.765 33.095 34.565 33.165 34.375 33.165ZM43.005 15.765C42.595 15.765 42.255 15.425 42.255 15.015V3.995C42.255 3.065 41.495 2.315 40.565 2.315H31.405C30.995 2.315 30.655 1.975 30.655 1.565C30.655 1.155 30.995 0.815002 31.415 0.815002H40.575C42.335 0.815002 43.765 2.245 43.765 3.995V15.015C43.755 15.435 43.425 15.765 43.005 15.765ZM0.974976 15.655C0.564976 15.655 0.224976 15.315 0.224976 14.905V3.995C0.224976 2.245 1.65498 0.815002 3.41498 0.815002H27.415C27.825 0.815002 28.165 1.155 28.165 1.565C28.165 1.975 27.825 2.315 27.415 2.315H3.41498C2.48498 2.315 1.72498 3.065 1.72498 3.995V14.905C1.72498 15.315 1.38498 15.655 0.974976 15.655Z"/>
</mask>
<path d="M40.565 80.185H25.495C25.085 80.185 24.745 79.845 24.745 79.435C24.745 79.025 25.085 78.685 25.495 78.685H40.575C41.505 78.685 42.265 77.925 42.265 76.995V71.895C42.265 71.485 42.605 71.145 43.015 71.145C43.425 71.145 43.765 71.485 43.765 71.895V76.995C43.755 78.755 42.325 80.185 40.565 80.185ZM21.495 80.185H3.41498C1.65498 80.185 0.224976 78.755 0.224976 76.995V74.905C0.224976 74.495 0.564976 74.155 0.974976 74.155C1.38498 74.155 1.72498 74.495 1.72498 74.905V76.995C1.72498 77.925 2.48498 78.685 3.41498 78.685H21.495C21.905 78.685 22.245 79.025 22.245 79.435C22.245 79.845 21.905 80.185 21.495 80.185ZM0.974976 71.655C0.564976 71.655 0.224976 71.315 0.224976 70.905V46.905C0.224976 46.495 0.564976 46.155 0.974976 46.155C1.38498 46.155 1.72498 46.495 1.72498 46.905V70.905C1.72498 71.315 1.38498 71.655 0.974976 71.655ZM43.005 68.645C42.595 68.645 42.255 68.305 42.255 67.895V56.305H39.395C38.985 56.305 38.645 55.965 38.645 55.555V52.035C37.485 51.665 36.395 51.115 35.385 50.405C35.045 50.165 34.965 49.695 35.205 49.355C35.445 49.015 35.905 48.935 36.245 49.175C37.265 49.895 38.395 50.425 39.585 50.745C39.915 50.835 40.135 51.125 40.135 51.465V54.795H42.995C43.405 54.795 43.745 55.135 43.745 55.545V67.885C43.755 68.315 43.425 68.645 43.005 68.645ZM30.845 51.375C30.775 51.375 30.715 51.365 30.655 51.345C30.465 51.295 30.295 51.165 30.195 50.995L27.205 45.805C26.995 45.445 27.125 44.985 27.485 44.785L30.525 43.035C30.345 42.205 30.255 41.345 30.255 40.495C30.255 39.645 30.345 38.795 30.525 37.965L27.485 36.205C27.125 35.995 27.005 35.535 27.215 35.185L28.225 33.425C28.435 33.065 28.895 32.945 29.245 33.155C29.605 33.365 29.725 33.825 29.515 34.175L28.875 35.275L31.755 36.945C32.045 37.115 32.195 37.455 32.105 37.785C31.875 38.665 31.755 39.575 31.755 40.495C31.755 41.405 31.875 42.325 32.105 43.205C32.195 43.535 32.045 43.875 31.755 44.045L28.875 45.705L31.115 49.595L32.165 48.985C32.525 48.775 32.985 48.895 33.195 49.255C33.405 49.615 33.275 50.075 32.925 50.285L31.225 51.275C31.105 51.335 30.975 51.375 30.845 51.375ZM0.974976 43.655C0.564976 43.655 0.224976 43.315 0.224976 42.905V18.905C0.224976 18.495 0.564976 18.155 0.974976 18.155C1.38498 18.155 1.72498 18.495 1.72498 18.905V42.905C1.72498 43.315 1.38498 43.655 0.974976 43.655ZM34.375 33.165C34.245 33.165 34.115 33.135 33.995 33.065L30.505 31.045C30.145 30.835 30.025 30.375 30.235 30.025C30.445 29.665 30.905 29.545 31.255 29.755L34.265 31.495C35.525 30.355 37.025 29.495 38.645 28.965V25.445C38.645 25.035 38.985 24.695 39.395 24.695H42.255V19.015C42.255 18.605 42.595 18.265 43.005 18.265C43.415 18.265 43.755 18.605 43.755 19.015V25.435C43.755 25.845 43.415 26.185 43.005 26.185H40.145V29.515C40.145 29.855 39.915 30.145 39.595 30.235C37.825 30.725 36.195 31.665 34.895 32.945C34.765 33.095 34.565 33.165 34.375 33.165ZM43.005 15.765C42.595 15.765 42.255 15.425 42.255 15.015V3.995C42.255 3.065 41.495 2.315 40.565 2.315H31.405C30.995 2.315 30.655 1.975 30.655 1.565C30.655 1.155 30.995 0.815002 31.415 0.815002H40.575C42.335 0.815002 43.765 2.245 43.765 3.995V15.015C43.755 15.435 43.425 15.765 43.005 15.765ZM0.974976 15.655C0.564976 15.655 0.224976 15.315 0.224976 14.905V3.995C0.224976 2.245 1.65498 0.815002 3.41498 0.815002H27.415C27.825 0.815002 28.165 1.155 28.165 1.565C28.165 1.975 27.825 2.315 27.415 2.315H3.41498C2.48498 2.315 1.72498 3.065 1.72498 3.995V14.905C1.72498 15.315 1.38498 15.655 0.974976 15.655Z" stroke="#7973B3" stroke-width="2" mask="url(#path-1-inside-1)"/>
<path d="M43.005 66.145H28.975C28.8411 66.145 28.725 66.0289 28.725 65.895C28.725 65.7612 28.8411 65.645 28.975 65.645H43.005C43.1388 65.645 43.255 65.7612 43.255 65.895C43.255 66.0332 43.1445 66.145 43.005 66.145ZM24.975 66.145H0.974976C0.841118 66.145 0.724976 66.0289 0.724976 65.895C0.724976 65.7612 0.841118 65.645 0.974976 65.645H24.975C25.1088 65.645 25.225 65.7612 25.225 65.895C25.225 66.0289 25.1088 66.145 24.975 66.145ZM43.005 15.355H28.975C28.8411 15.355 28.725 15.2389 28.725 15.105C28.725 14.9712 28.8411 14.855 28.975 14.855H43.005C43.1388 14.855 43.255 14.9712 43.255 15.105C43.255 15.2432 43.1445 15.355 43.005 15.355ZM24.975 15.355H0.974976C0.841118 15.355 0.724976 15.2389 0.724976 15.105C0.724976 14.9712 0.841118 14.855 0.974976 14.855H24.975C25.1088 14.855 25.225 14.9712 25.225 15.105C25.225 15.2389 25.1088 15.355 24.975 15.355Z" stroke="#7973B3"/>
<path d="M21.9849 76.325C19.9611 76.325 18.3149 74.6789 18.3149 72.655C18.3149 70.6311 19.9611 68.985 21.9849 68.985C24.0088 68.985 25.6549 70.6311 25.6549 72.655C25.6549 74.6789 24.0088 76.325 21.9849 76.325ZM21.9849 69.495C20.2388 69.495 18.8149 70.9189 18.8149 72.665C18.8149 74.4111 20.2388 75.835 21.9849 75.835C23.7311 75.835 25.1549 74.4111 25.1549 72.665C25.1549 70.9189 23.7311 69.495 21.9849 69.495Z" stroke="#7973B3"/>
<path d="M31.1011 37.7144L31.0235 38.0712C30.9266 38.517 30.8512 38.9533 30.8135 39.3938C30.8042 39.5359 30.905 39.6537 31.0262 39.675H31.0263H31.0264H31.0266H31.0267H31.0269H31.027H31.0272H31.0273H31.0275H31.0276H31.0278H31.0279H31.0281H31.0282H31.0283H31.0285H31.0286H31.0288H31.0289H31.0291H31.0292H31.0294H31.0295H31.0297H31.0298H31.03H31.0301H31.0303H31.0304H31.0305H31.0307H31.0308H31.031H31.0311H31.0313H31.0314H31.0316H31.0317H31.0319H31.032H31.0322H31.0323H31.0324H31.0326H31.0327H31.0329H31.033H31.0332H31.0333H31.0335H31.0336H31.0338H31.0339H31.0341H31.0342H31.0343H31.0345H31.0346H31.0348H31.0349H31.0351H31.0352H31.0354H31.0355H31.0357H31.0358H31.036H31.0361H31.0362H31.0364H31.0365H31.0367H31.0368H31.037H31.0371H31.0373H31.0374H31.0376H31.0377H31.0378H31.038H31.0381H31.0383H31.0384H31.0386H31.0387H31.0389H31.039H31.0391H31.0393H31.0394H31.0396H31.0397H31.0399H31.04H31.0402H31.0403H31.0404H31.0406H31.0407H31.0409H31.041H31.0412H31.0413H31.0415H31.0416H31.0417H31.0419H31.042H31.0422H31.0423H31.0425H31.0426H31.0427H31.0429H31.043H31.0432H31.0433H31.0435H31.0436H31.0437H31.0439H31.044H31.0442H31.0443H31.0445H31.0446H31.0447H31.0449H31.045H31.0452H31.0453H31.0454H31.0456H31.0457H31.0459H31.046H31.0462H31.0463H31.0464H31.0466H31.0467H31.0469H31.047H31.0471H31.0473H31.0474H31.0476H31.0477H31.0478H31.048H31.0481H31.0483H31.0484H31.0485H31.0487H31.0488H31.049H31.0491H31.0492H31.0494H31.0495H31.0496H31.0498H31.0499H31.0501H31.0502H31.0503H31.0505H31.0506H31.0507H31.0509H31.051H31.0512H31.0513H31.0514H31.0516H31.0517H31.0518H31.052H31.0521H31.0522H31.0524H31.0525H31.0527H31.0528H31.0529H31.0531H31.0532H31.0533H31.0535H31.0536H31.0537H31.0539H31.054H31.0541H31.0543H31.0544H31.0545H31.0547H31.0548H31.0549H31.0551H31.0552H31.0553H31.0555H31.0556H31.0557H31.0559H31.056H31.0561H31.0562H31.0564H31.0565H31.0566H31.0568H31.0569H31.057H31.0572H31.0573H31.0574H31.0575H31.0577H31.0578H31.0579H31.0581H31.0582H31.0583H31.0584H31.0586H31.0587H31.0588H31.059H31.0591H31.0592H31.0593H31.0595H31.0596H31.0597H31.0598H31.06H31.0601H31.0602H31.0603H31.0605H31.0606H31.0607H31.0608H31.061H31.0611H31.0612H31.0613H31.0615H31.0616H31.0617H31.0618H31.062H31.0621H31.0622H31.0623H31.0624H31.0626H31.0627H31.0628H31.0629H31.0631H31.0632H31.0633H31.0634H31.0635H31.0637H31.0638H31.0639H31.064H31.0641H31.0643H31.0644H31.0645H31.0646H31.0647H31.0648H31.065C31.1947 39.675 31.3049 39.5727 31.3177 39.4529C31.3177 39.4528 31.3177 39.4528 31.3177 39.4527L31.815 39.505C31.875 38.925 31.975 38.355 32.125 37.795L31.1011 37.7144ZM31.1011 37.7144L30.7849 37.5319L27.7369 35.7731C27.7366 35.773 27.7364 35.7728 27.7361 35.7727C27.612 35.6997 27.5803 35.5479 27.6437 35.4423L27.6438 35.4423L27.648 35.435L30.6367 30.2572C30.6749 30.1929 30.7283 30.1546 30.7862 30.1401L30.7862 30.1401L30.7922 30.1385C30.8513 30.123 30.9245 30.1325 30.9814 30.166L30.9814 30.166L30.9851 30.1681L34.0351 31.9281L34.3504 32.1101L34.6204 31.8658C35.827 30.7741 37.2652 29.949 38.8204 29.4402L39.165 29.3275V28.965V27.385C39.165 27.2512 39.2811 27.135 39.415 27.135C39.5488 27.135 39.665 27.2512 39.665 27.385V29.525C39.665 29.633 39.5918 29.7318 39.4803 29.7635M31.1011 37.7144L31.5221 37.3864L28.6441 35.7176L28.2124 35.4672L28.4619 35.035L30.7019 31.155L30.9524 30.7212L31.3858 30.9725L34.2658 32.6425L34.2678 32.6437C34.3576 32.6963 34.479 32.6838 34.5614 32.6015L34.5641 32.5987L34.5642 32.5987C35.9248 31.259 37.6294 30.2761 39.4803 29.7635M39.4803 29.7635C39.4807 29.7634 39.4811 29.7632 39.4816 29.7631L39.615 30.245L39.4796 29.7637C39.4798 29.7636 39.4801 29.7635 39.4803 29.7635ZM44.635 55.305H45.135V54.805V51.475C45.135 51.3559 45.217 51.2624 45.3062 51.2401L45.3062 51.2401L45.314 51.2381C47.1602 50.745 48.856 49.7601 50.2258 48.4113L50.2285 48.4086C50.3109 48.3262 50.4324 48.3138 50.5221 48.3664L50.5253 48.3682L53.4053 50.0282L53.8382 50.2777L54.088 49.845L56.328 45.965L56.578 45.5319L56.1448 45.2819L55.1069 44.6831C55.1066 44.683 55.1063 44.6828 55.1061 44.6826C54.9827 44.6101 54.9468 44.4546 55.008 44.3449C55.0813 44.2218 55.2374 44.1866 55.3468 44.2491C55.3468 44.2491 55.3469 44.2491 55.3469 44.2491L57.0315 45.216C57.032 45.2163 57.0326 45.2167 57.0332 45.217C57.0972 45.2552 57.1354 45.3084 57.1499 45.3663L57.1499 45.3663L57.1514 45.3723C57.167 45.4314 57.1575 45.5045 57.124 45.5615L57.1219 45.5651L54.1331 50.7431C54.1329 50.7433 54.1328 50.7436 54.1326 50.7439C54.061 50.8658 53.9133 50.9061 53.7901 50.8392L50.7438 49.0913L50.4301 48.9113L50.161 49.1529C48.942 50.2471 47.5031 51.0812 45.9613 51.5792L45.615 51.6911V52.055V55.575V55.5878L45.6156 55.6006C45.6199 55.6848 45.5392 55.805 45.385 55.805H43.325C43.1911 55.805 43.075 55.6889 43.075 55.555C43.075 55.4212 43.1911 55.305 43.325 55.305H44.635ZM39.155 52.035V51.6711L38.8086 51.5592C37.2653 51.0607 35.8275 50.2363 34.6106 49.1344L34.3406 48.8899L34.0251 49.0719L30.9751 50.8319L30.973 50.8331C30.8571 50.9007 30.7071 50.8592 30.642 50.7422L30.6421 50.7422L30.638 50.735L27.648 45.5551L27.648 45.555L27.6459 45.5515C27.6124 45.4945 27.6029 45.4214 27.6185 45.3623C27.6342 45.3024 27.6796 45.2412 27.737 45.2069C27.7375 45.2066 27.738 45.2063 27.7385 45.206L30.8318 43.4271L30.9521 43.6353L31.0827 43.8612L28.6353 45.2718L28.2018 45.5217L28.4519 45.955L30.6919 49.835L30.9418 50.2677L31.3746 50.0182L34.2547 48.3582L34.2578 48.3564C34.3476 48.3037 34.469 48.3162 34.5514 48.3986L34.5528 48.3999C35.9249 49.7616 37.631 50.7348 39.4627 51.2372L39.4634 51.2374C39.5713 51.2668 39.645 51.3657 39.645 51.475V55.475H39.6448L39.6451 55.4869C39.6481 55.6149 39.5456 55.725 39.405 55.725C39.2711 55.725 39.155 55.6089 39.155 55.475V52.035ZM54.0077 30.1385C54.0676 30.1543 54.129 30.1998 54.1632 30.2573C54.1635 30.2577 54.1637 30.2581 54.164 30.2585L57.1519 35.435L57.1531 35.4369C57.222 35.5551 57.1774 35.7077 57.0669 35.7709L57.0644 35.7723L54.0244 37.5323L53.7091 37.7149L53.7863 38.071C53.9587 38.8657 54.045 39.6802 54.045 40.495C54.045 40.8507 54.0266 41.2093 53.9983 41.5631C53.9686 41.7164 53.8487 41.805 53.725 41.805H53.7248H53.7247H53.7246H53.7245H53.7244H53.7243H53.7241H53.724H53.7239H53.7238H53.7237H53.7235H53.7234H53.7233H53.7232H53.7231H53.7229H53.7228H53.7227H53.7226H53.7224H53.7223H53.7222H53.7221H53.722H53.7218H53.7217H53.7216H53.7215H53.7213H53.7212H53.7211H53.721H53.7208H53.7207H53.7206H53.7205H53.7203H53.7202H53.7201H53.72H53.7198H53.7197H53.7196H53.7195H53.7193H53.7192H53.7191H53.719H53.7188H53.7187H53.7186H53.7184H53.7183H53.7182H53.7181H53.7179H53.7178H53.7177H53.7175H53.7174H53.7173H53.7172H53.717H53.7169H53.7168H53.7166H53.7165H53.7164H53.7162H53.7161H53.716H53.7159H53.7157H53.7156H53.7155H53.7153H53.7152H53.7151H53.7149H53.7148H53.7147H53.7145H53.7144H53.7143H53.7141H53.714H53.7139H53.7137H53.7136H53.7135H53.7133H53.7132H53.7131H53.7129H53.7128H53.7127H53.7125H53.7124H53.7122H53.7121H53.712H53.7118H53.7117H53.7116H53.7114H53.7113H53.7112H53.711H53.7109H53.7107H53.7106H53.7105H53.7103H53.7102H53.7101H53.7099H53.7098H53.7096H53.7095H53.7094H53.7092H53.7091H53.709H53.7088H53.7087H53.7085H53.7084H53.7083H53.7081H53.708H53.7078H53.7077H53.7076H53.7074H53.7073H53.7071H53.707H53.7069H53.7067H53.7066H53.7064H53.7063H53.7062H53.706H53.7059H53.7057H53.7056H53.7055H53.7053H53.7052H53.705H53.7049H53.7047H53.7046H53.7045H53.7043H53.7042H53.704H53.7039H53.7037H53.7036H53.7035H53.7033H53.7032H53.703H53.7029H53.7027H53.7026H53.7025H53.7023H53.7022H53.702H53.7019H53.7017H53.7016H53.7015H53.7013H53.7012H53.701H53.7009H53.7007H53.7006H53.7004H53.7003H53.7002H53.7H53.6999H53.6997H53.6996H53.6994H53.6993H53.6992H53.699H53.6989H53.6987H53.6986H53.6984H53.6983H53.6981H53.698H53.6978H53.6977H53.6976H53.6974H53.6973H53.6971H53.697H53.6968H53.6967H53.6965H53.6964H53.6962H53.6961H53.696H53.6958H53.6957H53.6955H53.6954H53.6952H53.6951H53.6949H53.6948H53.6946H53.6945H53.6943H53.6942H53.6941H53.6939H53.6938H53.6936H53.6935H53.6933H53.6932H53.693H53.6929H53.6927H53.6926H53.6924H53.6923H53.6922H53.692H53.6919H53.6917H53.6916H53.6914H53.6913H53.6911H53.691H53.6908H53.6907H53.6905H53.6904H53.6903H53.6901H53.69H53.6898H53.6897H53.6895H53.6894H53.6892H53.6891H53.6889H53.6888H53.6886H53.6885H53.6883H53.6882H53.6881H53.6879H53.6878H53.6876H53.6875H53.6873H53.6872H53.687H53.6869H53.6867H53.6866H53.6864H53.6863H53.6862C53.5653 41.7838 53.4647 41.6664 53.4734 41.5247C53.504 41.187 53.525 40.8429 53.525 40.495C53.525 39.532 53.3994 38.5774 53.1471 37.6627C53.12 37.5621 53.1628 37.4484 53.267 37.3869C53.2672 37.3867 53.2675 37.3865 53.2678 37.3864L56.1458 35.7176L56.5775 35.4672L56.328 35.035L54.088 31.155L53.8375 30.7212L53.4041 30.9725L50.5241 32.6425L50.5221 32.6437C50.4324 32.6963 50.3109 32.6838 50.2285 32.6015L50.2271 32.6001C48.8664 31.2498 47.1704 30.2655 45.3162 29.7625C45.2084 29.733 45.135 29.6342 45.135 29.525V26.195V25.695H44.635H41.465C41.3311 25.695 41.215 25.5789 41.215 25.445C41.215 25.3111 41.3311 25.195 41.465 25.195H45.385C45.5188 25.195 45.635 25.3111 45.635 25.445V28.965V29.3275L45.9795 29.4402C47.5331 29.9485 48.9725 30.7833 50.1811 31.8672L50.4509 32.1092L50.7649 31.9281L53.8149 30.1681L53.8149 30.1681L53.8185 30.166C53.8754 30.1325 53.9486 30.123 54.0077 30.1385Z" stroke="#7973B3"/>
<path d="M43.3305 48.468L43.3305 48.468L43.3297 48.4626C43.3093 48.3229 43.4036 48.1993 43.5374 48.1797L43.5379 48.1797C47.3145 47.6233 50.155 44.3217 50.155 40.495C50.155 36.2189 46.6712 32.735 42.395 32.735C38.1093 32.735 34.625 36.2184 34.625 40.495C34.625 43.7454 36.6765 46.6721 39.7221 47.7942L39.7261 47.7956C39.8532 47.8412 39.9222 47.983 39.8744 48.1161C39.8289 48.2429 39.6789 48.3104 39.5579 48.2658L39.557 48.2655C36.3144 47.0778 34.135 43.9556 34.135 40.495C34.135 35.9415 37.8408 32.235 42.405 32.235C46.9589 32.235 50.665 35.9411 50.665 40.495C50.665 44.5562 47.6535 48.0659 43.6577 48.675H43.6575H43.6573H43.657H43.6568H43.6565H43.6562H43.656H43.6557H43.6555H43.6552H43.6549H43.6547H43.6544H43.6542H43.6539H43.6536H43.6534H43.6531H43.6529H43.6526H43.6523H43.6521H43.6518H43.6516H43.6513H43.6511H43.6508H43.6506H43.6503H43.65H43.6498H43.6495H43.6493H43.649H43.6488H43.6485H43.6483H43.648H43.6478H43.6475H43.6472H43.647H43.6467H43.6465H43.6462H43.646H43.6457H43.6455H43.6452H43.645H43.6447H43.6445H43.6442H43.644H43.6437H43.6435H43.6432H43.643H43.6427H43.6425H43.6422H43.642H43.6417H43.6415H43.6412H43.641H43.6407H43.6405H43.6403H43.64H43.6398H43.6395H43.6393H43.639H43.6388H43.6385H43.6383H43.638H43.6378H43.6376H43.6373H43.6371H43.6368H43.6366H43.6363H43.6361H43.6359H43.6356H43.6354H43.6351H43.6349H43.6346H43.6344H43.6342H43.6339H43.6337H43.6334H43.6332H43.633H43.6327H43.6325H43.6322H43.632H43.6318H43.6315H43.6313H43.6311H43.6308H43.6306H43.6303H43.6301H43.6299H43.6296H43.6294H43.6292H43.6289H43.6287H43.6284H43.6282H43.628H43.6277H43.6275H43.6273H43.627H43.6268H43.6266H43.6263H43.6261H43.6259H43.6256H43.6254H43.6252H43.6249H43.6247H43.6245H43.6243H43.624H43.6238H43.6236H43.6233H43.6231H43.6229H43.6226H43.6224H43.6222H43.622H43.6217H43.6215H43.6213H43.621H43.6208H43.6206H43.6204H43.6201H43.6199H43.6197H43.6194H43.6192H43.619H43.6188H43.6185H43.6183H43.6181H43.6179H43.6176H43.6174H43.6172H43.617H43.6167H43.6165H43.6163H43.6161H43.6159H43.6156H43.6154H43.6152H43.615H43.6147H43.6145H43.6143H43.6141H43.6139H43.6136H43.6134H43.6132H43.613H43.6128H43.6125H43.6123H43.6121H43.6119H43.6117H43.6114H43.6112H43.611H43.6108H43.6106H43.6104H43.6101H43.6099H43.6097H43.6095H43.6093H43.6091H43.6088H43.6086H43.6084H43.6082H43.608H43.6078H43.6076H43.6073H43.6071H43.6069H43.6067H43.6065H43.6063H43.6061H43.6059H43.6056H43.6054H43.6052H43.605H43.6048H43.6046H43.6044H43.6042H43.604H43.6037H43.6035H43.6033H43.6031H43.6029H43.6027H43.6025H43.6023H43.6021H43.6019H43.6017H43.6014H43.6012H43.601H43.6008H43.6006H43.6004H43.6002H43.6H43.5998H43.5996H43.5994H43.5992H43.599H43.5988H43.5986H43.5984H43.5982H43.598H43.5978H43.5975H43.5973H43.5971H43.5969H43.5967H43.5965H43.5963H43.5961H43.5959H43.5957H43.5955H43.5953H43.5951H43.5949H43.5947H43.5945H43.5943H43.5941H43.5939H43.5937H43.5935H43.5933H43.5931H43.5929H43.5927H43.5925H43.5923H43.5921H43.592H43.5918H43.5916H43.5914H43.5912H43.591H43.5908H43.5906H43.5904H43.5902H43.59H43.5898H43.5896H43.5894H43.5892H43.589H43.5888H43.5886H43.5885H43.5883H43.5881H43.5879H43.5877H43.5875H43.5873H43.5871H43.5869H43.5867H43.5865H43.5863H43.5862H43.586H43.5858H43.5856H43.5854H43.5852H43.585H43.5848H43.5846H43.5845H43.5843H43.5841H43.5839H43.5837H43.5835H43.5833H43.5831H43.583H43.5828H43.5826H43.5824H43.5822H43.582H43.5819H43.5817H43.5815H43.5813H43.5811H43.5809H43.5808H43.5806H43.5804H43.5802H43.58H43.5798H43.5797H43.5795H43.5793H43.5791H43.5789H43.5788H43.5786H43.5784H43.5782H43.578H43.5779H43.5777H43.5775H43.5773H43.5771H43.577H43.5768H43.5766H43.5764H43.5762H43.5761H43.5759H43.5757H43.5755H43.5754H43.5752H43.575C43.4474 48.675 43.346 48.5823 43.3305 48.468Z" stroke="#7973B3"/>
<path d="M26.545 8.465H15.145C15.0112 8.465 14.895 8.34885 14.895 8.215C14.895 8.08114 15.0112 7.965 15.145 7.965H26.555C26.6869 7.965 26.8016 8.07776 26.8049 8.20913C26.7981 8.35605 26.6804 8.465 26.545 8.465Z" stroke="#7973B3"/>
</g>
</svg>
