<svg width="78" height="72" viewBox="0 0 78 72" fill="none" xmlns="http://www.w3.org/2000/svg">
<g id="css 1">
<g id="Group">
<path id="Vector" d="M43.2748 11.4099L37.5405 18.4888H0.139587V71.9173H77.4018V11.4099H43.2748ZM24.8467 33.3969H22.0522C20.6758 33.3969 19.5559 34.4303 19.5559 35.7005V41.9212L15.4628 45.5123L19.5559 49.1034V55.3241C19.5559 56.5942 20.6758 57.6277 22.0522 57.6277H24.8467V61.8054H22.0522C18.1796 61.8054 15.0289 58.8978 15.0289 55.3241V50.8961L8.8927 45.5123L15.0289 40.1286V35.7005C15.0289 32.1267 18.1796 29.2191 22.0522 29.2191H24.8467V33.3969ZM33.1334 62.2949L29.016 60.5582L44.2572 29.7823L48.3746 31.519L33.1334 62.2949ZM62.5125 50.8961V55.3241C62.5125 58.8978 59.3618 61.8054 55.4892 61.8054H52.6946V57.6277H55.4892C56.8656 57.6277 57.9854 56.5942 57.9854 55.3241V49.1034L62.0785 45.5123L57.9854 41.9212V35.7005C57.9854 34.4303 56.8656 33.3969 55.4892 33.3969H52.6946V29.2191H55.4892C59.3618 29.2191 62.5125 32.1267 62.5125 35.7005V40.1286L68.6487 45.5123L62.5125 50.8961Z" fill="#7973B3"/>
<path id="Vector_2" d="M35.2724 14.3113L41.0067 7.23241H77.4017V0.617676H0.139557V14.3113H35.2724ZM26.0696 5.46843H30.5967V9.64616H26.0696V5.46843ZM16.7829 5.46843H21.31V9.64616H16.7829V5.46843ZM7.49606 5.46843H12.0231V9.64616H7.49606V5.46843Z" fill="#7973B3"/>
</g>
</g>
</svg>
