<svg width="71" height="64" viewBox="0 0 71 64" fill="none" xmlns="http://www.w3.org/2000/svg">
<path d="M35.2778 49.6403C39.0588 49.6403 42.1239 46.8728 42.1239 43.4588C42.1239 40.0449 39.0588 37.2773 35.2778 37.2773C31.4968 37.2773 28.4316 40.0449 28.4316 43.4588C28.4316 46.8728 31.4968 49.6403 35.2778 49.6403Z" fill="#7973B3"/>
<path d="M68.2077 0.617676H2.21095C1.07668 0.617676 0.157104 1.44788 0.157104 2.47207V46.9783C0.157104 48.0024 1.07668 48.8327 2.21095 48.8327H26.0892C21.3809 42.2923 26.6037 33.5685 35.2778 33.5685C43.9518 33.5685 49.1746 42.2921 44.4664 48.8327H68.2077C69.342 48.8327 70.2615 48.0024 70.2615 46.9783V2.47207C70.2615 1.44788 69.342 0.617676 68.2077 0.617676V0.617676ZM26.994 8.15901H43.4247C44.5589 8.15901 45.4785 8.98921 45.4785 10.0134C45.4785 11.0376 44.5589 11.8678 43.4247 11.8678H26.994C25.8597 11.8678 24.9401 11.0376 24.9401 10.0134C24.9401 8.98921 25.8597 8.15901 26.994 8.15901V8.15901ZM55.7477 30.4121H14.6709C13.5366 30.4121 12.6171 29.5819 12.6171 28.5577C12.6171 27.5335 13.5366 26.7033 14.6709 26.7033H55.7477C56.882 26.7033 57.8016 27.5335 57.8016 28.5577C57.8016 29.5819 56.882 30.4121 55.7477 30.4121ZM55.7477 22.9944H14.6709C13.5366 22.9944 12.6171 22.1642 12.6171 21.14C12.6171 20.1158 13.5366 19.2856 14.6709 19.2856H55.7477C56.882 19.2856 57.8016 20.1158 57.8016 21.14C57.8016 22.1642 56.882 22.9944 55.7477 22.9944Z" fill="#7973B3"/>
<path d="M27.0964 50.0257V62.0609C27.0964 63.5313 28.9148 64.4268 30.2851 63.6065L35.3462 60.577L40.4072 63.6065C41.7566 64.4143 43.5959 63.5486 43.5959 62.0609V49.8831C39.269 54.4438 31.5226 54.5163 27.0964 50.0257V50.0257Z" fill="#7973B3"/>
</svg>
