<svg width="71" height="77" viewBox="0 0 71 77" fill="none" xmlns="http://www.w3.org/2000/svg">
<path d="M53.2286 61.3358L55.9834 58.5809V73.2625C55.9834 75.0344 54.5413 76.4755 52.7694 76.4755H32.1057H24.7765H4.11486C2.34299 76.4755 0.900818 75.0344 0.900818 73.2625V9.00097C0.900818 7.2291 2.34299 5.78794 4.11486 5.78794H14.4012L14.03 7.46272C13.9987 7.6033 13.9835 7.73173 13.9835 7.8531V15.1974C13.9835 16.2098 14.8067 17.033 15.8191 17.033H41.0642C42.0775 17.033 42.9008 16.2098 42.9008 15.1974V7.8531C42.9008 7.73072 42.8846 7.6033 42.8532 7.46272L42.4821 5.78794H52.7684H52.7694C54.5413 5.78794 55.9834 7.2291 55.9834 9.00097V30.8267L53.2275 33.5816V9.00097C53.2275 8.74813 53.0212 8.54182 52.7684 8.54182H45.6546V15.1974C45.6546 17.7278 43.5966 19.7879 41.0642 19.7879H15.8181C13.2867 19.7879 11.2276 17.7288 11.2276 15.1974V8.54182H4.11486C3.86202 8.54182 3.65571 8.74813 3.65571 9.00097V73.2625C3.65571 73.5154 3.86202 73.7227 4.11486 73.7227H24.7775H32.1067H52.7694C53.0222 73.7227 53.2286 73.5154 53.2286 73.2625V61.3358ZM17.3321 15.3087H39.5512C40.4442 15.3087 41.1673 14.5856 41.1673 13.6926V7.2291C41.1673 6.33609 40.4442 5.61298 39.5512 5.61298H33.4923C33.4923 2.93596 31.2178 0.765625 28.4143 0.765625C25.6089 0.765625 23.3354 2.93596 23.3354 5.61298H17.3331C16.4401 5.61298 15.718 6.33609 15.718 7.2291V13.6926C15.718 14.5846 16.4401 15.3087 17.3321 15.3087ZM24.6289 44.1036L15.9273 35.402L12.3522 38.9771L24.6289 51.2537L44.532 31.3496L40.958 27.7745L24.6289 44.1036ZM69.8034 36.7147L63.5523 30.4626C62.632 29.5433 61.0027 29.6768 59.9165 30.762L56.476 34.2036L66.0635 43.7901L69.503 40.3485C70.5912 39.2643 70.7237 37.634 69.8034 36.7147ZM54.8801 35.8005L64.4666 45.387L41.6062 68.2493C41.5011 68.3545 41.2108 68.6458 40.8022 68.7489C40.7547 68.7701 40.7072 68.7904 40.6586 68.8066L28.7278 72.6082C28.3941 72.7134 28.0583 72.6466 27.8409 72.4272C27.6235 72.2097 27.5547 71.874 27.6599 71.5402L31.4625 59.6115C31.4787 59.5619 31.4979 59.5144 31.5201 59.4668C31.6243 59.0583 31.9146 58.768 32.0208 58.6618L54.8801 35.8005ZM38.6572 67.512L32.755 61.6099L31.1722 66.5806L33.6874 69.0958L38.6572 67.512ZM54.5109 39.6112C54.1711 39.2714 53.622 39.2714 53.2822 39.6112L35.4613 57.433C35.1215 57.7718 35.1215 58.323 35.4613 58.6618C35.8001 59.0006 36.3503 59.0006 36.6901 58.6618L54.5109 40.84C54.8507 40.5002 54.8507 39.95 54.5109 39.6112Z" fill="#7973B3"/>
</svg>
