<svg width="98" height="115" viewBox="0 0 98 115" fill="none" xmlns="http://www.w3.org/2000/svg">
<path d="M68.9094 25.0505H78.0932C85.4402 25.0505 91.2566 30.9009 91.2566 38.2908V40.1383" stroke="white" stroke-width="1.5" stroke-miterlimit="10"/>
<path d="M65.8481 85.7095H78.7054C81.7667 85.7095 84.5218 83.2462 84.5218 79.8591C84.5218 76.78 82.0728 74.0088 78.7054 74.0088H77.4809" stroke="white" stroke-width="1.5" stroke-miterlimit="10"/>
<path d="M29.4194 25.0505H20.2356C12.8886 25.0505 7.07227 30.9009 7.07227 38.2908V40.1383" stroke="white" stroke-width="1.5" stroke-miterlimit="10"/>
<path d="M33.3991 37.9827C39.2154 37.9827 41.6644 35.2115 41.6644 31.5166C41.6644 27.8216 39.2154 25.0504 33.3991 25.0504C27.8888 25.0504 22.3786 25.0504 18.3989 25.0504C14.4193 25.0504 12.8887 21.6633 12.8887 19.508C12.8887 17.3526 14.7254 14.2734 18.7051 14.2734C22.6847 14.2734 28.8072 14.2734 34.3174 14.2734" stroke="white" stroke-width="1.5" stroke-miterlimit="10"/>
<path d="M35.3611 62.3079C38.4223 62.3079 41.1775 64.7712 41.1775 68.1582C41.1775 71.2373 38.7285 74.0085 35.3611 74.0085H18.8303" stroke="white" stroke-width="1.5" stroke-miterlimit="10"/>
<path d="M21.7664 14.2736C21.7664 7.49951 27.2766 1.64917 34.3175 1.64917C41.0522 1.64917 46.8686 7.1916 46.8686 14.2736V102.645" stroke="white" stroke-width="1.5" stroke-miterlimit="10"/>
<path d="M20.848 74.0086C12.2765 74.0086 5.2356 66.9266 5.2356 58.3051" stroke="white" stroke-width="1.5" stroke-miterlimit="10"/>
<path d="M35.8481 96.7943H26.9705C23.9092 96.7943 21.4602 94.331 21.4602 91.2519C21.4602 88.1728 23.9092 85.7095 26.9705 85.7095" stroke="white" stroke-width="1.5" stroke-miterlimit="10"/>
<path d="M29.7256 96.7941H38.6032C41.6645 96.7941 44.1135 94.3308 44.1135 91.2517" stroke="white" stroke-width="1.5" stroke-miterlimit="10"/>
<path d="M24.2153 60.7683H12.5825C6.46001 60.7683 1.56201 55.8417 1.56201 49.6835C1.56201 43.5252 6.46001 38.5986 12.5825 38.5986H16.256" stroke="white" stroke-width="1.5" stroke-miterlimit="10"/>
<path d="M26.6644 85.7095H19.3174C16.2561 85.7095 13.501 83.2462 13.501 79.8591C13.501 76.78 15.95 74.0088 19.3174 74.0088H20.848" stroke="white" stroke-width="1.5" stroke-miterlimit="10"/>
<path d="M56.6646 31.5166C56.6646 27.8216 59.1135 25.0504 64.9299 25.0504C70.4402 25.0504 75.9504 25.0504 79.9301 25.0504C83.9097 25.0504 85.4403 21.6633 85.4403 19.508C85.4403 17.3526 83.6036 14.2734 79.6239 14.2734C75.6443 14.2734 69.5218 14.2734 64.0116 14.2734" stroke="white" stroke-width="1.5" stroke-miterlimit="10"/>
<path d="M62.3279 62.3079C59.2666 62.3079 56.5115 64.7712 56.5115 68.1582C56.5115 71.2373 58.9605 74.0085 62.3279 74.0085H75.1851" stroke="white" stroke-width="1.5" stroke-miterlimit="10"/>
<path d="M76.2566 14.2736C76.2566 7.49951 70.7463 1.64917 63.7054 1.64917C56.9707 1.64917 51.1543 7.1916 51.1543 14.2736V112.19" stroke="white" stroke-width="1.5" stroke-miterlimit="10"/>
<path d="M62.1748 74.0086H77.1749C85.7464 74.0086 92.7873 66.9266 92.7873 58.3051" stroke="white" stroke-width="1.5" stroke-miterlimit="10"/>
<path d="M57.2769 96.7943H66.1545C69.2157 96.7943 71.6647 94.331 71.6647 91.2519C71.6647 88.1728 69.2157 85.7095 66.1545 85.7095" stroke="white" stroke-width="1.5" stroke-miterlimit="10"/>
<path d="M73.8076 60.7683H85.4404C91.5629 60.7683 96.4609 55.8417 96.4609 49.6835C96.4609 43.5252 91.5629 38.5986 85.4404 38.5986H82.073" stroke="white" stroke-width="1.5" stroke-miterlimit="10"/>
<path d="M64.0115 62.6157C64.0115 61.9999 63.3993 61.384 62.787 61.384C62.1748 61.384 61.5625 61.9999 61.5625 62.6157C61.5625 63.2315 62.1748 63.8473 62.787 63.8473C63.3993 63.8473 64.0115 63.2315 64.0115 62.6157Z" stroke="white" stroke-width="1.5" stroke-miterlimit="10"/>
<path d="M83.2974 38.5986C83.2974 37.9828 82.6851 37.3669 82.0729 37.3669C81.4606 37.3669 80.8484 37.9828 80.8484 38.5986C80.8484 39.2144 81.4606 39.8302 82.0729 39.8302C82.6851 39.8302 83.2974 39.2144 83.2974 38.5986Z" stroke="white" stroke-width="1.5" stroke-miterlimit="10"/>
<path d="M73.5828 60.7685C73.5828 60.1527 72.9705 59.5369 72.3583 59.5369C71.746 59.5369 71.1338 60.1527 71.1338 60.7685C71.1338 61.3843 71.746 62.0002 72.3583 62.0002C72.9705 62.0002 73.5828 61.3843 73.5828 60.7685Z" stroke="white" stroke-width="1.5" stroke-miterlimit="10"/>
<path d="M57.8889 31.5168C57.8889 30.901 57.2767 30.2852 56.6644 30.2852C56.0522 30.2852 55.4399 30.901 55.4399 31.5168C55.4399 32.1326 56.0522 32.7485 56.6644 32.7485C57.2767 32.7485 57.8889 32.1326 57.8889 31.5168Z" stroke="white" stroke-width="1.5" stroke-miterlimit="10"/>
<path d="M52.6848 112.19C52.6848 111.574 52.0726 110.958 51.4603 110.958C50.8481 110.958 50.2358 111.574 50.2358 112.19C50.2358 112.806 50.8481 113.422 51.4603 113.422C52.0726 113.422 52.6848 112.806 52.6848 112.19Z" stroke="white" stroke-width="1.5" stroke-miterlimit="10"/>
<path d="M65.2361 14.2732C65.2361 13.6573 64.6239 13.0415 64.0116 13.0415C63.3994 13.0415 62.7871 13.6573 62.7871 14.2732C62.7871 14.889 63.3994 15.5048 64.0116 15.5048C64.6239 15.5048 65.2361 14.889 65.2361 14.2732Z" stroke="white" stroke-width="1.5" stroke-miterlimit="10"/>
<path d="M58.5012 96.7942C58.5012 96.1783 57.889 95.5625 57.2767 95.5625C56.6645 95.5625 56.0522 96.1783 56.0522 96.7942C56.0522 97.41 56.6645 98.0258 57.2767 98.0258C57.889 98.0258 58.5012 97.41 58.5012 96.7942Z" stroke="white" stroke-width="1.5" stroke-miterlimit="10"/>
<path d="M67.3789 85.7092C67.3789 85.0934 66.7667 84.4775 66.1544 84.4775C65.5422 84.4775 64.9299 85.0934 64.9299 85.7092C64.9299 86.325 65.5422 86.9408 66.1544 86.9408C67.0728 86.9408 67.3789 86.325 67.3789 85.7092Z" stroke="white" stroke-width="1.5" stroke-miterlimit="10"/>
<path d="M36.0794 61.9287C36.0794 61.3128 35.4671 60.697 34.8549 60.697C34.2426 60.697 33.6304 61.3128 33.6304 61.9287C33.6304 62.5445 34.2426 63.1603 34.8549 63.1603C35.4671 63.1603 36.0794 62.5445 36.0794 61.9287Z" stroke="white" stroke-width="1.5" stroke-miterlimit="10"/>
<path d="M27.3515 86.9408C28.0277 86.9408 28.576 86.3894 28.576 85.7092C28.576 85.029 28.0277 84.4775 27.3515 84.4775C26.6752 84.4775 26.127 85.029 26.127 85.7092C26.127 86.3894 26.6752 86.9408 27.3515 86.9408Z" stroke="white" stroke-width="1.5" stroke-miterlimit="10"/>
<path d="M45.6441 90.9437C45.6441 90.3279 45.0318 89.712 44.4196 89.712C43.8073 89.712 43.1951 90.3279 43.1951 90.9437C43.1951 91.5595 43.8073 92.1753 44.4196 92.1753C45.0318 92.1753 45.6441 91.5595 45.6441 90.9437Z" stroke="white" stroke-width="1.5" stroke-miterlimit="10"/>
<path d="M25.7459 60.7685C25.7459 60.1527 25.1336 59.5369 24.5214 59.5369C23.9091 59.5369 23.2969 60.1527 23.2969 60.7685C23.2969 61.3843 23.9091 62.0002 24.5214 62.0002C25.1336 62.0002 25.7459 61.3843 25.7459 60.7685Z" stroke="white" stroke-width="1.5" stroke-miterlimit="10"/>
<path d="M17.1743 38.5986C17.1743 37.9828 16.5621 37.3669 15.9498 37.3669C15.3376 37.3669 14.7253 37.9828 14.7253 38.5986C14.7253 39.2144 15.3376 39.8302 15.9498 39.8302C16.5621 39.8302 17.1743 39.2144 17.1743 38.5986Z" stroke="white" stroke-width="1.5" stroke-miterlimit="10"/>
<path d="M48.093 102.645C48.093 102.029 47.4808 101.413 46.8685 101.413C46.2563 101.413 45.644 102.029 45.644 102.645C45.644 103.26 46.2563 103.876 46.8685 103.876C47.4808 103.876 48.093 103.26 48.093 102.645Z" stroke="white" stroke-width="1.5" stroke-miterlimit="10"/>
<path d="M24.8276 37.3671C21.7664 37.3671 19.0112 39.8304 19.0112 43.2174C19.0112 48.241 22.1325 50.7843 34.394 49.9771C46.6554 49.1698 46.6554 55.1132 46.6554 55.1132" stroke="white" stroke-width="1.5" stroke-miterlimit="10"/>
<path d="M25.7461 37.059C25.7461 36.4432 25.1339 35.8274 24.5216 35.8274C23.9094 35.8274 23.2971 36.4432 23.2971 37.059C23.2971 37.6749 23.9094 38.2907 24.5216 38.2907C25.1339 38.5986 25.7461 37.9828 25.7461 37.059Z" stroke="white" stroke-width="1.5" stroke-miterlimit="10"/>
<path d="M73.3242 37.3671C76.44 37.3671 79.2441 39.8304 79.2441 43.2174C79.2441 48.241 76.0673 50.7843 63.5876 49.9771C51.1079 49.1698 51.1079 55.1132 51.1079 55.1132" stroke="white" stroke-width="1.5" stroke-miterlimit="10"/>
<path d="M72.3895 37.059C72.3895 36.4432 73.0126 35.8274 73.6358 35.8274C74.2589 35.8274 74.8821 36.4432 74.8821 37.059C74.8821 37.6749 74.2589 38.2907 73.6358 38.2907C73.0126 38.5986 72.3895 37.9828 72.3895 37.059Z" stroke="white" stroke-width="1.5" stroke-miterlimit="10"/>
<path d="M33.9363 37.9829C33.9363 37.367 33.3241 36.7512 32.7118 36.7512C32.0996 36.7512 31.4873 37.367 31.4873 37.9829C31.4873 38.5987 32.0996 39.2145 32.7118 39.2145C33.3241 39.2145 33.9363 38.9066 33.9363 37.9829Z" stroke="white" stroke-width="1.5" stroke-miterlimit="10"/>
<path d="M35.542 14.2732C35.542 13.6573 34.9298 13.0415 34.3175 13.0415C33.7053 13.0415 33.093 13.6573 33.093 14.2732C33.093 14.889 33.7053 15.5048 34.3175 15.5048C34.9298 15.5048 35.542 14.889 35.542 14.2732Z" stroke="white" stroke-width="1.5" stroke-miterlimit="10"/>
<path d="M4.92944 58.3048V57.689" stroke="white" stroke-width="1.5" stroke-miterlimit="10"/>
<path d="M93.0933 58.3064V57.9973" stroke="white" stroke-width="1.5" stroke-miterlimit="10"/>
</svg>
