<svg width="98" height="115" viewBox="0 0 98 115" fill="none" xmlns="http://www.w3.org/2000/svg">
<path d="M68.9095 25.0505H78.0932C85.4402 25.0505 91.2566 30.9008 91.2566 38.2907V40.1382" stroke="#7973B3" stroke-width="1.5" stroke-miterlimit="10"/>
<path d="M65.8483 85.7095H78.7055C81.7668 85.7095 84.5219 83.2462 84.5219 79.8591C84.5219 76.78 82.0729 74.0088 78.7055 74.0088H77.481" stroke="#7973B3" stroke-width="1.5" stroke-miterlimit="10"/>
<path d="M29.4194 25.0505H20.2356C12.8886 25.0505 7.07227 30.9008 7.07227 38.2907V40.1382" stroke="#7973B3" stroke-width="1.5" stroke-miterlimit="10"/>
<path d="M33.399 37.9827C39.2154 37.9827 41.6644 35.2115 41.6644 31.5166C41.6644 27.8216 39.2154 25.0504 33.399 25.0504C27.8887 25.0504 22.3785 25.0504 18.3989 25.0504C14.4192 25.0504 12.8886 21.6633 12.8886 19.508C12.8886 17.3526 14.7254 14.2734 18.705 14.2734C22.6846 14.2734 28.8071 14.2734 34.3174 14.2734" stroke="#7973B3" stroke-width="1.5" stroke-miterlimit="10"/>
<path d="M35.3611 62.3079C38.4223 62.3079 41.1774 64.7712 41.1774 68.1583C41.1774 71.2374 38.7284 74.0086 35.3611 74.0086H18.8303" stroke="#7973B3" stroke-width="1.5" stroke-miterlimit="10"/>
<path d="M21.7663 14.2736C21.7663 7.49951 27.2765 1.64917 34.3174 1.64917C41.0522 1.64917 46.8686 7.1916 46.8686 14.2736V102.645" stroke="#7973B3" stroke-width="1.5" stroke-miterlimit="10"/>
<path d="M20.8479 74.0087C12.2764 74.0087 5.2355 66.9267 5.2355 58.3051" stroke="#7973B3" stroke-width="1.5" stroke-miterlimit="10"/>
<path d="M35.848 96.7943H26.9704C23.9091 96.7943 21.4601 94.331 21.4601 91.2519C21.4601 88.1728 23.9091 85.7095 26.9704 85.7095" stroke="#7973B3" stroke-width="1.5" stroke-miterlimit="10"/>
<path d="M29.7255 96.7941H38.6032C41.6644 96.7941 44.1134 94.3308 44.1134 91.2516" stroke="#7973B3" stroke-width="1.5" stroke-miterlimit="10"/>
<path d="M24.2153 60.7683H12.5825C6.46001 60.7683 1.56201 55.8417 1.56201 49.6835C1.56201 43.5252 6.46001 38.5986 12.5825 38.5986H16.256" stroke="#7973B3" stroke-width="1.5" stroke-miterlimit="10"/>
<path d="M26.6642 85.7095H19.3172C16.256 85.7095 13.5009 83.2462 13.5009 79.8591C13.5009 76.78 15.9499 74.0088 19.3172 74.0088H20.8479" stroke="#7973B3" stroke-width="1.5" stroke-miterlimit="10"/>
<path d="M56.6646 31.5166C56.6646 27.8216 59.1135 25.0504 64.9299 25.0504C70.4402 25.0504 75.9504 25.0504 79.9301 25.0504C83.9097 25.0504 85.4403 21.6633 85.4403 19.508C85.4403 17.3526 83.6036 14.2734 79.6239 14.2734C75.6443 14.2734 69.5218 14.2734 64.0116 14.2734" stroke="#7973B3" stroke-width="1.5" stroke-miterlimit="10"/>
<path d="M62.3279 62.3079C59.2666 62.3079 56.5115 64.7712 56.5115 68.1583C56.5115 71.2374 58.9605 74.0086 62.3279 74.0086H75.1851" stroke="#7973B3" stroke-width="1.5" stroke-miterlimit="10"/>
<path d="M76.2566 14.2736C76.2566 7.49951 70.7463 1.64917 63.7055 1.64917C56.9707 1.64917 51.1543 7.1916 51.1543 14.2736V112.19" stroke="#7973B3" stroke-width="1.5" stroke-miterlimit="10"/>
<path d="M62.1748 74.0087H77.1749C85.7464 74.0087 92.7873 66.9267 92.7873 58.3051" stroke="#7973B3" stroke-width="1.5" stroke-miterlimit="10"/>
<path d="M57.2768 96.7943H66.1544C69.2156 96.7943 71.6646 94.331 71.6646 91.2519C71.6646 88.1728 69.2156 85.7095 66.1544 85.7095" stroke="#7973B3" stroke-width="1.5" stroke-miterlimit="10"/>
<path d="M73.8076 60.7683H85.4403C91.5628 60.7683 96.4608 55.8417 96.4608 49.6835C96.4608 43.5252 91.5628 38.5986 85.4403 38.5986H82.0729" stroke="#7973B3" stroke-width="1.5" stroke-miterlimit="10"/>
<path d="M64.0116 62.6158C64.0116 62 63.3993 61.3842 62.7871 61.3842C62.1748 61.3842 61.5626 62 61.5626 62.6158C61.5626 63.2316 62.1748 63.8475 62.7871 63.8475C63.3993 63.8475 64.0116 63.2316 64.0116 62.6158Z" stroke="#7973B3" stroke-width="1.5" stroke-miterlimit="10"/>
<path d="M83.2974 38.5986C83.2974 37.9828 82.6851 37.3669 82.0729 37.3669C81.4606 37.3669 80.8484 37.9828 80.8484 38.5986C80.8484 39.2144 81.4606 39.8302 82.0729 39.8302C82.6851 39.8302 83.2974 39.2144 83.2974 38.5986Z" stroke="#7973B3" stroke-width="1.5" stroke-miterlimit="10"/>
<path d="M73.5829 60.7685C73.5829 60.1526 72.9706 59.5368 72.3584 59.5368C71.7461 59.5368 71.1339 60.1526 71.1339 60.7685C71.1339 61.3843 71.7461 62.0001 72.3584 62.0001C72.9706 62.0001 73.5829 61.3843 73.5829 60.7685Z" stroke="#7973B3" stroke-width="1.5" stroke-miterlimit="10"/>
<path d="M57.889 31.5167C57.889 30.9009 57.2768 30.2851 56.6645 30.2851C56.0523 30.2851 55.44 30.9009 55.44 31.5167C55.44 32.1326 56.0523 32.7484 56.6645 32.7484C57.2768 32.7484 57.889 32.1326 57.889 31.5167Z" stroke="#7973B3" stroke-width="1.5" stroke-miterlimit="10"/>
<path d="M52.6849 112.19C52.6849 111.574 52.0726 110.958 51.4604 110.958C50.8481 110.958 50.2359 111.574 50.2359 112.19C50.2359 112.806 50.8481 113.422 51.4604 113.422C52.0726 113.422 52.6849 112.806 52.6849 112.19Z" stroke="#7973B3" stroke-width="1.5" stroke-miterlimit="10"/>
<path d="M65.236 14.2733C65.236 13.6575 64.6238 13.0416 64.0115 13.0416C63.3993 13.0416 62.787 13.6575 62.787 14.2733C62.787 14.8891 63.3993 15.5049 64.0115 15.5049C64.6238 15.5049 65.236 14.8891 65.236 14.2733Z" stroke="#7973B3" stroke-width="1.5" stroke-miterlimit="10"/>
<path d="M58.5012 96.7942C58.5012 96.1783 57.889 95.5625 57.2767 95.5625C56.6645 95.5625 56.0522 96.1783 56.0522 96.7942C56.0522 97.41 56.6645 98.0258 57.2767 98.0258C57.889 98.0258 58.5012 97.41 58.5012 96.7942Z" stroke="#7973B3" stroke-width="1.5" stroke-miterlimit="10"/>
<path d="M67.3789 85.7093C67.3789 85.0935 66.7666 84.4777 66.1544 84.4777C65.5421 84.4777 64.9299 85.0935 64.9299 85.7093C64.9299 86.3251 65.5421 86.941 66.1544 86.941C67.0728 86.941 67.3789 86.3251 67.3789 85.7093Z" stroke="#7973B3" stroke-width="1.5" stroke-miterlimit="10"/>
<path d="M36.0792 61.9287C36.0792 61.3129 35.467 60.6971 34.8548 60.6971C34.2425 60.6971 33.6302 61.3129 33.6302 61.9287C33.6302 62.5446 34.2425 63.1604 34.8548 63.1604C35.467 63.1604 36.0792 62.5446 36.0792 61.9287Z" stroke="#7973B3" stroke-width="1.5" stroke-miterlimit="10"/>
<path d="M27.3515 86.941C28.0277 86.941 28.576 86.3895 28.576 85.7093C28.576 85.0291 28.0277 84.4777 27.3515 84.4777C26.6752 84.4777 26.127 85.0291 26.127 85.7093C26.127 86.3895 26.6752 86.941 27.3515 86.941Z" stroke="#7973B3" stroke-width="1.5" stroke-miterlimit="10"/>
<path d="M45.644 90.9437C45.644 90.3279 45.0318 89.7121 44.4195 89.7121C43.8073 89.7121 43.195 90.3279 43.195 90.9437C43.195 91.5596 43.8073 92.1754 44.4195 92.1754C45.0318 92.1754 45.644 91.5596 45.644 90.9437Z" stroke="#7973B3" stroke-width="1.5" stroke-miterlimit="10"/>
<path d="M25.7459 60.7685C25.7459 60.1526 25.1337 59.5368 24.5214 59.5368C23.9092 59.5368 23.2969 60.1526 23.2969 60.7685C23.2969 61.3843 23.9092 62.0001 24.5214 62.0001C25.1337 62.0001 25.7459 61.3843 25.7459 60.7685Z" stroke="#7973B3" stroke-width="1.5" stroke-miterlimit="10"/>
<path d="M17.1744 38.5986C17.1744 37.9828 16.5622 37.3669 15.9499 37.3669C15.3377 37.3669 14.7254 37.9828 14.7254 38.5986C14.7254 39.2144 15.3377 39.8302 15.9499 39.8302C16.5622 39.8302 17.1744 39.2144 17.1744 38.5986Z" stroke="#7973B3" stroke-width="1.5" stroke-miterlimit="10"/>
<path d="M48.0931 102.645C48.0931 102.029 47.4808 101.413 46.8686 101.413C46.2563 101.413 45.6441 102.029 45.6441 102.645C45.6441 103.26 46.2563 103.876 46.8686 103.876C47.4808 103.876 48.0931 103.26 48.0931 102.645Z" stroke="#7973B3" stroke-width="1.5" stroke-miterlimit="10"/>
<path d="M24.8275 37.367C21.7663 37.367 19.0111 39.8303 19.0111 43.2173C19.0111 48.2409 22.1324 50.7843 34.3939 49.977C46.6553 49.1698 46.6553 55.1131 46.6553 55.1131" stroke="#7973B3" stroke-width="1.5" stroke-miterlimit="10"/>
<path d="M25.7459 37.059C25.7459 36.4432 25.1337 35.8274 24.5214 35.8274C23.9092 35.8274 23.2969 36.4432 23.2969 37.059C23.2969 37.6749 23.9092 38.2907 24.5214 38.2907C25.1337 38.5986 25.7459 37.9828 25.7459 37.059Z" stroke="#7973B3" stroke-width="1.5" stroke-miterlimit="10"/>
<path d="M73.3241 37.367C76.4399 37.367 79.2441 39.8303 79.2441 43.2173C79.2441 48.2409 76.0672 50.7843 63.5875 49.977C51.1078 49.1698 51.1078 55.1131 51.1078 55.1131" stroke="#7973B3" stroke-width="1.5" stroke-miterlimit="10"/>
<path d="M72.3894 37.059C72.3894 36.4432 73.0125 35.8274 73.6357 35.8274C74.2588 35.8274 74.882 36.4432 74.882 37.059C74.882 37.6749 74.2588 38.2907 73.6357 38.2907C73.0125 38.5986 72.3894 37.9828 72.3894 37.059Z" stroke="#7973B3" stroke-width="1.5" stroke-miterlimit="10"/>
<path d="M33.9365 37.983C33.9365 37.3672 33.3242 36.7513 32.712 36.7513C32.0997 36.7513 31.4875 37.3672 31.4875 37.983C31.4875 38.5988 32.0997 39.2146 32.712 39.2146C33.3242 39.2146 33.9365 38.9067 33.9365 37.983Z" stroke="#7973B3" stroke-width="1.5" stroke-miterlimit="10"/>
<path d="M35.542 14.2733C35.542 13.6575 34.9297 13.0416 34.3175 13.0416C33.7052 13.0416 33.093 13.6575 33.093 14.2733C33.093 14.8891 33.7052 15.5049 34.3175 15.5049C34.9297 15.5049 35.542 14.8891 35.542 14.2733Z" stroke="#7973B3" stroke-width="1.5" stroke-miterlimit="10"/>
<path d="M4.92941 58.3048V57.689" stroke="#7973B3" stroke-width="1.5" stroke-miterlimit="10"/>
<path d="M93.0934 58.3064V57.9973" stroke="#7973B3" stroke-width="1.5" stroke-miterlimit="10"/>
</svg>
