<svg width="107" height="116" viewBox="0 0 107 116" fill="none" xmlns="http://www.w3.org/2000/svg">
<path d="M33.072 79.8211L39.7137 75.6646L43.4428 79.3987L40.8908 87.9168L40.6897 88.5879L41.3456 88.8341L48.4936 91.5182L48.9854 91.7028L49.327 91.3037L54.3951 85.3833L61.481 86.96L62.3091 93.5929L62.3911 94.25H63.0533H71.0948H71.7662L71.8402 93.5827L72.6712 86.0944L77.0638 85.3613L83.7473 92.8902V99.9788L75.4876 100.806L74.9941 100.855L74.8464 101.329L70.5432 115.117H60.0309L55.7277 101.329L55.5634 100.802H55.0117H48.7572H48.467L48.2524 100.997L38.8191 109.584L30.0217 104.78L34.2741 92.8573L34.4333 92.4108L34.0984 92.0754L28.7373 86.7074L28.3957 86.3652L27.943 86.5352L14.1918 91.6986L8.60144 83.7019L18.0575 72.512L18.3155 72.2066L18.2058 71.8221L16.4188 65.5594L16.2635 65.0152H15.6976H1.25806V53.0017L14.0099 51.2992L14.5594 51.2259L14.6504 50.679L15.5439 45.3109L15.6348 44.7649L15.1399 44.5171L3.19843 38.5386L6.37704 28.1947L19.983 31.6006L20.4504 31.7176L20.7511 31.3412L24.3251 26.8678L24.661 26.4474L24.3703 25.9945L16.6863 14.0261L26.3736 5.94282L37.5045 17.0883L37.8049 17.3891L38.2173 17.2859L45.3653 15.4965L45.8319 15.3797L45.9204 14.907L48.4863 1.20422H60.6157L62.3108 13.0856L62.3804 13.5733L62.8557 13.7031L71.8736 16.1658L67.0392 28.2676L60.9509 27.5055L58.4107 19.0271L58.2286 18.4193L57.5991 18.4981L50.4511 19.3928L49.7942 19.475V20.137V28.6826L47.9908 29.8865L41.2766 22.3231L40.8555 21.8488L40.3178 22.1852L33.1698 26.6586L32.4886 27.0849L32.9608 27.7351L39.7327 37.0586L37.8049 38.989L27.4953 36.4082L26.8752 36.253L26.6236 36.8406L23.9431 43.1033L23.6313 43.832L24.376 44.1032L33.7112 47.5022V50.8153L23.6157 52.5001L23.0563 52.5934L22.9937 53.1571L22.1002 61.2092L22.0147 61.9801L22.788 62.0397L33.837 62.8907L34.5285 66.3527L26.8523 72.3309L26.2325 72.8136L26.7434 73.4103L32.1044 79.673L32.5245 80.1637L33.072 79.8211Z" fill="white" stroke="white" stroke-width="1.5"/>
<path d="M73.0253 57.713C73.0253 63.7232 68.1597 68.5937 62.1597 68.5937C56.1598 68.5937 51.2942 63.7232 51.2942 57.713C51.2942 51.7028 56.1598 46.8323 62.1597 46.8323C68.1597 46.8323 73.0253 51.7028 73.0253 57.713Z" fill="white" stroke="white" stroke-width="1.5"/>
<path d="M99.687 72.028C97.9 72.028 80.0299 71.1333 77.3494 72.9226C73.7754 76.5013 68.4144 79.1853 62.1598 79.1853C49.6508 79.1853 39.8223 69.344 39.8223 56.8186C39.8223 44.2932 49.6508 35.3464 62.1598 35.3464C73.7754 35.3464 75.5624 41.6091 79.1364 43.3985C83.6039 45.1878 100.58 44.2931 100.58 44.2931" stroke="white" stroke-miterlimit="10"/>
<path d="M106.085 72.0277C106.085 73.5908 104.82 74.8563 103.261 74.8563C101.702 74.8563 100.437 73.5908 100.437 72.0277C100.437 70.4645 101.702 69.199 103.261 69.199C104.82 69.199 106.085 70.4645 106.085 72.0277Z" fill="white" stroke="white" stroke-width="1.5"/>
<path d="M106.085 43.3985C106.085 44.9617 104.82 46.2272 103.261 46.2272C101.702 46.2272 100.437 44.9617 100.437 43.3985C100.437 41.8353 101.702 40.5698 103.261 40.5698C104.82 40.5698 106.085 41.8353 106.085 43.3985Z" fill="white" stroke="white" stroke-width="1.5"/>
<path d="M80.9233 48.7662C84.4974 50.5556 85.3909 63.9756 80.9233 66.6597" stroke="white" stroke-width="1.5" stroke-miterlimit="10"/>
<path d="M104.707 57.7127C104.707 59.2759 103.441 60.5414 101.883 60.5414C100.324 60.5414 99.0586 59.2759 99.0586 57.7127C99.0586 56.1496 100.324 54.884 101.883 54.884C103.441 54.884 104.707 56.1496 104.707 57.7127Z" fill="white" stroke="white" stroke-width="1.5"/>
<path d="M83.604 57.7129H98.7935H83.604Z" fill="white"/>
<path d="M83.604 57.7129H98.7935" stroke="white" stroke-width="1.5" stroke-miterlimit="10"/>
</svg>
