<svg width="107" height="116" viewBox="0 0 107 116" fill="none" xmlns="http://www.w3.org/2000/svg">
<path d="M77.3494 84.5533L84.4974 92.6054V100.657L75.5624 101.552L71.0949 115.867H59.4793L55.0118 101.552H48.7573L38.9288 110.499L29.1002 105.131L33.5677 92.6054L28.2067 87.2373L13.9107 92.6054L7.65614 83.6587L17.4847 72.0279L15.6977 65.7652H0.508118V52.3452L13.9107 50.5558L14.8042 45.1878L2.29512 38.9251L5.86914 27.2944L20.1652 30.873L23.7392 26.3997L15.6977 13.8743L26.4197 4.92758L38.0353 16.5583L45.1833 14.769L47.8638 0.454224H61.2663L63.0533 12.9796L72.8819 15.6636L67.5209 29.0837L60.3728 28.189L57.6923 19.2423L50.5443 20.137V29.0837L47.8638 30.873L40.7158 22.821L33.5677 27.2944L40.7158 37.1357L38.0353 39.8198L27.3132 37.1357L24.6327 43.3984L34.4612 46.9771V51.4505L23.7392 53.2398L22.8457 61.2919L34.4612 62.1865L35.3547 66.6599L27.3132 72.9226L32.6742 79.1853L39.8223 74.7119L44.2898 79.1853L41.6093 88.132L48.7573 90.816L54.1183 84.5533L62.1598 86.3427L63.0533 93.5H71.0949L71.9884 85.448L77.3494 84.5533Z" fill="#7973B3"/>
<path d="M62.1598 69.3437C68.5749 69.3437 73.7753 64.1365 73.7753 57.713C73.7753 51.2895 68.5749 46.0823 62.1598 46.0823C55.7447 46.0823 50.5443 51.2895 50.5443 57.713C50.5443 64.1365 55.7447 69.3437 62.1598 69.3437Z" fill="#7973B3"/>
<path d="M99.687 72.028C97.9 72.028 80.0299 71.1333 77.3494 72.9226C73.7754 76.5013 68.4144 79.1853 62.1598 79.1853C49.6508 79.1853 39.8223 69.344 39.8223 56.8186C39.8223 44.2932 49.6508 35.3464 62.1598 35.3464C73.7754 35.3464 75.5624 41.6091 79.1364 43.3985C83.6039 45.1878 100.58 44.2931 100.58 44.2931" stroke="#7973B3" stroke-width="1.5" stroke-miterlimit="10"/>
<path d="M103.261 75.6063C105.235 75.6063 106.835 74.0041 106.835 72.0277C106.835 70.0512 105.235 68.449 103.261 68.449C101.287 68.449 99.687 70.0512 99.687 72.0277C99.687 74.0041 101.287 75.6063 103.261 75.6063Z" fill="#7973B3"/>
<path d="M106.085 72.0277C106.085 73.5908 104.82 74.8563 103.261 74.8563C101.702 74.8563 100.437 73.5908 100.437 72.0277C100.437 70.4645 101.702 69.199 103.261 69.199C104.82 69.199 106.085 70.4645 106.085 72.0277Z" stroke="#A9A5CE" stroke-opacity="0.3" stroke-width="1.5"/>
<path d="M103.261 46.9772C105.235 46.9772 106.835 45.375 106.835 43.3985C106.835 41.4221 105.235 39.8198 103.261 39.8198C101.287 39.8198 99.687 41.4221 99.687 43.3985C99.687 45.375 101.287 46.9772 103.261 46.9772Z" fill="#7973B3"/>
<path d="M106.085 43.3985C106.085 44.9617 104.82 46.2272 103.261 46.2272C101.702 46.2272 100.437 44.9617 100.437 43.3985C100.437 41.8353 101.702 40.5698 103.261 40.5698C104.82 40.5698 106.085 41.8353 106.085 43.3985Z" stroke="#A9A5CE" stroke-opacity="0.3" stroke-width="1.5"/>
<path d="M80.9233 48.7662C84.4974 50.5556 85.3909 63.9756 80.9233 66.6597" stroke="#7973B3" stroke-width="1.5" stroke-miterlimit="10"/>
<path d="M101.883 61.2915C103.857 61.2915 105.457 59.6892 105.457 57.7128C105.457 55.7363 103.857 54.1341 101.883 54.1341C99.9088 54.1341 98.3087 55.7363 98.3087 57.7128C98.3087 59.6892 99.9088 61.2915 101.883 61.2915Z" fill="#7973B3"/>
<path d="M83.6039 57.7129H98.7934" stroke="#7973B3" stroke-width="1.5" stroke-miterlimit="10"/>
</svg>
