<svg width="115" height="114" viewBox="0 0 115 114" fill="none" xmlns="http://www.w3.org/2000/svg">
<path d="M52.1005 113.834C51.6794 113.834 51.3654 113.834 50.9952 113.834C50.7928 113.834 50.6286 113.67 50.6286 113.468C50.6286 113.265 50.7927 113.101 50.9951 113.101C51.6707 113.101 52.3463 113.101 53.0219 113.101C53.2243 113.101 53.3883 113.265 53.3883 113.468C53.3883 113.67 53.2243 113.834 53.0219 113.834C52.7608 113.834 52.4724 113.834 52.1005 113.834ZM47.8689 113.248C47.8689 113.471 47.6885 113.652 47.4665 113.64C46.7902 113.604 46.0995 113.483 45.3222 113.351C45.1084 113.315 44.9704 113.104 45.0232 112.894C45.0714 112.702 45.2615 112.582 45.457 112.613C46.1525 112.721 46.8481 112.75 47.5437 112.86C47.7334 112.89 47.8689 113.056 47.8689 113.248ZM56.6985 113.644C56.4963 113.652 56.332 113.487 56.332 113.284C56.332 113.082 56.4962 112.919 56.6984 112.909C57.3787 112.875 58.059 112.755 58.7394 112.621C58.9368 112.583 59.1302 112.705 59.1792 112.9C59.2317 113.109 59.0986 113.32 58.8868 113.361C58.1973 113.495 57.4934 113.615 56.6985 113.644ZM42.2529 112.569C42.204 112.765 42.0105 112.887 41.8132 112.848C41.1403 112.714 40.4675 112.58 39.7946 112.446C39.583 112.403 39.4498 112.193 39.5023 111.984C39.5513 111.789 39.7447 111.666 39.9421 111.705C40.6149 111.839 41.2878 111.973 41.9606 112.108C42.1722 112.15 42.3055 112.36 42.2529 112.569ZM62.388 112.849C62.1904 112.887 61.997 112.765 61.948 112.569C61.8955 112.36 62.0287 112.15 62.2403 112.108C62.9102 111.974 63.5802 111.841 64.2501 111.707C64.4523 111.667 64.6506 111.792 64.7008 111.992C64.7529 112.2 64.6267 112.41 64.4178 112.456C63.8172 112.587 63.0732 112.718 62.388 112.849ZM36.7503 111.037C36.6951 111.257 36.4589 111.377 36.2449 111.303C35.5609 111.064 34.8769 110.897 34.1929 110.652C34.0163 110.588 33.9204 110.4 33.9661 110.218C34.0213 109.998 34.2575 109.878 34.4714 109.952C35.1555 110.191 35.8395 110.358 36.5235 110.603C36.7001 110.667 36.7959 110.855 36.7503 111.037ZM68.1224 111.363C67.9092 111.419 67.6967 111.284 67.643 111.07C67.5926 110.869 67.6984 110.661 67.8937 110.592C68.5704 110.351 69.2471 110.185 69.9238 109.949C70.1322 109.876 70.3624 109.993 70.4161 110.207C70.4626 110.393 70.3582 110.582 70.1781 110.646C69.3933 110.922 68.7881 111.188 68.1224 111.363ZM31.2721 109.402C31.1873 109.529 31.0252 109.58 30.8842 109.521C30.1801 109.23 29.5706 108.929 28.8735 108.527C28.6973 108.425 28.6458 108.195 28.759 108.026C28.8522 107.887 29.0305 107.831 29.1834 107.9C29.8633 108.205 30.4562 108.597 31.1277 108.911C31.3142 108.998 31.3866 109.231 31.2721 109.402ZM73.4268 109.266C73.2313 109.359 72.9957 109.28 72.8986 109.086C72.7952 108.88 72.8906 108.631 73.1027 108.541C73.7539 108.265 74.333 107.973 74.9924 107.591C75.1553 107.497 75.3643 107.544 75.469 107.7C75.5713 107.853 75.5399 108.059 75.391 108.168C74.7005 108.669 74.0196 108.984 73.4268 109.266ZM26.1521 106.607C26.0559 106.75 25.859 106.784 25.7148 106.688C25.1179 106.293 24.4366 105.981 23.84 105.585C23.6935 105.488 23.6601 105.291 23.7579 105.145C23.8631 104.987 24.0784 104.951 24.2329 105.06C24.8085 105.465 25.4602 105.859 26.0378 106.164C26.1988 106.25 26.2534 106.455 26.1521 106.607ZM78.5071 106.723C78.3481 106.811 78.15 106.758 78.0488 106.607C77.9418 106.447 77.9784 106.23 78.1393 106.125C78.7263 105.739 79.3926 105.432 79.9787 105.045C80.1288 104.946 80.3335 104.981 80.4336 105.13C80.5336 105.28 80.4879 105.483 80.3351 105.577C79.6563 105.998 79.0748 106.408 78.5071 106.723ZM21.4079 103.325C21.2951 103.55 21.0066 103.618 20.806 103.467C20.2679 103.061 19.7299 102.638 19.1918 102.126C19.0697 102.01 19.0515 101.823 19.1453 101.683C19.2576 101.515 19.4876 101.475 19.6493 101.596C20.1958 102.004 20.7422 102.413 21.2887 102.821C21.4454 102.938 21.4957 103.15 21.4079 103.325ZM83.2759 103.557C83.1229 103.671 82.9089 103.656 82.7734 103.521C82.6068 103.355 82.6264 103.08 82.8148 102.939C83.3324 102.553 83.85 102.166 84.3677 101.779C84.5294 101.659 84.7594 101.698 84.8717 101.866C84.9654 102.006 84.9474 102.193 84.8236 102.308C84.3738 102.724 83.8312 103.14 83.2759 103.557ZM17.051 100.001C16.899 100.152 16.6533 100.152 16.4974 100.005C15.9542 99.4914 15.4237 99.0534 14.9808 98.5414C14.8446 98.3838 14.8622 98.1495 15.0098 98.0025C15.1726 97.8404 15.436 97.8405 15.5988 98.0026C16.1062 98.5079 16.5419 98.9419 17.0509 99.4488C17.2038 99.6011 17.2038 99.8486 17.051 100.001ZM87.68 99.8372C87.5389 99.9778 87.3107 99.9777 87.1696 99.8371C87.0132 99.6814 87.0319 99.4232 87.1981 99.278C87.6945 98.8443 88.1243 98.33 88.6257 97.8036C88.7736 97.6483 89.0196 97.6484 89.1716 97.7998C89.3244 97.952 89.3244 98.1995 89.1716 98.3517C88.6386 98.8825 88.1178 99.4012 87.68 99.8372ZM13.1525 95.9007C13.0177 95.9902 12.8368 95.9591 12.7357 95.8327C12.284 95.2677 11.7455 94.7027 11.2888 94.1377C11.1692 93.9897 11.2064 93.7725 11.365 93.6672C11.5108 93.5704 11.7067 93.604 11.8123 93.7436C12.2362 94.3042 12.6724 94.8649 13.2031 95.4255C13.336 95.566 13.3136 95.7938 13.1525 95.9007ZM91.5779 95.7618C91.4208 95.9295 91.1568 95.929 90.994 95.7668C90.8464 95.6198 90.8294 95.3862 90.9605 95.2243C91.4069 94.6731 91.9303 94.1219 92.3741 93.5707C92.4899 93.4269 92.6964 93.3913 92.8502 93.4934C93.0057 93.5967 93.0527 93.8044 92.9532 93.9624C92.5328 94.6299 92.1011 95.203 91.5779 95.7618ZM9.45861 91.4376C9.3393 91.5564 9.14255 91.5425 9.04444 91.4056C8.6244 90.8197 8.20435 90.1518 7.78431 89.5635C7.67371 89.4086 7.7108 89.1915 7.86937 89.0863C8.01517 88.9894 8.21143 89.0227 8.31318 89.1651C8.75781 89.7874 9.18902 90.5028 9.50945 91.1174C9.56482 91.2236 9.54348 91.3531 9.45861 91.4376ZM95.1362 91.3798C95.0454 91.5342 94.8435 91.5797 94.6942 91.4806C94.5434 91.3805 94.5082 91.1741 94.6132 91.0266C95.0236 90.4503 95.4217 89.7962 95.7309 89.217C95.8164 89.0568 96.0212 89.0024 96.1725 89.1028C96.3176 89.1991 96.3512 89.3975 96.2515 89.5403C95.8524 90.1118 95.5382 90.6963 95.1362 91.3798ZM6.62111 86.4946C6.44983 86.6084 6.21714 86.536 6.12953 86.35C5.81126 85.6743 5.41283 85.0785 5.10477 84.3927C5.04175 84.2524 5.09318 84.0887 5.22131 84.0037C5.39259 83.8899 5.62528 83.9623 5.71289 84.1483C6.03115 84.824 6.42959 85.4198 6.73766 86.1056C6.80067 86.2459 6.74924 86.4096 6.62111 86.4946ZM98.0657 86.3622C97.9813 86.5421 97.7566 86.612 97.5911 86.5021C97.4591 86.4145 97.4131 86.2422 97.4867 86.1018C97.7924 85.5182 98.1805 84.8409 98.4914 84.1497C98.5757 83.9622 98.8083 83.8899 98.9796 84.0037C99.1078 84.0887 99.1592 84.2524 99.0962 84.3927C98.7863 85.0827 98.3849 85.6815 98.0657 86.3622ZM4.21809 81.3715C4.05262 81.4814 3.82779 81.4116 3.75431 81.2271C3.47343 80.5218 3.20672 79.8164 3.03813 79.1111C3.00072 78.9546 3.09228 78.7978 3.24503 78.747C3.40486 78.694 3.57878 78.7744 3.63661 78.9325C3.89955 79.6517 4.07187 80.3593 4.33263 80.9662C4.39518 81.1118 4.35009 81.2839 4.21809 81.3715ZM100.452 81.2147C100.375 81.4055 100.143 81.4777 99.9716 81.364C99.8435 81.2789 99.7927 81.1156 99.8499 80.9729C100.129 80.2762 100.399 79.5891 100.577 78.9924C100.633 78.8057 100.825 78.6907 101.014 78.7378C101.222 78.7896 101.336 79.0134 101.256 79.2124C100.988 79.8798 100.72 80.5472 100.452 81.2147ZM2.40857 75.9999C2.2174 76.0475 2.02544 75.9258 1.97843 75.7344C1.81109 75.0535 1.56824 74.3727 1.40089 73.6918C1.35257 73.4952 1.47632 73.3003 1.67278 73.2513C1.8824 73.1991 2.09284 73.3326 2.13618 73.5442C2.27195 74.2071 2.42133 74.8699 2.654 75.5327C2.72345 75.7305 2.61203 75.9493 2.40857 75.9999ZM102.271 75.749C102.202 75.9444 101.994 76.05 101.792 75.9999C101.577 75.9463 101.441 75.7326 101.495 75.5172C101.659 74.8589 101.892 74.2006 102.056 73.5423C102.108 73.3326 102.319 73.1991 102.528 73.2513C102.725 73.3003 102.848 73.4951 102.808 73.6934C102.668 74.3786 102.515 75.0638 102.271 75.749ZM1.06526 70.5902C0.893394 70.5902 0.745238 70.469 0.711763 70.3004C0.575772 69.6156 0.450619 68.9308 0.413135 68.246C0.400924 68.0229 0.582896 67.8417 0.806319 67.8417C0.999038 67.8417 1.16582 67.9775 1.19605 68.1679C1.3013 68.8307 1.33312 69.4935 1.43083 70.1562C1.46405 70.3816 1.29303 70.5902 1.06526 70.5902ZM103.507 70.201C103.467 70.4133 103.256 70.5466 103.046 70.4944C102.85 70.4455 102.727 70.2508 102.766 70.0522C102.899 69.3768 103.02 68.7015 103.054 68.0262C103.064 67.8232 103.228 67.6584 103.431 67.6584C103.634 67.6584 103.8 67.8232 103.79 68.0262C103.757 68.7265 103.639 69.4992 103.507 70.201ZM0.490679 64.7961C0.258526 64.8539 0.0338135 64.6783 0.0338135 64.4391C0.0338135 63.7798 0.0338135 63.1045 0.0338135 62.3461C0.0338135 62.1429 0.198556 61.9781 0.401776 61.9781C0.604996 61.9781 0.769738 62.1428 0.769738 62.346C0.769738 63.0437 0.769738 63.7414 0.769738 64.439C0.769738 64.608 0.654649 64.7553 0.490679 64.7961ZM104.167 64.5419C104.167 64.7452 104.002 64.9099 103.799 64.9099C103.596 64.9099 103.431 64.7451 103.431 64.5419C103.431 63.7484 103.431 62.9548 103.431 62.1613C103.431 62.0601 103.513 61.9781 103.614 61.9781H103.984C104.085 61.9781 104.167 62.0601 104.167 62.1613C104.167 62.7983 104.167 63.7122 104.167 64.5419ZM0.77872 58.8617C0.769313 59.0647 0.604996 59.2295 0.401776 59.2295C0.198556 59.2295 0.0333879 59.0647 0.042795 58.8617C0.0748657 58.1696 0.183308 57.4637 0.211206 56.6657C0.218307 56.4626 0.382537 56.2977 0.585757 56.2977C0.788977 56.2977 0.954232 56.4626 0.947131 56.6657C0.919233 57.4637 0.81079 58.1696 0.77872 58.8617ZM103.71 59.1158C103.546 59.0749 103.432 58.9276 103.426 58.7588C103.4 58.0732 103.293 57.3877 103.258 56.7021C103.247 56.479 103.428 56.2977 103.652 56.2977C103.844 56.2977 104.012 56.4336 104.041 56.624C104.146 57.2995 104.164 57.9868 104.167 58.7586C104.167 58.9978 103.942 59.1736 103.71 59.1158ZM1.39976 53.1604C1.35723 53.3722 1.14647 53.5056 0.936852 53.4534C0.740398 53.4045 0.617133 53.2097 0.656992 53.0112C0.791202 52.3429 0.925411 51.6745 1.05962 51.0062C1.10215 50.7944 1.31291 50.661 1.52253 50.7132C1.71898 50.7621 1.84225 50.9569 1.80239 51.1554C1.66818 51.8237 1.53397 52.492 1.39976 53.1604ZM103.08 53.4534C102.87 53.5056 102.66 53.3722 102.617 53.1604C102.483 52.492 102.349 51.8237 102.215 51.1554C102.175 50.9569 102.298 50.7621 102.494 50.7132C102.704 50.661 102.915 50.7944 102.957 51.0062C103.092 51.6745 103.226 52.3429 103.36 53.0112C103.4 53.2097 103.277 53.4045 103.08 53.4534ZM2.71366 47.6789C2.65146 47.8839 2.4413 48.0102 2.2335 47.9585C2.03213 47.9083 1.90503 47.7085 1.95539 47.5072C2.12007 46.8489 2.36722 46.1907 2.6286 45.5325C2.71689 45.3102 2.9768 45.2116 3.19094 45.3182C3.38213 45.4134 3.46797 45.6394 3.38871 45.8378C3.13005 46.485 2.88319 47.1205 2.71366 47.6789ZM101.942 47.9647C101.751 48.0123 101.559 47.8905 101.512 47.6993C101.346 47.0342 101.096 46.3691 100.832 45.704C100.748 45.4921 100.869 45.2544 101.09 45.1993C101.272 45.154 101.46 45.2497 101.524 45.426C101.774 46.1165 101.942 46.8071 102.187 47.4976C102.257 47.6952 102.146 47.914 101.942 47.9647ZM4.58568 42.4582C4.5079 42.6229 4.32384 42.707 4.14717 42.663C3.91793 42.6059 3.79185 42.3594 3.88024 42.1403C4.13348 41.5126 4.38672 40.8981 4.63996 40.3564C4.73169 40.1602 4.97629 40.0952 5.15673 40.215C5.28412 40.2996 5.3451 40.4554 5.30267 40.6023C5.13243 41.1918 4.86575 41.8656 4.58568 42.4582ZM100.084 42.5178C99.9122 42.6315 99.6797 42.5592 99.5998 42.3697C99.3157 41.696 99.0317 41.1014 98.7476 40.4174C98.6886 40.2754 98.7396 40.1119 98.8677 40.0268C99.039 39.9131 99.2716 39.9855 99.3514 40.1749C99.6355 40.8487 99.9196 41.4432 100.204 42.1272C100.263 42.2693 100.212 42.4327 100.084 42.5178ZM7.04531 37.3167C6.93565 37.4835 6.7113 37.5214 6.54499 37.411C6.39601 37.312 6.33599 37.1216 6.41055 36.959C6.7284 36.266 7.14799 35.6625 7.58001 34.9706C7.67983 34.8107 7.89209 34.7628 8.04911 34.8671C8.19667 34.9651 8.24062 35.1617 8.1532 35.3158C7.75252 36.0217 7.43968 36.7168 7.04531 37.3167ZM97.4604 37.4187C97.3091 37.5191 97.1042 37.4647 97.0188 37.3045C96.7121 36.7299 96.3179 36.0817 95.911 35.5088C95.8008 35.3536 95.8378 35.1367 95.9963 35.0314C96.1421 34.9346 96.3387 34.9678 96.4361 35.1133C96.8334 35.7068 97.1459 36.3848 97.5425 36.9791C97.6391 37.1239 97.6054 37.3224 97.4604 37.4187ZM9.97214 32.5944C9.86707 32.7344 9.671 32.7679 9.5252 32.6711C9.36663 32.5658 9.32957 32.3488 9.44377 32.1965C9.86498 31.6349 10.2862 31.0597 10.7074 30.3895C10.8077 30.2299 11.0198 30.1819 11.1768 30.2862C11.3243 30.3841 11.3688 30.5812 11.2748 30.7313C10.8406 31.4246 10.4064 32.0159 9.97214 32.5944ZM94.4335 32.7766C94.3132 32.8165 94.1808 32.7752 94.1045 32.6739C93.6655 32.0909 93.2264 31.5079 92.7874 30.9249C92.6729 30.7729 92.7101 30.5558 92.8687 30.4505C93.0145 30.3537 93.2105 30.3872 93.3156 30.5271C93.7405 31.0932 94.1654 31.6715 94.5903 32.3457C94.6912 32.5059 94.6132 32.7169 94.4335 32.7766ZM13.5706 28.1481C13.4123 28.3147 13.1488 28.3146 12.986 28.1525C12.8384 28.0055 12.8211 27.7716 12.9529 27.6103C13.4008 27.0624 13.9389 26.528 14.4894 26.0845C14.6383 25.9646 14.8527 25.9804 14.9882 26.1153C15.1548 26.2813 15.1349 26.5564 14.9585 26.7118C14.4771 27.1361 14.0569 27.636 13.5706 28.1481ZM91.0505 28.028C90.8769 28.1577 90.6315 28.1222 90.4943 27.9545C90.0768 27.4438 89.5944 26.9458 89.1734 26.5232C89.0211 26.3704 89.0209 26.1232 89.1738 25.9709C89.3258 25.8196 89.5717 25.8194 89.7196 25.9748C90.1936 26.4724 90.6038 26.9594 91.0666 27.3775C91.2617 27.5537 91.2611 27.8707 91.0505 28.028ZM17.5912 24.093C17.4456 24.2575 17.1892 24.2763 17.0336 24.1213C16.8915 23.9798 16.8912 23.7494 17.0373 23.6121C17.5933 23.0891 18.1493 22.6584 18.7054 22.2409C18.8566 22.1273 19.0721 22.1643 19.1774 22.3215C19.2751 22.4676 19.2412 22.6645 19.1008 22.7702C18.562 23.1757 18.0345 23.5924 17.5912 24.093ZM87.0664 23.9422C86.9612 24.0994 86.7456 24.1364 86.598 24.0182C86.0364 23.5682 85.4748 23.0381 84.9133 22.5907C84.7758 22.4812 84.7418 22.2844 84.8396 22.1383C84.9448 21.9811 85.1604 21.9441 85.308 22.0624C85.8696 22.5123 86.4312 23.0424 86.9927 23.4898C87.1302 23.5994 87.1642 23.7962 87.0664 23.9422ZM21.841 20.5454C21.6867 20.6547 21.4713 20.6179 21.3661 20.4607C21.2683 20.3147 21.302 20.1175 21.443 20.0125C22.0202 19.5828 22.6102 19.153 23.3009 18.7233C23.4583 18.6253 23.6643 18.6718 23.7674 18.8259C23.8705 18.9799 23.8351 19.1878 23.684 19.2951C23.097 19.7119 22.4293 20.1286 21.841 20.5454ZM82.6508 20.4607C82.5456 20.6179 82.3303 20.6547 82.1786 20.5418C81.61 20.1188 81.0278 19.6959 80.348 19.2729C80.1953 19.1779 80.1495 18.9753 80.2495 18.8259C80.3496 18.6764 80.5544 18.6414 80.7011 18.7455C81.2973 19.1688 81.9769 19.5922 82.5718 20.0155C82.715 20.1174 82.7486 20.3147 82.6508 20.4607ZM26.6263 17.49C26.4651 17.5741 26.2673 17.5216 26.1662 17.3704C26.0591 17.2105 26.0956 16.9938 26.2569 16.8888C26.8705 16.4892 27.5842 16.1893 28.308 15.8994C28.4496 15.8426 28.6115 15.893 28.6964 16.0198C28.8109 16.1908 28.7386 16.4241 28.5506 16.508C27.8706 16.8113 27.2042 17.1885 26.6263 17.49ZM77.8431 17.382C77.7511 17.5194 77.5629 17.5512 77.4249 17.46C76.8401 17.0735 76.1618 16.78 75.4695 16.5007C75.2785 16.4237 75.2061 16.1908 75.3206 16.0198C75.4054 15.893 75.5677 15.8421 75.7071 15.9041C76.4099 16.2169 77.0184 16.6236 77.7137 16.9439C77.8807 17.0208 77.9454 17.2291 77.8431 17.382ZM31.7128 15.0337C31.5084 15.1351 31.2547 15.0298 31.1991 14.8085C31.1576 14.6432 31.2449 14.4727 31.4032 14.4095C32.064 14.1457 32.7153 13.8819 33.2884 13.6181C33.5025 13.5195 33.7567 13.6368 33.8141 13.8654C33.8563 14.0335 33.7761 14.2092 33.6166 14.277C33.0453 14.5202 32.3863 14.6996 31.7128 15.0337ZM72.8073 14.7678C72.7525 14.9316 72.5711 15.0157 72.4116 14.9496C71.7065 14.6574 71.0929 14.3651 70.3842 14.0728C70.2422 14.0143 70.1687 13.8562 70.2175 13.7106C70.2702 13.553 70.4446 13.4721 70.599 13.5337C71.3269 13.8243 72.0428 14.1149 72.6552 14.4055C72.7906 14.4698 72.8549 14.6256 72.8073 14.7678ZM37.0474 13.0883C36.8331 13.1621 36.597 13.0417 36.5419 12.822C36.4962 12.64 36.592 12.4515 36.7687 12.3885C37.469 12.1388 38.1693 11.9835 38.8696 11.8417C39.0668 11.8018 39.2603 11.9245 39.3092 12.1196C39.3618 12.3288 39.2285 12.5391 39.017 12.5821C38.3605 12.7155 37.7039 12.862 37.0474 13.0883ZM67.4668 12.672C67.416 12.8741 67.1988 12.9849 67.002 12.9163C66.3346 12.6836 65.6673 12.5344 64.9999 12.3989C64.7885 12.3559 64.6552 12.1456 64.7077 11.9364C64.7567 11.7412 64.9503 11.6184 65.1458 11.6659C65.8311 11.8327 66.5163 12.0753 67.2016 12.2423C67.393 12.2889 67.5147 12.4809 67.4668 12.672ZM42.5178 11.701C42.3205 11.7403 42.127 11.6179 42.078 11.4228C42.0255 11.2136 42.1588 11.0029 42.3703 10.9608C43.0432 10.8268 43.7161 10.6927 44.3889 10.5587C44.5862 10.5194 44.7797 10.6418 44.8287 10.837C44.8812 11.0462 44.7479 11.2568 44.5364 11.2989C43.8635 11.433 43.1906 11.567 42.5178 11.701ZM61.9319 11.531C61.8859 11.6683 61.7451 11.7499 61.603 11.7218C60.9104 11.585 60.2178 11.4575 59.5252 11.4176C59.3054 11.4049 59.1437 11.1977 59.1973 10.9841C59.2412 10.8092 59.4147 10.6995 59.5915 10.7347C60.2995 10.8757 61.0074 11.0167 61.7154 11.1577C61.8852 11.1916 61.9868 11.3668 61.9319 11.531ZM48.0818 10.9715C47.8755 11.0004 47.6849 10.844 47.6849 10.6356C47.6849 10.4532 47.8329 10.3057 48.0151 10.2981C48.7234 10.2685 49.4446 10.1567 50.2621 10.1285C50.4644 10.1216 50.6286 10.2861 50.6286 10.4885C50.6286 10.6909 50.4646 10.8548 50.2622 10.8554C49.5603 10.8577 48.7858 10.8726 48.0818 10.9715ZM56.409 10.7317C56.3638 10.9119 56.2017 11.0391 56.0161 11.0316C55.3236 11.0036 54.6311 10.8956 53.9387 10.8638C53.7365 10.8546 53.5723 10.6909 53.5723 10.4885C53.5723 10.2861 53.7364 10.1218 53.9388 10.1225C54.6156 10.1249 55.3055 10.1403 56.081 10.241C56.3158 10.2715 56.4666 10.502 56.409 10.7317Z" fill="white"/>
<path d="M101.135 62.6951C101.135 62.9024 101.135 63.1098 101.135 63.3172C101.135 63.9392 101.135 64.5613 101.135 65.1834C100.101 84.7604 87.5511 101.265 70.0256 107.982C69.8088 108.065 69.5745 108.116 69.3666 108.219C69.1809 108.312 68.9713 108.346 68.7766 108.417C68.4037 108.554 68.091 108.69 67.72 108.827C67.5136 108.902 67.2911 108.942 67.0943 109.04C66.8974 109.138 66.6757 109.18 66.4659 109.246C65.6051 109.516 64.8308 109.701 63.9954 109.946C63.4942 110.093 62.9752 110.202 62.4667 110.321C62.1552 110.394 61.8354 110.42 61.5214 110.481C60.642 110.653 59.7852 110.803 59.0785 110.803C58.8703 110.803 58.6621 110.803 58.4539 110.803C58.2361 110.803 58.0183 110.803 57.8005 110.832C57.3935 110.888 56.9908 111.01 56.58 111.01C56.1636 111.01 55.7472 111.01 55.3308 111.01C54.2898 111.01 53.2488 111.01 52.2078 111.01C51.1668 111.01 50.1258 111.01 49.0848 111.01C48.6684 111.01 48.252 111.01 47.8356 111.01C47.6273 111.01 47.4192 111.01 47.2109 111.01C46.9326 111.01 46.6543 111.01 46.376 110.948C46.0934 110.885 45.8111 110.803 45.5217 110.803C45.3989 110.803 45.2765 110.79 45.1561 110.767C44.1761 110.572 43.2068 110.388 42.4223 110.388C42.2755 110.388 42.1287 110.362 41.9819 110.329C41.4469 110.207 40.8988 110.145 40.366 110.014C39.5508 109.813 38.7911 109.536 37.9485 109.25C37.7402 109.179 37.5182 109.138 37.3213 109.04C37.1245 108.942 36.902 108.902 36.6956 108.827C36.3246 108.69 36.0119 108.554 35.639 108.417C35.4443 108.346 35.2347 108.312 35.049 108.219C34.8411 108.116 34.6068 108.065 34.39 107.982C16.8645 101.265 4.31483 84.7604 3.28027 65.1834C3.28027 64.7687 3.28027 64.1466 3.28027 63.5245C3.28027 63.3172 3.28027 63.3172 3.28027 63.1098V62.9024C3.28027 62.6951 3.28027 62.6951 3.28027 62.4877C3.28027 61.8656 3.28027 61.2436 3.28027 60.8288C3.28027 60.6215 3.28027 60.4141 3.28027 60.2068V59.9994C3.28027 59.5847 3.28027 59.17 3.28027 58.7552C3.28027 58.5479 3.28027 58.3405 3.28027 58.1332C3.28027 57.9211 3.28027 57.7091 3.3081 57.497C3.36263 57.0816 3.46232 56.6827 3.5145 56.2669C3.56668 55.8512 3.69024 55.425 3.75247 55.0107C3.78717 54.7795 3.83109 54.5484 3.86285 54.3173C3.91183 53.961 3.93848 53.6006 4.00962 53.248C5.04068 48.138 6.64481 43.4043 9.002 39.047C9.07247 38.9167 9.10031 38.7553 9.20489 38.6505C9.32202 38.533 9.36498 38.3596 9.45254 38.2187C10.4491 36.6152 11.4539 34.8464 12.6494 33.4573C12.7879 33.3193 12.9144 33.1699 13.03 33.0121C14.0357 31.6399 15.2274 30.2677 16.6052 28.8954C18.2708 27.0292 20.1447 25.3703 22.2267 23.9188C23.0595 23.2967 24.1005 22.4673 25.1415 21.8452C25.8939 21.3956 26.6463 20.946 27.3201 20.4964C27.8182 20.164 28.3122 19.8211 28.8232 19.5089C28.9062 19.4582 28.9956 19.4076 29.0974 19.3569C29.3896 19.2113 29.5793 19.0658 29.8105 18.9202C30.0217 18.7872 30.2273 18.6387 30.4507 18.5274C30.6741 18.4162 30.8769 18.2633 31.1002 18.1521C31.2583 18.0734 31.4164 17.9947 31.5745 17.9159C31.8624 17.7726 32.2007 17.7175 32.4286 17.4906C32.5648 17.3549 32.7902 17.308 32.9881 17.2337C33.1853 17.1597 33.356 17.0228 33.5562 16.9574C33.6037 16.9419 33.6504 16.9279 33.6961 16.9147C34.1049 16.797 34.5017 16.4538 34.927 16.4538C34.961 16.4538 34.9949 16.4483 35.0289 16.4391C35.3848 16.3423 35.722 16.1553 36.0721 16.0391C36.1426 16.0157 36.213 15.9923 36.2882 15.9642C36.4928 15.8877 36.7094 15.8254 36.9049 15.7281C37.1004 15.6307 37.3173 15.5676 37.5257 15.5025C37.6899 15.4511 37.854 15.4161 38.0181 15.372C38.3243 15.2897 38.6243 15.1798 38.9342 15.1131C39.3664 15.0201 39.771 14.921 40.1829 14.7983C40.9868 14.5589 41.7917 14.1729 42.6305 14.1729C43.0469 14.1729 43.4633 13.9655 43.8797 13.9655C44.5043 13.9655 45.1289 13.7581 45.7535 13.7581C45.9713 13.7581 46.1891 13.7581 46.4069 13.7285C46.8139 13.673 47.2166 13.5508 47.6273 13.5508C48.0438 13.5508 48.4602 13.5508 48.8766 13.5508C49.9176 13.5508 50.9586 13.5508 51.9996 13.5508C53.0406 13.5508 54.0816 13.5508 55.1226 13.5508C55.539 13.5508 55.9554 13.5508 56.3718 13.5508C56.58 13.5508 56.7882 13.5508 56.9965 13.5508C57.8378 13.5508 58.6813 13.7936 59.5139 13.9145C59.7157 13.9438 59.9176 13.9655 60.1195 13.9655C60.5359 13.9655 60.9523 14.1729 61.3687 14.1729C61.4626 14.1729 61.5565 14.1834 61.6504 14.1997C62.2966 14.3121 62.9441 14.4357 63.5817 14.5896C64.2225 14.7444 64.8302 14.9298 65.5327 15.2097C65.8463 15.3658 66.1599 15.4044 66.4735 15.5025C66.6819 15.5676 66.8988 15.6307 67.0943 15.7281C67.2897 15.8254 67.5064 15.8877 67.711 15.9642C67.7862 15.9923 67.8566 16.0157 67.9271 16.0391C68.2772 16.1553 68.6144 16.3423 68.9703 16.4391C69.0043 16.4483 69.0382 16.4538 69.0722 16.4538C69.509 16.4538 69.9043 16.7551 70.3238 16.8767C70.4938 16.926 70.6392 16.9777 70.7378 17.0759C70.8669 17.2045 71.0762 17.2534 71.2662 17.3214C71.4779 17.3972 71.681 17.4205 71.8513 17.5674C71.9204 17.6271 72.0287 17.7187 72.1104 17.7594C72.3732 17.8903 72.6361 18.0212 72.8989 18.1521C73.1223 18.2633 73.3251 18.4162 73.5485 18.5274C73.7719 18.6387 73.9775 18.7872 74.1887 18.9202C74.4199 19.0658 74.6096 19.2113 74.9018 19.3569C75.3183 19.5642 75.5265 19.7716 75.9429 19.9789C76.9839 20.601 78.0249 21.2231 78.8577 21.8452C79.8987 22.4673 80.7315 23.0893 81.7725 23.9188C83.8545 25.3703 85.7284 27.2365 87.394 28.8954C88.6136 30.3125 89.8332 31.532 91.0528 33.1327C91.1121 33.2105 91.1764 33.2846 91.2457 33.3537C91.315 33.4227 91.3795 33.4966 91.438 33.5749C92.5947 35.1229 93.5743 36.6709 94.5461 38.2189C94.6343 38.3594 94.6772 38.533 94.7943 38.6505C94.8989 38.7553 94.9267 38.9167 94.9973 39.0469C97.3124 43.3163 99.0781 47.9471 99.9557 52.9392C100.054 53.4967 100.209 54.0466 100.267 54.6097C100.303 54.9548 100.303 55.2998 100.303 55.6448C100.303 56.0596 100.511 56.4743 100.511 56.889C100.511 57.1061 100.511 57.3231 100.541 57.5402C100.596 57.9454 100.719 58.3462 100.719 58.7552C100.719 59.5771 100.923 60.3839 101.052 61.1956C101.135 61.7232 101.135 62.2091 101.135 62.6951Z" fill="white"/>
<path d="M52.2078 103.13C74.6303 103.13 92.8073 85.0268 92.8073 62.6951C92.8073 40.3633 74.6303 22.2599 52.2078 22.2599C29.7854 22.2599 11.6084 40.3633 11.6084 62.6951C11.6084 85.0268 29.7854 103.13 52.2078 103.13Z" fill="#7973B3"/>
<path d="M52.2079 94.6286C69.9159 94.6286 84.2711 80.3315 84.2711 62.6951C84.2711 45.0588 69.9159 30.7617 52.2079 30.7617C34.4999 30.7617 20.1448 45.0588 20.1448 62.6951C20.1448 80.3315 34.4999 94.6286 52.2079 94.6286Z" fill="white"/>
<path d="M52.2078 86.9562C65.6613 86.9562 76.5675 76.0941 76.5675 62.6951C76.5675 49.296 65.6613 38.434 52.2078 38.434C38.7543 38.434 27.8481 49.296 27.8481 62.6951C27.8481 76.0941 38.7543 86.9562 52.2078 86.9562Z" fill="#7973B3"/>
<path d="M52.2078 79.906C61.6368 79.906 69.2804 72.2932 69.2804 62.9024C69.2804 53.5117 61.6368 45.8989 52.2078 45.8989C42.7789 45.8989 35.1353 53.5117 35.1353 62.9024C35.1353 72.2932 42.7789 79.906 52.2078 79.906Z" fill="white"/>
<path d="M52.2078 70.3674C56.6923 70.3674 60.3277 66.7467 60.3277 62.2804C60.3277 57.8141 56.6923 54.1934 52.2078 54.1934C47.7233 54.1934 44.0879 57.8141 44.0879 62.2804C44.0879 66.7467 47.7233 70.3674 52.2078 70.3674Z" fill="#7973B3"/>
<path d="M100.628 5.13929C102.355 3.41946 105.299 4.64254 105.299 7.07968C105.299 8.59215 106.525 9.81826 108.038 9.81826C110.48 9.81826 111.701 12.7736 109.97 14.4972L102.468 21.9692C101.085 23.3462 99.1978 24.0947 97.2472 24.0391L96.6656 24.0226C94.3359 23.9563 92.0819 24.8534 90.4349 26.5025L53.8734 63.1098C53.6474 63.3348 53.2989 63.4377 52.9275 63.4185C52.2704 63.3846 51.6663 62.8569 51.6882 62.1992C51.6886 62.1858 51.6892 62.1724 51.69 62.159C51.7272 61.5099 52.2309 61.0119 52.6904 60.5518L88.5809 24.6164C90.2154 22.9798 91.104 20.7424 91.0377 18.4303L91.0219 17.8805C90.9654 15.9115 91.7248 14.0066 93.1205 12.6166L100.628 5.13929Z" fill="white"/>
<path d="M92.4128 22.8206L107.014 8.21924" stroke="#7973B3" stroke-width="2"/>
</svg>
