<svg width="104" height="75" viewBox="0 0 104 75" fill="none" xmlns="http://www.w3.org/2000/svg">
<path d="M73.0566 74.0404C58.9577 74.0404 44.8588 74.0404 30.7599 74.0404C30.1361 68.137 33.6296 59.1591 40.6167 54.9775C42.613 56.6993 44.9836 58.0522 47.6037 58.6671C50.0991 59.2821 52.5945 59.405 54.9651 58.9131C57.71 58.2982 60.3302 57.1913 62.4513 55.3465C62.8256 55.1005 63.0751 54.9775 63.4494 55.2235C65.0714 56.4534 66.5686 57.6832 67.8163 59.2821C69.6879 61.4958 70.9356 64.0785 71.8089 66.7842C72.4328 68.629 72.6823 70.4738 72.8071 72.3186C73.0566 72.8105 73.0566 73.4255 73.0566 74.0404Z" fill="#7973B3"/>
<path d="M103.375 66.5381C101.504 66.5381 99.7571 66.5381 98.1351 66.5381C93.5187 66.5381 88.9022 66.5381 84.2858 66.5381C80.7922 66.5381 77.2987 66.5381 73.8052 66.5381C73.6804 66.5381 73.4309 66.4151 73.3061 66.2921C72.6822 63.9554 71.5593 61.8646 70.1869 60.0198C68.8144 57.9291 67.0676 56.2073 64.9466 54.7314C64.5722 54.4855 64.3227 54.2395 64.697 53.7475C66.0695 51.6568 67.6915 49.935 69.6878 48.4591C69.6878 48.4591 69.8125 48.3362 69.9373 48.3362C71.0602 47.7212 70.9355 47.7212 71.9336 48.4591C73.5556 49.689 75.3024 50.6729 77.2987 51.1648C80.2932 52.0257 83.2876 52.1487 86.4068 51.4108C88.4031 50.9189 90.2747 49.935 91.8967 48.8281C92.271 48.5821 92.6453 48.3362 93.0196 47.9672C93.2691 47.7212 93.5187 47.7212 93.7682 47.8442C96.6379 49.812 98.8838 52.2717 100.506 55.3464C101.753 57.6831 102.627 60.1428 103.001 62.7255C103.251 63.8324 103.251 65.1853 103.375 66.5381Z" fill="#7973B3"/>
<path d="M0.440994 66.5382C0.690532 58.5441 3.80976 52.1488 10.4225 47.4753C11.795 48.7052 13.2922 49.6891 14.7894 50.304C17.4096 51.4109 20.1545 51.9028 22.8994 51.6569C26.393 51.4109 29.5122 50.0581 32.2571 47.8443C32.6314 47.4753 32.881 47.4753 33.38 47.7213C34.8773 48.8282 36.3745 50.0581 37.4974 51.5339C38.1213 52.2718 38.7451 53.1327 39.3689 53.8706C38.6203 54.4856 37.8717 55.1005 37.1231 55.7154C35.3763 57.3142 33.8791 59.036 32.7562 61.1268C31.758 62.6026 31.1342 64.3244 30.5103 66.0463C30.3856 66.2922 30.2608 66.4152 30.0113 66.4152C27.5159 66.4152 25.1453 66.4152 22.6499 66.4152C18.6573 66.4152 14.5399 66.4152 10.5473 66.4152C7.17853 66.5382 3.80976 66.5382 0.440994 66.5382Z" fill="#7973B3"/>
<path d="M34.1286 35.4226C34.2534 42.1869 28.514 47.8442 21.527 47.7212C14.7894 47.5982 9.17482 42.3098 9.17482 35.4226C9.17482 28.6584 14.7894 23.001 22.026 23.247C28.514 23.247 34.1286 28.5354 34.1286 35.4226Z" fill="#7973B3"/>
<path d="M94.5169 35.2995C94.5169 42.3097 88.7775 47.5981 82.2895 47.5981C75.1777 47.7211 69.5631 42.0637 69.6878 35.1765C69.6878 28.4123 75.3025 22.7549 82.5391 23.0009C89.0271 23.2469 94.5169 28.5353 94.5169 35.2995Z" fill="#7973B3"/>
<path d="M51.8459 30.6261C58.9577 30.5031 64.4475 36.5295 64.3228 43.0477C64.198 49.812 58.4586 55.2233 51.7211 55.1004C44.734 54.9774 39.369 49.443 39.4937 42.6788C39.4937 35.7915 45.1083 30.5031 51.8459 30.6261Z" fill="#7973B3"/>
<path d="M65.1961 0.617432H37.8716C34.3781 0.617432 31.6332 3.32313 31.6332 6.76674V15.9907C31.6332 19.4343 34.3781 22.14 37.8716 22.14H48.7266L52.3449 26.9365L55.3393 22.14H65.1961C68.6896 22.14 71.4345 19.4343 71.4345 15.9907V6.76674C71.4345 3.44611 68.6896 0.617432 65.1961 0.617432Z" fill="#7973B3"/>
</svg>
