<svg width="61" height="99" viewBox="0 0 61 99" fill="none" xmlns="http://www.w3.org/2000/svg">
<path d="M56.1023 12.1968C53.6462 12.1968 51.6542 14.1952 51.6542 16.6617V36.0114C51.6542 36.8325 50.9878 37.5003 50.1711 37.5003C49.3545 37.5003 48.6884 36.8325 48.6884 36.0114V7.73139C48.6884 5.26466 46.6955 3.26601 44.2396 3.26601C41.7838 3.26601 39.7912 5.26487 39.7912 7.73139V33.0349C39.7912 33.8558 39.125 34.5232 38.3082 34.5232C37.4915 34.5232 36.8251 33.8558 36.8251 33.0349V4.75468C36.8247 2.28796 34.834 0.289307 32.3766 0.289307C29.9191 0.289307 27.9281 2.28816 27.9281 4.75468V33.0352C27.9281 33.856 27.2632 34.5234 26.4454 34.5234C25.627 34.5234 25.4931 33.856 25.4931 33.0352V10.7083C25.4931 8.24137 23.502 6.24293 21.0444 6.24293C18.5869 6.24293 16.5957 8.24158 16.5957 10.7083C16.5957 10.7083 16.6369 27.1043 16.6369 28.7824C16.6369 30.4606 17.1787 31.1399 17.4467 31.4939C20.7914 35.9161 23.948 40.0868 24.3937 40.6657C26.9234 43.9512 27.1584 42.4991 33.4563 44.0095C33.4608 44.01 33.4643 44.0116 33.4681 44.0122C33.4688 44.0128 33.4696 44.0128 33.4704 44.0132C33.4712 44.0136 33.4712 44.0136 33.4712 44.0136C33.8728 44.1061 34.2659 44.2208 34.6509 44.3545C37.76 45.4253 44.8527 48.0607 44.8527 48.0607C46.1924 48.5392 46.9127 49.9274 46.4648 51.1668C46.0044 52.3958 44.5565 53.0093 43.2057 52.5343C43.2057 52.5343 40.349 51.7085 40.0626 51.6215C39.7762 51.534 38.9993 51.3855 39.682 52.2721C40.3647 53.1585 48.848 64.1748 48.848 64.1748C49.5064 65.0292 49.3496 66.2565 48.4986 66.9156C47.648 67.5764 46.4253 67.419 45.7678 66.5649L39.8153 58.8358C39.5959 58.5514 39.3719 58.356 39.0884 58.5752C38.8055 58.7955 38.7531 59.2044 38.9721 59.4898L46.5121 69.2806C47.1698 70.1348 47.0138 71.3611 46.1625 72.0217C45.3117 72.6819 44.09 72.5247 43.4323 71.6709L35.8911 61.8788C35.6724 61.5951 35.2642 61.5425 34.9811 61.7619C34.6986 61.9812 34.6456 62.3917 34.8644 62.6759L41.6114 71.4367C42.2687 72.2906 42.1117 73.5188 41.2616 74.1775C40.411 74.8379 39.1883 74.6805 38.5312 73.8266L30.9906 64.0353C30.7719 63.7507 30.3633 63.6991 30.0808 63.919C29.7979 64.1376 29.7447 64.5479 29.9642 64.8323L35.1228 71.5314C35.7809 72.3856 35.6237 73.612 34.7729 74.273C33.9234 74.9318 32.7003 74.7761 32.0421 73.9221C32.0421 73.9221 22.6039 61.6649 21.3275 60.0074C21.304 59.9774 21.2792 59.9447 21.2545 59.911C17.0281 54.3564 19.4672 51.7457 16.6578 47.8007L16.2909 47.3093C15.4512 46.2126 14.0934 44.388 12.5233 42.2601L10.591 39.6705C8.81131 36.9176 5.33865 35.9944 2.79414 37.5716C0.258425 39.185 -0.37146 42.7042 1.38514 45.4485C1.38514 45.4485 10.5413 60.1641 14.6684 66.4607C15.1798 67.2423 15.731 68.0014 16.3274 68.7333C16.3278 68.7337 16.328 68.7343 16.3284 68.7347C16.3292 68.7359 16.3302 68.7367 16.3306 68.7376C16.3368 68.7452 16.3429 68.7528 16.3486 68.76C21.3003 75.1445 24.5711 80.795 24.5711 86.3646C24.5711 88.2587 24.5423 92.4945 24.4907 95.0745C24.46 96.6168 24.1151 98.4426 26.8446 98.4426C29.5742 98.4426 47.8251 98.4426 49.6355 98.4426C51.9555 98.4426 51.8998 96.6973 51.9188 95.9311C52.1538 86.4708 51.9794 93.5398 51.9794 86.3648C51.9794 74.4516 60.4535 73.5208 60.5485 57.1274C60.5503 57.0315 60.5512 56.9384 60.5512 56.8503C60.5512 52.0648 60.5512 16.6621 60.5512 16.6621C60.5512 14.1952 58.5581 12.1968 56.1023 12.1968Z" fill="#7973B3"/>
</svg>
