<svg width="74" height="51" viewBox="0 0 74 51" fill="none" xmlns="http://www.w3.org/2000/svg">
<path d="M68.6306 0.638428C71.0655 0.638428 73.0258 2.76302 73.0258 5.40209V45.4168C73.0258 48.0559 71.0655 50.1805 68.6306 50.1805H5.34064C2.90573 50.1805 0.945506 48.0559 0.945506 45.4168V5.40209C0.945506 2.76302 2.90573 0.638428 5.34064 0.638428H68.6306ZM32.618 12.0117C31.4434 11.9701 30.4828 13.4891 30.9423 14.6615L39.7326 39.4325C40.0653 40.365 41.1512 40.8919 42.0126 40.5341C42.8739 40.1762 43.3566 38.9976 43.0289 38.0629L34.2387 13.2919C33.7886 12.5054 33.3401 12.0298 32.618 12.0117ZM26.8768 16.7753C26.4974 16.718 26.0834 16.8145 25.6407 17.0135L11.5762 24.6354C10.9887 24.9468 10.5873 25.6533 10.5873 26.3622C10.5873 27.0711 10.9887 27.7478 11.5762 28.0592L25.6407 35.6811C26.4677 36.1332 27.586 35.7141 28.0031 34.8177C28.4202 33.9213 28.0609 32.7093 27.2339 32.2572L16.3285 26.3622L27.2339 20.4374C27.9342 20.0912 28.3809 19.2052 28.2503 18.3831C28.0351 17.3748 27.5092 16.8708 26.8768 16.7753ZM47.534 16.8349C46.7176 16.8784 45.9279 17.5061 45.7759 18.264C45.5904 19.1096 46.0103 20.0705 46.7373 20.4374L57.6428 26.3622L46.7373 32.2572C45.9103 32.7093 45.5511 33.9213 45.9682 34.8177C46.3853 35.7141 47.5036 36.1332 48.3306 35.6811L62.395 28.0592C62.9826 27.7478 63.3839 27.0711 63.3839 26.3622C63.3839 25.6533 62.9826 24.9468 62.395 24.6354L48.3306 17.0135C48.0757 16.8842 47.8061 16.8203 47.534 16.8349Z" fill="#7973B3"/>
</svg>
