<svg width="25" height="23" viewBox="0 0 25 23" fill="none" xmlns="http://www.w3.org/2000/svg">
<path d="M10.3195 13.1466C7.98047 11.0394 7.45232 8.93216 7.33317 8.08791C7.29988 7.85447 7.38905 7.62037 7.57443 7.45453L9.46731 5.75004C9.74575 5.49935 9.79516 5.10866 9.58646 4.80797L6.57264 0.592035C6.34175 0.259072 5.86765 0.138903 5.4779 0.314551L0.639662 2.36732C0.32449 2.50713 0.139109 2.80881 0.174894 3.12365C0.428404 5.29328 1.47836 10.6268 7.29642 15.8685C13.1145 21.1103 19.0339 22.0558 21.4435 22.2841C21.793 22.3164 22.1279 22.1494 22.2831 21.8654L24.5617 17.5068C24.756 17.1564 24.6235 16.7304 24.2554 16.5221L19.5756 13.8077C19.242 13.6195 18.8084 13.6637 18.5299 13.9143L16.6378 15.6196C16.4538 15.7866 16.1939 15.8669 15.9348 15.8369C14.9976 15.7296 12.6586 15.2538 10.3195 13.1466Z" fill="white"/>
<path d="M19.6079 12.0117C19.1412 12.0117 18.7628 11.6708 18.7628 11.2504C18.7589 8.09859 15.9237 5.54442 12.4251 5.54086C11.9584 5.54086 11.58 5.20002 11.58 4.77958C11.58 4.35914 11.9584 4.01831 12.4251 4.01831C16.8567 4.02272 20.448 7.25806 20.4529 11.2504C20.4529 11.6708 20.0746 12.0117 19.6079 12.0117Z" fill="white"/>
<path d="M23.833 12.0116C23.3663 12.0116 22.988 11.6708 22.988 11.2504C22.9815 5.99732 18.2561 1.74033 12.4251 1.73446C11.9584 1.73446 11.58 1.39363 11.58 0.973187C11.58 0.552748 11.9584 0.211914 12.4251 0.211914C19.1891 0.218627 24.6706 5.15678 24.6781 11.2504C24.6781 11.4523 24.589 11.6459 24.4306 11.7887C24.2721 11.9314 24.0572 12.0116 23.833 12.0116Z" fill="white"/>
</svg>
