<svg width="93" height="79" viewBox="0 0 93 79" fill="none" xmlns="http://www.w3.org/2000/svg">
<path d="M92.4957 38.7032C92.4957 39.4887 91.8589 40.1256 91.0733 40.1256C90.2878 40.1256 89.6509 39.4887 89.6509 38.7032C89.6509 37.9176 90.2878 37.2808 91.0733 37.2808C91.8589 37.2808 92.4957 37.9176 92.4957 38.7032Z" fill="white" stroke="#7973B3"/>
<path d="M39.3701 68.3239C55.2759 68.3239 68.1701 55.4297 68.1701 39.5239C68.1701 23.6181 55.2759 10.7239 39.3701 10.7239C23.4643 10.7239 10.5701 23.6181 10.5701 39.5239C10.5701 55.4297 23.4643 68.3239 39.3701 68.3239Z" fill="#7973B3"/>
<path d="M39.3701 61.124C51.2995 61.124 60.9701 51.4533 60.9701 39.524C60.9701 27.5946 51.2995 17.924 39.3701 17.924C27.4408 17.924 17.7701 27.5946 17.7701 39.524C17.7701 51.4533 27.4408 61.124 39.3701 61.124Z" fill="#A9A5CE" fill-opacity="0.3"/>
<path d="M90.0869 38.4511C88.1213 38.7823 78.6245 36.1039 77.0621 47.1199C74.7941 63.1327 58.7885 78.1735 38.0021 77.6695C17.6549 77.1727 1.05173 59.2303 1.05173 39.1711C1.05173 18.4999 17.3957 1.41431 37.7501 1.41431C43.1141 1.41431 52.8917 2.35751 62.8565 9.44231" stroke="#7973B3" stroke-miterlimit="10"/>
<circle cx="39.3701" cy="39.7031" r="15.5" fill="white"/>
</svg>
