<svg width="1002" height="356" viewBox="0 0 1002 356" fill="none" xmlns="http://www.w3.org/2000/svg">
<g opacity="0.3">
<path d="M303.975 267.674L358.663 0.0959473H419.942L337.911 355.565H278.829L211.202 96.0432L142.11 355.565H82.784L0.752747 0.0959473H62.032L117.208 267.186L185.079 0.0959473H236.837L303.975 267.674Z" fill="#A9A5CE" fill-opacity="0.3"/>
<path d="M672.872 196.873H526.876V306.248H697.53V355.565H465.108V0.0959473H695.821V49.9006H526.876V148.045H672.872V196.873Z" fill="#A9A5CE" fill-opacity="0.3"/>
<path d="M747.823 355.565V0.0959473H869.649C909.851 0.0959473 940.45 8.15259 961.446 24.2659C982.442 40.3792 992.94 64.3863 992.94 96.2874C992.94 112.563 988.546 127.212 979.757 140.233C970.968 153.253 958.11 163.345 941.182 170.506C960.388 175.714 975.199 185.561 985.616 200.047C996.195 214.37 1001.49 231.623 1001.49 251.805C1001.49 285.171 990.743 310.806 969.259 328.709C947.937 346.613 917.338 355.565 877.462 355.565H747.823ZM809.591 195.164V306.248H878.194C897.563 306.248 912.699 301.447 923.604 291.844C934.509 282.241 939.962 268.895 939.962 251.805C939.962 214.858 921.082 195.978 883.321 195.164H809.591ZM809.591 149.754H870.138C889.343 149.754 904.317 145.441 915.059 136.815C925.964 128.026 931.417 115.656 931.417 99.7053C931.417 82.1272 926.371 69.4319 916.28 61.6194C906.352 53.8069 890.808 49.9006 869.649 49.9006H809.591V149.754Z" fill="#A9A5CE" fill-opacity="0.3"/>
</g>
</svg>
