<svg width="40" height="41" viewBox="0 0 40 41" fill="none" xmlns="http://www.w3.org/2000/svg">
<path d="M20.8539 37.4839C20.9534 37.4783 21.0502 37.4727 21.1496 37.4614C21.2491 37.4558 21.3459 37.4502 21.4454 37.4389C21.4675 37.4389 21.4896 37.4389 21.5089 37.4333C21.672 37.422 21.8323 37.4052 21.9953 37.3827L22.8188 40.5073L27.4755 39.2389L26.6464 36.1143C26.9642 35.9765 27.2765 35.8274 27.5805 35.6699C27.6164 35.653 27.6413 35.6362 27.6827 35.6193C27.785 35.5602 27.8928 35.504 27.995 35.4449C28.0669 35.4027 28.1415 35.3662 28.2078 35.324C28.2493 35.3015 28.2769 35.2818 28.3156 35.2649L30.2639 37.8242L34.0694 34.8206L32.121 32.2669C32.1266 32.2613 32.1321 32.2556 32.1404 32.25C32.2233 32.1572 32.3145 32.0644 32.4002 31.9631C32.4416 31.9153 32.472 31.8816 32.5135 31.8366C32.5743 31.7663 32.6378 31.6903 32.6931 31.6228C32.7511 31.5525 32.8175 31.4766 32.8755 31.4091C32.9087 31.3641 32.9446 31.3219 32.9833 31.2769C33.0634 31.1785 33.1463 31.08 33.2209 30.976C33.2265 30.9704 33.232 30.9647 33.2375 30.9591L35.99 32.5734L38.3971 28.3323L35.6446 26.7124C35.6557 26.6702 35.6722 26.6364 35.6888 26.597C35.7192 26.5211 35.7469 26.4424 35.7745 26.3664C35.8187 26.2511 35.8546 26.1414 35.8933 26.0261C35.9099 25.9867 35.921 25.9502 35.9403 25.9108C36.0453 25.5818 36.1476 25.2527 36.2388 24.9124L39.4003 25.3202L40 20.4603L36.844 20.0525C36.8385 19.8866 36.8329 19.7235 36.8274 19.5576C36.8219 19.5351 36.8219 19.5069 36.8219 19.4872C36.8164 19.3888 36.8108 19.2904 36.8053 19.1919C36.7943 19.0879 36.7887 18.9895 36.7832 18.8882C36.7777 18.8657 36.7777 18.8432 36.7721 18.8235C36.7611 18.6548 36.7445 18.4917 36.7224 18.3257L39.7983 17.4876L38.5464 12.7543L35.4788 13.5896C35.3406 13.269 35.1941 12.9512 35.0477 12.6418C35.0256 12.6053 35.0062 12.5743 34.9896 12.5378C34.9344 12.4309 34.8819 12.3212 34.8211 12.2143C34.7824 12.144 34.7464 12.0681 34.7022 11.9978C34.6912 11.964 34.6691 11.9303 34.6469 11.8937L37.1618 9.90815L34.2186 6.03826L31.7037 8.02102C31.6982 8.01539 31.6927 8.00977 31.6872 8.00414C31.596 7.91696 31.5075 7.82696 31.4025 7.73978C31.3638 7.7004 31.3224 7.66103 31.2782 7.62165C31.2091 7.55978 31.1372 7.49791 31.0681 7.43603C31.0073 7.37697 30.9327 7.31229 30.8581 7.25323C30.8166 7.21385 30.7752 7.18292 30.7282 7.14354C30.6315 7.06198 30.5375 6.97761 30.4353 6.89605C30.4297 6.89324 30.4242 6.88761 30.4187 6.88199L32.0022 4.07801L27.8347 1.6312L26.2429 4.43518C26.2098 4.42112 26.1766 4.40425 26.1351 4.39019C26.0633 4.36206 25.9804 4.33112 25.903 4.303C25.7897 4.258 25.6819 4.21863 25.5686 4.17644C25.5299 4.16519 25.4968 4.15113 25.4636 4.13707C25.1403 4.02457 24.8114 3.92051 24.4825 3.83333L24.8832 0.618732L20.105 0L19.7043 3.21459C19.5412 3.21741 19.381 3.22303 19.2179 3.23147C19.1958 3.23428 19.1709 3.23428 19.1488 3.23428C19.0493 3.23991 18.9526 3.25116 18.8559 3.25678C18.7564 3.26241 18.6569 3.26803 18.5602 3.27647C18.5381 3.27928 18.516 3.28209 18.4966 3.2849C18.3336 3.29897 18.1705 3.31584 18.0075 3.33553L17.1839 0.210931L12.5328 1.47652L13.3564 4.60112C13.0413 4.73893 12.729 4.8908 12.4223 5.04267C12.3891 5.06235 12.3532 5.07923 12.32 5.09892C12.2122 5.15516 12.1072 5.2086 12.0022 5.26766C11.9331 5.30703 11.8613 5.34641 11.7894 5.38578C11.7535 5.40547 11.7176 5.42516 11.6844 5.44765L9.73332 2.88835L5.93063 5.89202L7.88172 8.45132C7.87343 8.45413 7.8679 8.46257 7.86514 8.46819C7.7767 8.55819 7.69103 8.65381 7.6026 8.75225C7.56391 8.79162 7.52522 8.83662 7.48653 8.88162C7.42573 8.9463 7.36493 9.01661 7.30413 9.08692C7.24333 9.15724 7.18253 9.23317 7.12174 9.30067C7.08581 9.34848 7.05265 9.39067 7.01396 9.43567C6.93381 9.5341 6.85367 9.63816 6.77353 9.73659C6.77076 9.74222 6.76523 9.74784 6.75971 9.75628L4.00442 8.13914L1.59735 12.3803L4.35263 13.9974C4.33881 14.0396 4.325 14.0733 4.30841 14.1127C4.27802 14.1887 4.25038 14.273 4.21998 14.3461C4.17853 14.4586 4.13707 14.574 4.09838 14.6893C4.08733 14.7286 4.07351 14.7596 4.05969 14.7989C3.94639 15.128 3.8469 15.4599 3.7557 15.7974L0.599696 15.3896L0 20.2522L3.156 20.6572C3.15877 20.8288 3.16429 20.9947 3.17259 21.1578C3.17259 21.1803 3.17259 21.2028 3.17535 21.2225C3.17811 21.3294 3.1864 21.4278 3.19469 21.5263C3.20022 21.6275 3.20575 21.7259 3.2168 21.8244C3.2168 21.8469 3.21957 21.8694 3.22233 21.8862C3.23615 22.055 3.25273 22.2209 3.27207 22.3812L0.198977 23.225L1.44535 27.9611L4.51845 27.1202C4.65386 27.4351 4.80033 27.7614 4.95509 28.0707C4.97167 28.1073 4.98825 28.1354 5.0076 28.1748C5.06287 28.2789 5.11814 28.3886 5.17341 28.4898C5.2121 28.5657 5.25079 28.6417 5.28948 28.7092C5.30883 28.7514 5.32818 28.7795 5.34752 28.8189L2.83543 30.8016L5.78416 34.6743L8.29626 32.6859C8.30178 32.6916 8.30731 32.6972 8.31284 32.7028C8.40403 32.7956 8.498 32.8828 8.59196 32.9756C8.63341 33.0178 8.67486 33.0487 8.71632 33.0909C8.78541 33.1528 8.8545 33.2175 8.92635 33.2737C8.99544 33.3328 9.06453 33.3947 9.13638 33.4593C9.1806 33.4931 9.22482 33.5297 9.26627 33.569C9.36576 33.6506 9.46248 33.735 9.56197 33.8109C9.5675 33.8165 9.57303 33.8221 9.57856 33.8278L7.9895 36.6289L12.1597 39.0786L13.7488 36.2774C13.7875 36.2886 13.8234 36.3055 13.8621 36.3224C13.9367 36.3533 14.0141 36.3814 14.0915 36.4096C14.2048 36.4546 14.3153 36.4911 14.4286 36.5305C14.4646 36.5474 14.5005 36.5586 14.5392 36.5699C14.8625 36.6852 15.1914 36.7892 15.5202 36.8821L15.1223 40.091L19.8977 40.7098L20.2957 37.4924C20.4588 37.4924 20.6218 37.4867 20.7849 37.4755C20.8097 37.4839 20.8318 37.4839 20.8539 37.4839Z" fill="#545452"/>
</svg>
