<svg width="142" height="177" viewBox="0 0 142 177" fill="none" xmlns="http://www.w3.org/2000/svg">
<g opacity="0.5">
<path fill-rule="evenodd" clip-rule="evenodd" d="M139.728 134.259L141.443 55.4192L129.094 59.8754L128.751 84.213L117.432 89.012L117.089 113.007L89.3041 125.004V158.597L139.728 134.259Z" fill="#EBECED"/>
<path fill-rule="evenodd" clip-rule="evenodd" d="M141.443 55.4192L75.2402 43.079L22.072 60.561L37.851 63.9888L78.3274 50.2774L129.094 59.8754L141.443 55.4192Z" fill="#C6C7C6"/>
<path fill-rule="evenodd" clip-rule="evenodd" d="M24.1301 139.401L89.304 158.597V125.004L53.6299 115.749L53.2869 91.7543L38.537 87.9837L37.8509 63.9889L22.072 60.561L24.1301 139.401Z" fill="#888989"/>
<path fill-rule="evenodd" clip-rule="evenodd" d="M37.8509 63.9888L38.537 87.9837L78.3273 73.244V50.2775L37.8509 63.9888Z" fill="#F3F0CA"/>
<path fill-rule="evenodd" clip-rule="evenodd" d="M38.537 87.9837L53.2869 91.7543L81.4146 80.7853L117.432 89.0121L128.751 84.2131L78.3274 73.244L38.537 87.9837Z" fill="#CEDA61"/>
<path fill-rule="evenodd" clip-rule="evenodd" d="M53.2869 91.7542L53.63 115.749L81.4146 104.094V80.7852L53.2869 91.7542Z" fill="#F3F0CA"/>
<path fill-rule="evenodd" clip-rule="evenodd" d="M53.63 115.749L89.3042 125.004L117.089 113.007L81.4147 104.094L53.63 115.749Z" fill="#CEDA61"/>
<path fill-rule="evenodd" clip-rule="evenodd" d="M117.089 113.007L117.432 89.012L81.4146 80.7852V104.094L117.089 113.007Z" fill="#A9C712"/>
<path fill-rule="evenodd" clip-rule="evenodd" d="M128.752 84.2131L129.095 59.8754L78.3275 50.2775V73.244L128.752 84.2131Z" fill="#A9C712"/>
<path fill-rule="evenodd" clip-rule="evenodd" d="M139.728 134.259L141.443 55.4192L129.094 59.8754L128.751 84.213L117.432 89.012L117.089 113.007L89.3041 125.004V158.597L139.728 134.259Z" fill="#A9A5CE" fill-opacity="0.3"/>
<path fill-rule="evenodd" clip-rule="evenodd" d="M141.443 55.4192L75.2402 43.079L22.072 60.561L37.851 63.9888L78.3274 50.2774L129.094 59.8754L141.443 55.4192Z" fill="#D5D5D5"/>
<path fill-rule="evenodd" clip-rule="evenodd" d="M24.1301 139.401L89.304 158.597V125.004L53.6299 115.749L53.2869 91.7543L38.537 87.9837L37.8509 63.9889L22.072 60.561L24.1301 139.401Z" fill="#A9A5CE" fill-opacity="0.3"/>
<path fill-rule="evenodd" clip-rule="evenodd" d="M37.8509 63.9888L38.537 87.9837L78.3273 73.244V50.2775L37.8509 63.9888Z" fill="#A9A5CE" fill-opacity="0.3"/>
<path fill-rule="evenodd" clip-rule="evenodd" d="M38.537 87.9837L53.2869 91.7543L81.4146 80.7853L117.432 89.0121L128.751 84.2131L78.3274 73.244L38.537 87.9837Z" fill="#D5D5D5"/>
<path fill-rule="evenodd" clip-rule="evenodd" d="M53.2869 91.7542L53.63 115.749L81.4146 104.094V80.7852L53.2869 91.7542Z" fill="#A9A5CE" fill-opacity="0.3"/>
<path fill-rule="evenodd" clip-rule="evenodd" d="M53.63 115.749L89.3042 125.004L117.089 113.007L81.4147 104.094L53.63 115.749Z" fill="white"/>
<path fill-rule="evenodd" clip-rule="evenodd" d="M117.089 113.007L117.432 89.012L81.4146 80.7852V104.094L117.089 113.007Z" fill="#7973B3"/>
<path fill-rule="evenodd" clip-rule="evenodd" d="M128.752 84.2131L129.095 59.8754L78.3275 50.2775V73.244L128.752 84.2131Z" fill="#7973B3"/>
<path d="M55.6881 77.0146C55.002 76.6718 59.8043 67.7594 60.8334 64.6744C62.2055 60.561 61.5194 47.5352 65.2927 47.878C66.6647 47.878 66.3217 51.6486 68.7229 52.6769C72.1531 54.3909 73.8682 50.2775 74.8972 50.963C76.2693 51.9914 70.781 62.2749 70.0949 64.3316C69.4089 66.3883 64.9496 80.4424 63.5776 79.0713C62.8915 78.3857 61.5194 76.6718 60.4904 76.329C58.4322 75.6434 56.3741 77.3574 55.6881 77.0146Z" fill="#868585"/>
<path d="M70.781 50.2774C68.8866 50.2774 67.3508 48.7427 67.3508 46.8496C67.3508 44.9564 68.8866 43.4218 70.781 43.4218C72.6755 43.4218 74.2112 44.9564 74.2112 46.8496C74.2112 48.7427 72.6755 50.2774 70.781 50.2774Z" fill="#9D9D9C"/>
<path d="M58.9499 81.3845C57.4706 81.0555 56.5049 79.7403 56.7929 78.4467C57.0809 77.1532 58.5137 76.3713 59.993 76.7002C61.4723 77.0292 62.4381 78.3445 62.15 79.638C61.862 80.9315 60.4293 81.7134 58.9499 81.3845Z" fill="#868585"/>
<path d="M40.9382 109.579C41.6243 109.922 34.7639 114.035 34.0778 112.664C33.0488 110.95 32.7057 109.236 32.3627 108.551C32.0197 107.865 34.4209 108.551 35.7929 107.522C38.5371 105.466 37.508 106.837 38.1941 107.522C38.8801 108.208 40.2522 108.893 40.9382 109.579Z" fill="#9D9D9C"/>
<path d="M39.4581 107.794C38.7278 107.191 38.5269 106.229 39.0095 105.646C39.492 105.062 40.4752 105.077 41.2055 105.68C41.9359 106.283 42.1367 107.245 41.6541 107.828C41.1716 108.412 40.1884 108.397 39.4581 107.794Z" fill="#9D9D9C"/>
<path d="M29.2755 105.808C29.2755 106.837 30.6476 108.551 30.9906 112.321C31.3337 115.406 29.2755 116.778 29.9616 118.149C30.3046 119.177 62.2055 121.919 65.9787 115.406C69.4089 109.579 77.9844 102.723 73.1822 101.695C69.7519 100.667 29.6186 103.409 29.2755 105.808Z" fill="#D1D1D1"/>
<path d="M15.8977 119.177C18.9849 118.149 18.6418 121.234 21.386 121.234C23.7871 121.234 24.4732 121.234 26.5313 121.919C27.5604 122.262 33.0487 141.458 30.3045 153.798C26.8743 154.827 25.8453 155.855 25.8453 155.855C25.8453 154.827 23.1011 144.2 22.072 140.43C19.3279 129.461 13.8396 119.863 15.8977 119.177Z" fill="#9D9D9C"/>
<path d="M19.671 111.979C18.2989 113.35 17.2698 116.092 18.9849 117.806C20.7 119.863 23.7872 120.891 25.5023 119.52C26.8744 118.149 28.9325 112.321 27.2174 110.607C25.1593 108.551 21.043 110.607 19.671 111.979Z" fill="#9D9D9C"/>
<path d="M25.8453 168.538C26.5313 168.195 27.9034 167.852 30.3045 165.796C30.6475 165.453 32.0196 164.425 32.3626 164.082C35.1068 162.025 36.8219 162.711 37.1649 161.34C37.5079 158.94 35.1068 154.827 32.3626 156.198C30.9906 156.883 28.5894 157.912 27.9034 159.626C27.5603 160.997 24.4732 163.396 24.1301 164.082C23.7871 164.767 16.9267 174.365 25.8453 168.538Z" fill="#9D9D9C"/>
<path d="M97.8796 112.321C96.1645 118.834 89.3041 118.149 89.3041 118.149H73.5251C69.4089 118.149 65.9787 114.378 65.9787 109.579C65.9787 109.236 65.9787 109.236 65.9787 108.893C65.9787 107.179 66.3217 104.78 66.6647 101.352C67.0078 99.2955 72.4961 94.1537 74.5542 94.8393C80.0425 96.5532 93.7633 96.2104 93.7633 96.2104C96.1645 96.2104 97.5366 97.9243 98.2226 100.324C99.5947 104.437 98.5656 110.265 97.8796 112.321Z" fill="#9D9D9C"/>
<path d="M82.1007 36.5661C82.1007 36.5661 90.3332 36.2234 94.4494 41.3651C97.5366 45.1357 98.2226 66.0455 99.2517 68.445C100.624 71.1873 84.1588 69.4734 74.8972 69.4734C69.4089 69.4734 67.6938 65.7028 67.0078 62.6177C66.3217 60.2182 65.9787 56.4476 66.6647 51.9914C67.3508 45.8213 69.0659 41.7079 71.8101 39.994C74.2112 38.6228 82.1007 36.5661 82.1007 36.5661Z" fill="#A3A4AE"/>
<path d="M41.6273 113.097C41.9703 114.125 45.4005 115.154 46.0865 118.924C46.4296 122.009 43.6854 122.695 44.7145 124.066C45.0575 124.752 65.9817 119.953 75.2433 119.953C100.97 119.953 97.5396 115.154 97.8826 113.097C98.2257 110.697 89.3071 110.697 88.6211 107.955C87.592 102.813 92.3943 101.442 91.3652 98.3572C89.9932 94.5865 40.5982 110.012 41.6273 113.097Z" fill="#D5D5D5"/>
<path d="M29.9616 123.976C34.0778 124.661 32.7057 126.375 35.4499 127.747C38.1941 129.118 39.5661 128.775 40.9382 130.832C41.6243 131.86 35.1069 154.826 24.8163 165.453C21.043 164.424 18.9849 165.11 18.9849 164.767C19.671 163.739 23.4442 151.399 24.8163 146.942C28.5895 134.602 27.2174 123.29 29.9616 123.976Z" fill="#D5D5D5"/>
<path d="M35.1068 117.12C33.3917 118.491 32.0196 121.234 33.7347 123.633C35.4498 126.033 38.88 127.747 40.5951 126.375C42.3102 125.004 45.3974 118.834 43.6823 116.435C42.3103 114.035 37.1649 115.749 35.1068 117.12Z" fill="#D5D5D5"/>
<path d="M90.3332 103.752C89.9902 105.123 90.3332 107.865 92.3914 108.551C94.4495 109.236 95.8216 108.893 96.5076 107.522C97.1936 106.151 97.5367 101.352 95.4785 101.009C92.3914 99.9811 91.0193 102.381 90.3332 103.752Z" fill="#D5D5D5"/>
<path d="M0.804831 174.022C-0.567251 176.765 4.57806 175.393 7.66524 176.079C8.6943 176.422 10.0664 176.422 13.8396 176.079C14.1826 176.079 16.2407 175.736 16.9268 175.736C20.7 175.393 22.4151 177.107 23.4442 176.079C25.1593 174.022 25.5023 168.195 21.7291 167.852C20.014 167.852 16.9268 167.509 15.2117 168.538C13.8396 169.566 9.38034 170.594 8.6943 170.594C7.66524 170.594 2.86295 169.909 0.804831 174.022Z" fill="#D5D5D5"/>
<path d="M75.5833 29.3677L82.1006 38.2801L72.1531 42.3935L69.4089 37.5945L75.5833 29.3677Z" fill="#A3A4AE"/>
<path d="M48.8276 7.08667C51.2288 0.916558 60.4903 -1.48293 67.3507 0.916558C73.1821 3.31604 73.1821 13.9423 76.2693 19.0841C77.9844 22.1692 76.2693 29.7104 74.5542 32.4527C72.8391 35.5377 71.467 37.5944 67.6937 37.9372C57.7462 38.6228 53.6299 29.7104 49.8567 22.5119C47.1125 17.3702 46.0835 14.9707 48.8276 7.08667Z" fill="#A3A4AE"/>
<path d="M76.6122 93.1254C76.6122 93.1254 87.5889 93.811 94.7923 91.4115C96.5074 90.7259 97.1935 86.9553 97.1935 84.8986L98.9086 77.3574C98.5655 75.3007 99.2516 71.8728 97.1935 71.8728C97.1935 71.8728 76.2692 70.8445 70.0948 70.8445C66.6646 70.8445 73.182 83.1847 73.5251 85.2414L73.8681 89.6976C73.8681 92.0971 74.2111 93.4682 76.6122 93.1254Z" fill="#A3A4AE"/>
<path d="M46.7695 105.808L48.8276 104.437L54.3159 106.837L51.9148 107.865L46.7695 105.808Z" fill="#969797"/>
<path d="M48.8276 104.437L46.7695 105.808L51.9148 107.865L54.3159 106.837L69.7518 113.007L47.7985 117.806L45.3974 103.066L48.8276 104.437Z" fill="#BFC0BF"/>
<path d="M47.7985 119.177L11.0953 105.466C11.0953 105.466 6.293 81.1281 5.94997 77.0146C5.60695 73.5868 5.60695 73.9296 9.38018 74.9579C13.1534 75.9863 35.1067 82.1564 38.1939 83.1848C41.2811 84.2131 42.9962 84.2131 43.6822 89.0121C44.3683 93.4683 47.7985 119.177 47.7985 119.177Z" fill="#7973B3"/>
<path d="M47.7985 119.177L69.7518 114.378V113.007L47.7985 117.806V119.177Z" fill="#969797"/>
<path d="M46.4266 108.551V108.208H46.7696L46.4266 108.551Z" fill="#969797"/>
<path d="M46.4266 108.551C46.4266 108.208 46.4266 108.208 46.4266 108.551C46.4266 108.208 46.4266 108.208 46.4266 108.551C46.4266 108.208 46.4266 108.208 46.4266 108.551ZM46.4266 108.551H46.7696C46.4266 108.208 46.4266 108.208 46.4266 108.551V108.208V108.551C46.0836 108.208 46.4266 108.208 46.4266 108.551Z" fill="#868585"/>
<path d="M46.4265 108.208L46.0835 106.494L48.8277 107.865L46.7696 108.208H46.4265Z" fill="#969797"/>
<path d="M46.4264 108.208C46.4264 107.522 46.4264 107.18 46.0834 106.494C47.1125 106.837 48.1415 107.18 48.8276 107.865C48.1415 108.208 47.4555 108.208 46.4264 108.551V108.208ZM46.4264 108.208L46.7694 108.551C47.4555 108.208 48.1415 108.208 49.1706 107.865C48.1415 107.522 47.1125 107.18 46.4264 106.494C46.0834 107.18 46.0834 107.522 46.4264 108.208Z" fill="#868585"/>
<path d="M54.3159 111.979L56.031 112.664L54.3159 113.35L52.2578 112.321L54.3159 111.979Z" fill="#969797"/>
<path d="M54.3159 111.979C55.0019 112.321 55.688 112.664 56.031 113.007L53.9729 113.35L52.2578 112.321C52.9438 112.321 53.6299 111.979 54.3159 111.979ZM54.3159 111.979C53.6299 111.979 52.9438 112.321 52.2578 112.321L53.9729 113.35L56.031 113.007C55.688 112.321 55.0019 112.321 54.3159 111.979Z" fill="#868585"/>
<path d="M57.0601 111.293L59.1182 111.979L56.031 112.664L54.3159 111.979L57.0601 111.293Z" fill="#969797"/>
<path d="M57.0601 111.293C57.7461 111.636 58.4322 111.979 59.1182 112.321L56.3741 113.007L54.659 111.979C55.345 111.636 56.031 111.636 57.0601 111.293ZM57.0601 111.293C56.031 111.636 55.345 111.636 54.3159 111.979L56.031 113.007L58.7752 112.321C58.4322 111.636 57.7461 111.636 57.0601 111.293Z" fill="#868585"/>
<path d="M49.8567 113.007L51.5718 114.035L49.5136 114.378L47.7985 113.692L49.8567 113.007Z" fill="#969797"/>
<path d="M49.8567 113.007C50.5427 113.35 51.2288 113.692 51.5718 114.035L49.5136 114.721L47.7985 113.692C48.4846 113.692 49.1706 113.35 49.8567 113.007ZM49.8567 113.007C49.1706 113.007 48.4846 113.35 47.7985 113.692L49.5136 114.721L51.5718 114.035C50.8857 113.692 50.5427 113.35 49.8567 113.007Z" fill="#868585"/>
<path d="M52.2578 112.321L54.3159 113.35L51.5718 114.035L49.8567 113.007L52.2578 112.321Z" fill="#969797"/>
<path d="M52.2579 112.321C52.9439 112.664 53.6299 113.007 53.973 113.35L51.5718 114.035L49.8567 113.007C50.5428 113.007 51.5718 112.664 52.2579 112.321ZM52.2579 112.321C51.5718 112.664 50.5428 112.664 49.8567 113.007L51.5718 114.035L53.973 113.35C53.6299 113.007 52.9439 112.664 52.2579 112.321Z" fill="#868585"/>
<path d="M49.5137 114.378L47.1126 115.064V113.693H47.7986L49.5137 114.378Z" fill="#969797"/>
<path d="M49.5137 114.378C48.8277 114.721 47.7986 114.721 47.1126 115.064L46.7696 113.692L47.4556 113.35C48.1417 114.035 48.8277 114.378 49.5137 114.378ZM49.5137 114.378C48.8277 114.035 48.1417 113.692 47.7986 113.35L47.1126 113.692L47.4556 115.064C48.1417 115.064 48.8277 114.721 49.5137 114.378Z" fill="#868585"/>
<path d="M47.7986 113.692H47.1126V113.35L47.7986 113.692Z" fill="#969797"/>
<path d="M47.7986 113.692C47.4556 113.692 47.4556 113.692 47.1126 113.692C47.1126 113.35 47.1126 113.35 47.1126 113.007C47.1126 113.35 47.4556 113.692 47.7986 113.692ZM47.7986 113.692C47.4556 113.692 47.4556 113.35 47.1126 113.35C47.1126 113.692 47.1126 113.692 47.1126 114.035C47.1126 113.692 47.4556 113.692 47.7986 113.692Z" fill="#868585"/>
<path d="M51.9148 110.95L54.3159 111.979L52.2578 112.321L49.8567 111.293L51.9148 110.95Z" fill="#969797"/>
<path d="M51.9148 110.95C52.6008 111.293 53.6299 111.636 54.3159 111.979L52.2578 112.321L49.8567 111.293C50.5427 111.293 51.2287 110.95 51.9148 110.95ZM51.9148 110.95C51.2287 110.95 50.5427 111.293 49.8567 111.293L52.2578 112.321L54.3159 111.636C53.6299 111.636 52.6008 111.293 51.9148 110.95Z" fill="#868585"/>
<path d="M49.8567 113.007L47.7986 113.692L47.1125 113.35L46.7695 112.321L47.4555 111.979L49.8567 113.007Z" fill="#969797"/>
<path d="M49.8567 113.007C49.1706 113.007 48.4846 113.35 47.7986 113.35L47.1125 113.007V111.979H47.7986C48.1416 112.321 49.1706 112.664 49.8567 113.007ZM49.8567 113.007C49.1706 112.664 48.1416 112.321 47.4555 111.979H46.7695V113.007L47.4555 113.35C48.4846 113.692 49.1706 113.35 49.8567 113.007Z" fill="#868585"/>
<path d="M51.9149 110.95L54.6591 110.265L57.0602 111.293L54.3161 111.979L51.9149 110.95Z" fill="#969797"/>
<path d="M51.9149 110.95C52.944 110.607 53.63 110.607 54.6591 110.265L57.0602 111.293L54.3161 111.979C53.63 111.636 52.601 111.293 51.9149 110.95ZM51.9149 110.95C52.601 111.293 53.63 111.636 54.3161 111.979L57.0602 111.293L54.6591 110.265C53.63 110.265 52.601 110.607 51.9149 110.95Z" fill="#868585"/>
<path d="M49.8567 111.293L52.2579 112.321L49.8567 113.007L47.4556 111.979L49.8567 111.293Z" fill="#969797"/>
<path d="M49.8567 111.293C50.5428 111.636 51.5718 111.979 52.2579 112.321L49.8567 113.007L47.4556 111.979C48.1416 111.979 49.1707 111.636 49.8567 111.293ZM49.8567 111.293C49.1707 111.636 48.1416 111.636 47.4556 111.979L49.8567 113.007L52.2579 112.321C51.5718 111.979 50.8858 111.636 49.8567 111.293Z" fill="#868585"/>
<path d="M49.8567 111.293L47.4555 111.978L46.7695 111.636L46.4265 110.265L47.1125 109.922L49.8567 111.293Z" fill="#969797"/>
<path d="M49.8567 111.293C49.1706 111.636 48.1416 111.636 47.4555 111.978L46.7695 111.636C46.7695 111.293 46.7695 110.607 46.4265 110.265H47.1125C48.1416 110.607 49.1706 110.95 49.8567 111.293ZM49.8567 111.293C48.8276 110.95 48.1416 110.265 47.1125 109.922H46.4265C46.4265 110.265 46.4265 110.95 46.7695 111.293L47.4555 111.636C48.1416 111.978 49.1706 111.636 49.8567 111.293Z" fill="#868585"/>
<path d="M46.7695 112.321V111.636L47.4555 111.979L46.7695 112.321Z" fill="#969797"/>
<path d="M46.7695 112.321V111.979C47.1125 111.979 47.1125 112.321 47.4555 112.321C47.1125 111.979 47.1125 111.979 46.7695 112.321ZM46.7695 112.321C47.1125 112.321 47.1125 112.321 47.4555 112.321C47.1125 112.321 47.1125 111.979 46.7695 111.979C46.7695 111.979 46.7695 111.979 46.7695 112.321Z" fill="#868585"/>
<path d="M47.1126 109.922L49.1708 109.579L51.9149 110.95L49.8568 111.293L47.1126 109.922Z" fill="#969797"/>
<path d="M47.1126 109.922C47.7987 109.922 48.4847 109.579 49.1708 109.579L51.9149 110.95L49.8568 111.636C49.1708 110.95 48.1417 110.265 47.1126 109.922ZM47.1126 109.922C48.1417 110.265 48.8277 110.95 49.8568 111.293L51.9149 110.95L49.1708 109.579C48.4847 109.579 47.7987 109.922 47.1126 109.922Z" fill="#868585"/>
<path d="M49.1707 109.579L51.5718 108.893L54.659 110.265L51.9148 110.95L49.1707 109.579Z" fill="#969797"/>
<path d="M49.1707 109.579C49.8567 109.236 50.8858 109.236 51.5718 108.893L54.659 110.265L52.2579 110.95C50.8858 110.265 50.1997 109.922 49.1707 109.579ZM49.1707 109.579C50.1997 109.922 50.8858 110.607 51.9148 110.95L54.659 110.265L51.5718 108.893C50.8858 108.893 49.8567 109.236 49.1707 109.579Z" fill="#868585"/>
<path d="M46.4265 110.265V109.579L47.1125 109.922L46.4265 110.265Z" fill="#969797"/>
<path d="M46.4266 110.265V109.922C46.7696 109.922 46.7696 110.265 47.1126 110.265C46.7696 109.922 46.7696 110.265 46.4266 110.265ZM46.4266 110.265C46.7696 110.265 46.7696 110.265 47.1126 110.265C46.7696 110.265 46.7696 109.922 46.4266 109.922C46.4266 109.922 46.4266 109.922 46.4266 110.265Z" fill="#868585"/>
<path d="M49.1706 109.579L47.1125 109.922L46.4264 109.579V108.551L46.7694 108.208L49.1706 109.579Z" fill="#969797"/>
<path d="M49.1706 109.579C48.4846 109.579 47.7985 109.922 47.1125 109.922L46.4264 109.579V108.208H46.7694C47.4555 108.893 48.1415 109.236 49.1706 109.579ZM49.1706 109.579C48.4846 109.236 47.4555 108.893 46.7694 108.208H46.4264L46.7694 109.579L47.4555 109.922C47.7985 109.922 48.4846 109.579 49.1706 109.579Z" fill="#868585"/>
<path d="M46.7697 108.208L48.8278 107.865L51.572 108.893L49.1708 109.579L46.7697 108.208Z" fill="#969797"/>
<path d="M46.7696 108.208C47.4557 107.865 48.1417 107.865 49.1708 107.522L51.9149 108.551L49.5138 109.236C48.1417 109.236 47.4557 108.551 46.7696 108.208ZM46.7696 108.208C47.4557 108.551 48.4847 108.893 49.1708 109.236L51.5719 108.551L48.8277 107.522C48.1417 107.865 47.4557 108.208 46.7696 108.208Z" fill="#868585"/>
<g opacity="0.5">
<path opacity="0.5" d="M8.35112 74.6151C9.03716 84.8986 13.8394 105.466 27.2172 107.18C38.1939 108.551 41.6241 93.811 42.6532 85.5842C42.9962 86.2697 43.3392 87.2981 43.6822 89.012C44.3683 93.811 47.7985 119.52 47.7985 119.52L11.0953 105.808C11.0953 105.808 6.29301 81.4708 5.94999 77.3573C5.60696 73.5867 5.60695 73.5867 8.35112 74.6151Z" fill="#CCCDCE"/>
</g>
<path d="M45.3974 101.009C45.3974 99.9811 48.1416 94.8393 48.1416 94.8393C48.1416 94.8393 53.6299 80.4424 55.002 80.4424C56.3741 80.4424 55.345 81.4707 58.0892 83.1847C59.8043 84.213 62.2054 82.1563 61.8624 83.1847C61.5194 84.213 57.4031 89.3548 56.7171 91.0687C55.688 92.7826 48.4846 108.551 47.1125 108.208C46.4265 107.865 46.7695 105.808 46.4265 105.123C45.0544 102.723 45.3974 102.038 45.3974 101.009Z" fill="#868585"/>
<path d="M71.8101 75.3007C71.1241 74.6152 76.2694 66.0456 77.6414 62.9605C79.3565 58.8471 79.3565 45.1358 83.1298 45.8213C84.5019 46.1641 83.8158 49.5919 86.217 50.9631C89.6472 53.0198 91.7053 48.9064 92.3913 49.5919C93.7634 50.9631 87.9321 61.2466 86.903 63.3033C85.8739 65.36 81.0716 79.4141 79.3565 78.043C78.6705 77.3574 77.6414 75.6435 76.6124 75.3007C74.5543 74.2724 72.1531 75.9863 71.8101 75.3007Z" fill="#D5D5D5"/>
<path d="M88.275 50.6202C86.3805 50.6202 84.8448 49.0855 84.8448 47.1924C84.8448 45.2992 86.3805 43.7645 88.275 43.7645C90.1694 43.7645 91.7052 45.2992 91.7052 47.1924C91.7052 49.0855 90.1694 50.6202 88.275 50.6202Z" fill="#D5D5D5"/>
<path d="M74.7118 81.0808C73.2325 80.7518 72.2668 79.4366 72.5548 78.143C72.8428 76.8495 74.2756 76.0676 75.7549 76.3965C77.2342 76.7255 78.2 78.0407 77.9119 79.3343C77.6239 80.6278 76.1912 81.4097 74.7118 81.0808Z" fill="#D5D5D5"/>
<path d="M57.7463 102.723C57.7463 101.695 62.2055 93.4682 62.2055 93.4682C62.2055 93.4682 69.4089 79.0713 70.781 79.0713C72.1531 79.0713 70.781 80.0996 73.5252 82.1563C74.8973 83.1847 77.6414 81.4708 77.2984 82.4991C76.6124 83.5275 72.4961 88.6692 71.124 90.3832C70.095 92.0971 61.8625 106.837 60.8334 106.494C60.1474 106.151 60.1474 104.78 59.4614 104.095C57.4032 102.723 57.7463 103.752 57.7463 102.723Z" fill="#D5D5D5"/>
<path d="M58.0892 108.551C58.7753 108.893 48.1416 114.378 47.4556 113.007C46.4265 111.293 47.1126 109.579 46.7696 108.893C46.4265 108.208 48.8277 108.551 50.8858 107.18C55.3451 104.437 53.63 106.151 54.659 106.837C55.6881 107.865 57.4032 108.208 58.0892 108.551Z" fill="#D5D5D5"/>
<path d="M56.7483 107.236C56.018 106.633 55.8172 105.671 56.2997 105.088C56.7823 104.504 57.7655 104.519 58.4958 105.122C59.2261 105.725 59.427 106.687 58.9444 107.27C58.4619 107.854 57.4786 107.839 56.7483 107.236Z" fill="#D5D5D5"/>
<path d="M134.926 64.6744V89.0121L123.263 93.1255L122.577 117.806L96.5074 128.775V150.713" stroke="#D1D1D1" stroke-width="2" stroke-miterlimit="10"/>
<path d="M138.013 69.1306C138.013 68.7878 134.926 61.9321 134.926 61.9321L131.839 69.1306H138.013Z" stroke="#D1D1D1" stroke-width="3" stroke-miterlimit="10"/>
</g>
</svg>
