<svg width="141" height="177" viewBox="0 0 141 177" fill="none" xmlns="http://www.w3.org/2000/svg">
<g opacity="0.5">
<path fill-rule="evenodd" clip-rule="evenodd" d="M1.76683 134.467L0.0517273 55.6265L12.4005 60.0827L12.7435 84.4203L24.0632 89.2193L24.4062 113.214L52.1908 125.212V158.804L1.76683 134.467Z" fill="#EBECED"/>
<path fill-rule="evenodd" clip-rule="evenodd" d="M0.0517273 55.6263L66.2547 43.2861L119.423 60.7681L103.644 64.1959L63.1675 50.4846L12.4005 60.0825L0.0517273 55.6263Z" fill="#C6C7C6"/>
<path fill-rule="evenodd" clip-rule="evenodd" d="M117.365 139.609L52.1909 158.804V125.212L87.865 115.956L88.208 91.9616L102.958 88.191L103.644 64.1961L119.423 60.7683L117.365 139.609Z" fill="#888989"/>
<path fill-rule="evenodd" clip-rule="evenodd" d="M103.644 64.1962L102.958 88.1911L63.1676 73.4514V50.4849L103.644 64.1962Z" fill="#F3F0CA"/>
<path fill-rule="evenodd" clip-rule="evenodd" d="M102.958 88.1909L88.208 91.9615L60.0804 80.9924L24.0632 89.2192L12.7435 84.4203L63.1675 73.4512L102.958 88.1909Z" fill="#CEDA61"/>
<path fill-rule="evenodd" clip-rule="evenodd" d="M88.208 91.9615L87.865 115.956L60.0803 104.302V80.9924L88.208 91.9615Z" fill="#F3F0CA"/>
<path fill-rule="evenodd" clip-rule="evenodd" d="M87.8649 115.956L52.1908 125.212L24.4061 113.214L60.0803 104.302L87.8649 115.956Z" fill="#CEDA61"/>
<path fill-rule="evenodd" clip-rule="evenodd" d="M24.4062 113.214L24.0632 89.2192L60.0803 80.9924V104.302L24.4062 113.214Z" fill="#A9C712"/>
<path fill-rule="evenodd" clip-rule="evenodd" d="M12.7434 84.4205L12.4004 60.0828L63.1674 50.4849V73.4514L12.7434 84.4205Z" fill="#A9C712"/>
<path fill-rule="evenodd" clip-rule="evenodd" d="M1.76683 134.467L0.0517273 55.6265L12.4005 60.0827L12.7435 84.4203L24.0632 89.2193L24.4062 113.214L52.1908 125.212V158.804L1.76683 134.467Z" fill="#A9A5CE" fill-opacity="0.3"/>
<path fill-rule="evenodd" clip-rule="evenodd" d="M0.0517273 55.6263L66.2547 43.2861L119.423 60.7681L103.644 64.1959L63.1675 50.4846L12.4005 60.0825L0.0517273 55.6263Z" fill="#D5D5D5"/>
<path fill-rule="evenodd" clip-rule="evenodd" d="M117.365 139.609L52.1909 158.804V125.212L87.865 115.956L88.208 91.9616L102.958 88.191L103.644 64.1961L119.423 60.7683L117.365 139.609Z" fill="#A9A5CE" fill-opacity="0.3"/>
<path fill-rule="evenodd" clip-rule="evenodd" d="M103.644 64.1962L102.958 88.1911L63.1676 73.4514V50.4849L103.644 64.1962Z" fill="#A9A5CE" fill-opacity="0.3"/>
<path fill-rule="evenodd" clip-rule="evenodd" d="M102.958 88.1909L88.208 91.9615L60.0804 80.9924L24.0632 89.2192L12.7435 84.4203L63.1675 73.4512L102.958 88.1909Z" fill="#D5D5D5"/>
<path fill-rule="evenodd" clip-rule="evenodd" d="M88.208 91.9615L87.865 115.956L60.0803 104.302V80.9924L88.208 91.9615Z" fill="#A9A5CE" fill-opacity="0.3"/>
<path fill-rule="evenodd" clip-rule="evenodd" d="M87.8649 115.956L52.1908 125.212L24.4061 113.214L60.0803 104.302L87.8649 115.956Z" fill="white"/>
<path fill-rule="evenodd" clip-rule="evenodd" d="M24.4062 113.214L24.0632 89.2192L60.0803 80.9924V104.302L24.4062 113.214Z" fill="#7973B3"/>
<path fill-rule="evenodd" clip-rule="evenodd" d="M12.7434 84.4205L12.4004 60.0828L63.1674 50.4849V73.4514L12.7434 84.4205Z" fill="#7973B3"/>
<path d="M85.8068 77.2219C86.4928 76.8791 81.6905 67.9667 80.6615 64.8816C79.2894 60.7682 79.9754 47.7425 76.2022 48.0853C74.8301 48.0853 75.1731 51.8559 72.772 52.8842C69.3418 54.5981 67.6267 50.4847 66.5976 51.1703C65.2256 52.1987 70.7139 62.4822 71.3999 64.5389C72.086 66.5956 76.5452 80.6497 77.9173 79.2786C78.6034 78.593 79.9754 76.8791 81.0045 76.5363C83.0626 75.8507 85.1208 77.5646 85.8068 77.2219Z" fill="#868585"/>
<path d="M70.7138 50.4846C72.6083 50.4846 74.144 48.9499 74.144 47.0567C74.144 45.1636 72.6083 43.6289 70.7138 43.6289C68.8194 43.6289 67.2836 45.1636 67.2836 47.0567C67.2836 48.9499 68.8194 50.4846 70.7138 50.4846Z" fill="#9D9D9C"/>
<path d="M82.5449 81.5917C84.0243 81.2627 84.99 79.9474 84.702 78.6539C84.4139 77.3604 82.9812 76.5784 81.5019 76.9074C80.0225 77.2364 79.0568 78.5516 79.3448 79.8452C79.6329 81.1387 81.0656 81.9206 82.5449 81.5917Z" fill="#868585"/>
<path d="M100.557 109.786C99.8707 110.129 106.731 114.242 107.417 112.871C108.446 111.157 108.789 109.443 109.132 108.758C109.475 108.072 107.074 108.758 105.702 107.73C102.958 105.673 103.987 107.044 103.301 107.73C102.615 108.415 101.243 109.101 100.557 109.786Z" fill="#9D9D9C"/>
<path d="M102.037 108.002C102.767 107.399 102.968 106.437 102.485 105.853C102.003 105.269 101.02 105.284 100.289 105.887C99.559 106.49 99.3581 107.452 99.8407 108.036C100.323 108.62 101.306 108.604 102.037 108.002Z" fill="#9D9D9C"/>
<path d="M112.219 106.016C112.219 107.044 110.847 108.758 110.504 112.529C110.161 115.614 112.219 116.985 111.533 118.356C111.19 119.384 79.2894 122.127 75.5162 115.614C72.086 109.786 63.5105 102.931 68.3128 101.902C71.743 100.874 111.876 103.616 112.219 106.016Z" fill="#D1D1D1"/>
<path d="M125.597 119.384C122.51 118.356 122.853 121.441 120.109 121.441C117.708 121.441 117.022 121.441 114.964 122.126C113.935 122.469 108.446 141.665 111.19 154.005C114.621 155.034 115.65 156.062 115.65 156.062C115.65 155.034 118.394 144.407 119.423 140.637C122.167 129.668 127.655 120.07 125.597 119.384Z" fill="#9D9D9C"/>
<path d="M121.824 112.186C123.196 113.557 124.225 116.299 122.51 118.013C120.795 120.07 117.708 121.098 115.993 119.727C114.621 118.356 112.562 112.529 114.278 110.815C116.336 108.758 120.452 110.815 121.824 112.186Z" fill="#9D9D9C"/>
<path d="M115.65 168.745C114.964 168.403 113.592 168.06 111.19 166.003C110.847 165.66 109.475 164.632 109.132 164.289C106.388 162.232 104.673 162.918 104.33 161.547C103.987 159.147 106.388 155.034 109.132 156.405C110.504 157.091 112.905 158.119 113.592 159.833C113.935 161.204 117.022 163.604 117.365 164.289C117.708 164.975 124.568 174.573 115.65 168.745Z" fill="#9D9D9C"/>
<path d="M43.6153 112.529C45.3304 119.041 52.1908 118.356 52.1908 118.356H67.9698C72.086 118.356 75.5162 114.585 75.5162 109.786C75.5162 109.443 75.5162 109.443 75.5162 109.101C75.5162 107.387 75.1732 104.987 74.8302 101.559C74.4871 99.5027 68.9988 94.361 66.9407 95.0466C61.4524 96.7605 47.7316 96.4177 47.7316 96.4177C45.3304 96.4177 43.9583 98.1316 43.2723 100.531C41.9002 104.645 42.9293 110.472 43.6153 112.529Z" fill="#9D9D9C"/>
<path d="M59.3943 36.7733C59.3943 36.7733 51.1618 36.4305 47.0455 41.5723C43.9583 45.3429 43.2723 66.2527 42.2432 68.6522C40.8712 71.3944 57.3361 69.6805 66.5977 69.6805C72.086 69.6805 73.8011 65.9099 74.4872 62.8249C75.1732 60.4254 75.5162 56.6548 74.8302 52.1986C74.1441 46.0285 72.429 41.9151 69.6849 40.2011C67.2837 38.83 59.3943 36.7733 59.3943 36.7733Z" fill="#A3A4AE"/>
<path d="M99.8677 113.304C99.5246 114.332 96.0944 115.361 95.4084 119.131C95.0654 122.216 97.8095 122.902 96.7805 124.273C96.4375 124.959 75.5132 120.16 66.2517 120.16C40.5251 120.16 43.9553 115.361 43.6123 113.304C43.2693 110.905 52.1878 110.905 52.8739 108.162C53.9029 103.021 49.1006 101.649 50.1297 98.5643C51.5018 94.7937 100.897 110.219 99.8677 113.304Z" fill="#D5D5D5"/>
<path d="M111.533 124.183C107.417 124.869 108.789 126.583 106.045 127.954C103.301 129.325 101.929 128.982 100.557 131.039C99.8706 132.067 106.388 155.034 116.679 165.66C120.452 164.632 122.51 165.317 122.51 164.974C121.824 163.946 118.051 151.606 116.679 147.15C112.905 134.81 114.277 123.498 111.533 124.183Z" fill="#D5D5D5"/>
<path d="M106.388 117.328C108.103 118.699 109.475 121.441 107.76 123.84C106.045 126.24 102.615 127.954 100.9 126.583C99.1847 125.212 96.0975 119.042 97.8126 116.642C99.1847 114.243 104.33 115.956 106.388 117.328Z" fill="#D5D5D5"/>
<path d="M51.1617 103.959C51.5047 105.33 51.1617 108.072 49.1036 108.758C47.0454 109.444 45.6734 109.101 44.9873 107.73C44.3013 106.358 43.9583 101.559 46.0164 101.217C49.1036 100.188 50.4757 102.588 51.1617 103.959Z" fill="#D5D5D5"/>
<path d="M140.69 174.23C142.062 176.972 136.917 175.601 133.83 176.286C132.801 176.629 131.429 176.629 127.655 176.286C127.312 176.286 125.254 175.944 124.568 175.944C120.795 175.601 119.08 177.315 118.051 176.286C116.336 174.23 115.993 168.402 119.766 168.059C121.481 168.059 124.568 167.717 126.283 168.745C127.655 169.773 132.115 170.802 132.801 170.802C133.83 170.802 138.632 170.116 140.69 174.23Z" fill="#D5D5D5"/>
<path d="M65.9116 29.575L59.3942 38.4873L69.3418 42.6007L72.086 37.8018L65.9116 29.575Z" fill="#A3A4AE"/>
<path d="M92.6673 7.29394C90.2662 1.12383 81.0046 -1.27565 74.1442 1.12383C68.3129 3.52332 68.3129 14.1496 65.2257 19.2914C63.5106 22.3764 65.2257 29.9177 66.9408 32.6599C68.6559 35.745 70.028 37.8017 73.8012 38.1445C83.7488 38.83 87.865 29.9177 91.6382 22.7192C94.3824 17.5775 95.4115 15.178 92.6673 7.29394Z" fill="#A3A4AE"/>
<path d="M64.8827 93.3327C64.8827 93.3327 53.906 94.0183 46.7026 91.6188C44.9875 90.9332 44.3014 87.1626 44.3014 85.1059L42.5863 77.5646C42.9294 75.5079 42.2433 72.0801 44.3014 72.0801C44.3014 72.0801 65.2257 71.0518 71.4001 71.0518C74.8303 71.0518 68.3129 83.392 67.9699 85.4487L67.6268 89.9049C67.6268 92.3043 67.2838 93.6755 64.8827 93.3327Z" fill="#A3A4AE"/>
<path d="M94.7254 106.016L92.6673 104.645L87.179 107.044L89.5801 108.072L94.7254 106.016Z" fill="#969797"/>
<path d="M92.6673 104.645L94.7255 106.016L89.5801 108.072L87.179 107.044L71.7431 113.214L93.6964 118.013L96.0975 103.273L92.6673 104.645Z" fill="#BFC0BF"/>
<path d="M93.6964 119.384L130.4 105.673C130.4 105.673 135.202 81.3352 135.545 77.2218C135.888 73.794 135.888 74.1367 132.115 75.1651C128.342 76.1934 106.388 82.3636 103.301 83.3919C100.214 84.4203 98.4987 84.4203 97.8127 89.2192C97.1266 93.6754 93.6964 119.384 93.6964 119.384Z" fill="#7973B3"/>
<path d="M93.6964 119.384L71.7431 114.585V113.214L93.6964 118.013V119.384Z" fill="#969797"/>
<path d="M95.0683 108.758V108.415H94.7253L95.0683 108.758Z" fill="#969797"/>
<path d="M95.0683 108.758C95.0683 108.415 95.0683 108.415 95.0683 108.758C95.0683 108.415 95.0683 108.415 95.0683 108.758C95.0683 108.415 95.0683 108.415 95.0683 108.758ZM95.0683 108.758H94.7253C95.0683 108.415 95.0683 108.415 95.0683 108.758V108.415V108.758C95.4114 108.415 95.0683 108.415 95.0683 108.758Z" fill="#868585"/>
<path d="M95.0684 108.415L95.4114 106.701L92.6672 108.072L94.7254 108.415H95.0684Z" fill="#969797"/>
<path d="M95.0685 108.415C95.0685 107.73 95.0685 107.387 95.4115 106.701C94.3824 107.044 93.3534 107.387 92.6673 108.072C93.3534 108.415 94.0394 108.415 95.0685 108.758V108.415ZM95.0685 108.415L94.7255 108.758C94.0394 108.415 93.3534 108.415 92.3243 108.072C93.3534 107.73 94.3824 107.387 95.0685 106.701C95.4115 107.387 95.4115 107.73 95.0685 108.415Z" fill="#868585"/>
<path d="M87.179 112.186L85.4639 112.871L87.179 113.557L89.2371 112.529L87.179 112.186Z" fill="#969797"/>
<path d="M87.179 112.186C86.493 112.529 85.8069 112.871 85.4639 113.214L87.522 113.557L89.2371 112.529C88.5511 112.529 87.865 112.186 87.179 112.186ZM87.179 112.186C87.865 112.186 88.5511 112.529 89.2371 112.529L87.522 113.557L85.4639 113.214C85.8069 112.529 86.493 112.529 87.179 112.186Z" fill="#868585"/>
<path d="M84.4348 111.5L82.3766 112.186L85.4638 112.871L87.1789 112.186L84.4348 111.5Z" fill="#969797"/>
<path d="M84.4348 111.5C83.7487 111.843 83.0627 112.186 82.3766 112.529L85.1208 113.214L86.8359 112.186C86.1499 111.843 85.4638 111.843 84.4348 111.5ZM84.4348 111.5C85.4638 111.843 86.1499 111.843 87.1789 112.186L85.4638 113.214L82.7197 112.529C83.0627 111.843 83.7487 111.843 84.4348 111.5Z" fill="#868585"/>
<path d="M91.6382 113.214L89.9231 114.242L91.9813 114.585L93.6964 113.9L91.6382 113.214Z" fill="#969797"/>
<path d="M91.6382 113.214C90.9522 113.557 90.2661 113.9 89.9231 114.242L91.9813 114.928L93.6964 113.9C93.0103 113.9 92.3243 113.557 91.6382 113.214ZM91.6382 113.214C92.3243 113.214 93.0103 113.557 93.6964 113.9L91.9813 114.928L89.9231 114.242C90.6092 113.9 90.9522 113.557 91.6382 113.214Z" fill="#868585"/>
<path d="M89.2371 112.529L87.179 113.557L89.9231 114.242L91.6382 113.214L89.2371 112.529Z" fill="#969797"/>
<path d="M89.237 112.529C88.551 112.871 87.865 113.214 87.5219 113.557L89.9231 114.242L91.6382 113.214C90.9521 113.214 89.9231 112.871 89.237 112.529ZM89.237 112.529C89.9231 112.871 90.9521 112.871 91.6382 113.214L89.9231 114.242L87.5219 113.557C87.865 113.214 88.551 112.871 89.237 112.529Z" fill="#868585"/>
<path d="M91.9812 114.585L94.3823 115.271V113.9H93.6963L91.9812 114.585Z" fill="#969797"/>
<path d="M91.9812 114.585C92.6672 114.928 93.6963 114.928 94.3823 115.271L94.7253 113.9L94.0393 113.557C93.3532 114.242 92.6672 114.585 91.9812 114.585ZM91.9812 114.585C92.6672 114.242 93.3533 113.9 93.6963 113.557L94.3823 113.9L94.0393 115.271C93.3532 115.271 92.6672 114.928 91.9812 114.585Z" fill="#868585"/>
<path d="M93.6963 113.9H94.3823V113.557L93.6963 113.9Z" fill="#969797"/>
<path d="M93.6963 113.9C94.0393 113.9 94.0393 113.9 94.3823 113.9C94.3823 113.557 94.3823 113.557 94.3823 113.214C94.3823 113.557 94.0393 113.9 93.6963 113.9ZM93.6963 113.9C94.0393 113.9 94.0393 113.557 94.3823 113.557C94.3823 113.9 94.3823 113.9 94.3823 114.242C94.3823 113.9 94.0393 113.9 93.6963 113.9Z" fill="#868585"/>
<path d="M89.5801 111.157L87.179 112.186L89.2371 112.529L91.6382 111.5L89.5801 111.157Z" fill="#969797"/>
<path d="M89.5801 111.157C88.8941 111.5 87.865 111.843 87.179 112.186L89.2371 112.529L91.6382 111.5C90.9522 111.5 90.2662 111.157 89.5801 111.157ZM89.5801 111.157C90.2662 111.157 90.9522 111.5 91.6382 111.5L89.2371 112.529L87.179 111.843C87.865 111.843 88.8941 111.5 89.5801 111.157Z" fill="#868585"/>
<path d="M91.6382 113.214L93.6963 113.9L94.3824 113.557L94.7254 112.529L94.0394 112.186L91.6382 113.214Z" fill="#969797"/>
<path d="M91.6382 113.214C92.3243 113.214 93.0103 113.557 93.6963 113.557L94.3824 113.214V112.186H93.6963C93.3533 112.529 92.3243 112.871 91.6382 113.214ZM91.6382 113.214C92.3243 112.871 93.3533 112.529 94.0394 112.186H94.7254V113.214L94.0394 113.557C93.0103 113.9 92.3243 113.557 91.6382 113.214Z" fill="#868585"/>
<path d="M89.58 111.157L86.8358 110.472L84.4347 111.5L87.1789 112.186L89.58 111.157Z" fill="#969797"/>
<path d="M89.58 111.157C88.5509 110.815 87.8649 110.815 86.8358 110.472L84.4347 111.5L87.1789 112.186C87.8649 111.843 88.894 111.5 89.58 111.157ZM89.58 111.157C88.894 111.5 87.8649 111.843 87.1789 112.186L84.4347 111.5L86.8358 110.472C87.8649 110.472 88.894 110.815 89.58 111.157Z" fill="#868585"/>
<path d="M91.6382 111.5L89.237 112.529L91.6382 113.214L94.0393 112.186L91.6382 111.5Z" fill="#969797"/>
<path d="M91.6382 111.5C90.9521 111.843 89.9231 112.186 89.237 112.529L91.6382 113.214L94.0393 112.186C93.3533 112.186 92.3242 111.843 91.6382 111.5ZM91.6382 111.5C92.3242 111.843 93.3533 111.843 94.0393 112.186L91.6382 113.214L89.237 112.529C89.9231 112.186 90.6091 111.843 91.6382 111.5Z" fill="#868585"/>
<path d="M91.6382 111.5L94.0394 112.186L94.7254 111.843L95.0684 110.472L94.3824 110.129L91.6382 111.5Z" fill="#969797"/>
<path d="M91.6382 111.5C92.3243 111.843 93.3533 111.843 94.0394 112.186L94.7254 111.843C94.7254 111.5 94.7254 110.814 95.0684 110.472H94.3824C93.3533 110.814 92.3243 111.157 91.6382 111.5ZM91.6382 111.5C92.6673 111.157 93.3533 110.472 94.3824 110.129H95.0684C95.0684 110.472 95.0684 111.157 94.7254 111.5L94.0394 111.843C93.3533 112.186 92.3243 111.843 91.6382 111.5Z" fill="#868585"/>
<path d="M94.7254 112.529V111.843L94.0394 112.186L94.7254 112.529Z" fill="#969797"/>
<path d="M94.7254 112.529V112.186C94.3824 112.186 94.3824 112.529 94.0394 112.529C94.3824 112.186 94.3824 112.186 94.7254 112.529ZM94.7254 112.529C94.3824 112.529 94.3824 112.529 94.0394 112.529C94.3824 112.529 94.3824 112.186 94.7254 112.186C94.7254 112.186 94.7254 112.186 94.7254 112.529Z" fill="#868585"/>
<path d="M94.3823 110.129L92.3242 109.786L89.58 111.157L91.6381 111.5L94.3823 110.129Z" fill="#969797"/>
<path d="M94.3823 110.129C93.6962 110.129 93.0102 109.786 92.3242 109.786L89.58 111.157L91.6381 111.843C92.3241 111.157 93.3532 110.472 94.3823 110.129ZM94.3823 110.129C93.3532 110.472 92.6672 111.157 91.6381 111.5L89.58 111.157L92.3242 109.786C93.0102 109.786 93.6962 110.129 94.3823 110.129Z" fill="#868585"/>
<path d="M92.3242 109.786L89.9231 109.101L86.8359 110.472L89.58 111.157L92.3242 109.786Z" fill="#969797"/>
<path d="M92.3242 109.786C91.6382 109.443 90.6091 109.443 89.9231 109.101L86.8359 110.472L89.237 111.157C90.6091 110.472 91.2951 110.129 92.3242 109.786ZM92.3242 109.786C91.2951 110.129 90.6091 110.815 89.58 111.157L86.8359 110.472L89.9231 109.101C90.6091 109.101 91.6382 109.443 92.3242 109.786Z" fill="#868585"/>
<path d="M95.0684 110.472V109.786L94.3824 110.129L95.0684 110.472Z" fill="#969797"/>
<path d="M95.0684 110.472V110.129C94.7254 110.129 94.7253 110.472 94.3823 110.472C94.7253 110.129 94.7254 110.472 95.0684 110.472ZM95.0684 110.472C94.7254 110.472 94.7253 110.472 94.3823 110.472C94.7253 110.472 94.7254 110.129 95.0684 110.129C95.0684 110.129 95.0684 110.129 95.0684 110.472Z" fill="#868585"/>
<path d="M92.3243 109.786L94.3824 110.129L95.0685 109.786V108.758L94.7255 108.415L92.3243 109.786Z" fill="#969797"/>
<path d="M92.3243 109.786C93.0104 109.786 93.6964 110.129 94.3824 110.129L95.0685 109.786V108.415H94.7255C94.0394 109.101 93.3534 109.443 92.3243 109.786ZM92.3243 109.786C93.0104 109.443 94.0394 109.101 94.7255 108.415H95.0685L94.7255 109.786L94.0394 110.129C93.6964 110.129 93.0104 109.786 92.3243 109.786Z" fill="#868585"/>
<path d="M94.7252 108.415L92.6671 108.072L89.9229 109.101L92.3241 109.786L94.7252 108.415Z" fill="#969797"/>
<path d="M94.7253 108.415C94.0393 108.072 93.3532 108.072 92.3241 107.729L89.58 108.758L91.9811 109.443C93.3532 109.443 94.0393 108.758 94.7253 108.415ZM94.7253 108.415C94.0393 108.758 93.0102 109.101 92.3241 109.443L89.923 108.758L92.6672 107.729C93.3532 108.072 94.0393 108.415 94.7253 108.415Z" fill="#868585"/>
<g opacity="0.5">
<path opacity="0.5" d="M133.144 74.8224C132.458 85.1059 127.655 105.673 114.278 107.387C103.301 108.758 99.8708 94.0182 98.8417 85.7914C98.4987 86.477 98.1557 87.5053 97.8127 89.2193C97.1266 94.0182 93.6964 119.727 93.6964 119.727L130.4 106.016C130.4 106.016 135.202 81.678 135.545 77.5646C135.888 73.794 135.888 73.794 133.144 74.8224Z" fill="#CCCDCE"/>
</g>
<path d="M96.0975 101.217C96.0975 100.188 93.3533 95.0466 93.3533 95.0466C93.3533 95.0466 87.865 80.6497 86.4929 80.6497C85.1208 80.6497 86.1499 81.678 83.4057 83.3919C81.6906 84.4203 79.2895 82.3636 79.6325 83.3919C79.9755 84.4203 84.0917 89.562 84.7778 91.276C85.8068 92.9899 93.0103 108.758 94.3824 108.415C95.0684 108.072 94.7254 106.016 95.0684 105.33C96.4405 102.931 96.0975 102.245 96.0975 101.217Z" fill="#868585"/>
<path d="M69.6848 75.5081C70.3708 74.8226 65.2255 66.253 63.8535 63.1679C62.1384 59.0545 62.1384 45.3432 58.3651 46.0287C56.9931 46.3715 57.6791 49.7993 55.278 51.1705C51.8477 53.2272 49.7896 49.1138 49.1036 49.7993C47.7315 51.1705 53.5628 61.454 54.5919 63.5107C55.621 65.5674 60.4233 79.6215 62.1384 78.2504C62.8244 77.5648 63.8535 75.8509 64.8825 75.5081C66.9406 74.4798 69.3418 76.1937 69.6848 75.5081Z" fill="#D5D5D5"/>
<path d="M53.2199 50.8273C55.1143 50.8273 56.6501 49.2927 56.6501 47.3995C56.6501 45.5064 55.1143 43.9717 53.2199 43.9717C51.3254 43.9717 49.7897 45.5064 49.7897 47.3995C49.7897 49.2927 51.3254 50.8273 53.2199 50.8273Z" fill="#D5D5D5"/>
<path d="M66.7831 81.2882C68.2625 80.9592 69.2282 79.644 68.9402 78.3504C68.6521 77.0569 67.2194 76.275 65.74 76.6039C64.2607 76.9329 63.295 78.2481 63.583 79.5417C63.871 80.8352 65.3038 81.6171 66.7831 81.2882Z" fill="#D5D5D5"/>
<path d="M83.7487 102.931C83.7487 101.902 79.2894 93.6755 79.2894 93.6755C79.2894 93.6755 72.086 79.2786 70.7139 79.2786C69.3418 79.2786 70.7139 80.3069 67.9697 82.3636C66.5977 83.392 63.8535 81.6781 64.1965 82.7064C64.8826 83.7348 68.9988 88.8765 70.3709 90.5904C71.3999 92.3043 79.6324 107.044 80.6615 106.701C81.3475 106.358 81.3475 104.987 82.0336 104.302C84.0917 102.931 83.7487 103.959 83.7487 102.931Z" fill="#D5D5D5"/>
<path d="M83.4056 108.758C82.7196 109.101 93.3532 114.585 94.0393 113.214C95.0683 111.5 94.3823 109.786 94.7253 109.101C95.0683 108.415 92.6672 108.758 90.6091 107.387C86.1498 104.645 87.8649 106.358 86.8358 107.044C85.8068 108.072 84.0917 108.415 83.4056 108.758Z" fill="#D5D5D5"/>
<path d="M84.7464 107.443C85.4767 106.841 85.6776 105.879 85.195 105.295C84.7125 104.711 83.7293 104.726 82.9991 105.329C82.2688 105.932 82.0679 106.894 82.5505 107.478C83.033 108.062 84.0162 108.046 84.7464 107.443Z" fill="#D5D5D5"/>
<path d="M6.56918 64.8818V89.2195L18.2319 93.3329L18.9179 118.013L44.9875 128.982V150.921" stroke="#D1D1D1" stroke-width="2" stroke-miterlimit="10"/>
<path d="M3.48193 69.3379C3.48193 68.9951 6.56912 62.1394 6.56912 62.1394L9.6563 69.3379H3.48193Z" stroke="#D1D1D1" stroke-width="3" stroke-miterlimit="10"/>
</g>
</svg>
