<svg width="31" height="26" viewBox="0 0 31 26" fill="none" xmlns="http://www.w3.org/2000/svg">
<path d="M15.6647 5.59338L4.97264 14.6924C4.97264 14.7052 4.96951 14.7241 4.96326 14.7499C4.95714 14.7754 4.95388 14.794 4.95388 14.8072V24.0209C4.95388 24.3536 5.0717 24.6419 5.30728 24.8846C5.54279 25.1275 5.82169 25.2498 6.14402 25.2498H13.2843V17.8786H18.0452V25.25H25.1855C25.5077 25.25 25.787 25.1281 26.0222 24.8846C26.2578 24.6421 26.376 24.3536 26.376 24.0209V14.8072C26.376 14.7561 26.3692 14.7175 26.3572 14.6924L15.6647 5.59338Z" fill="white"/>
<path d="M30.4478 12.6192L26.3757 9.12564V1.29382C26.3757 1.11478 26.3199 0.96754 26.208 0.852302C26.097 0.737199 25.9544 0.679647 25.7805 0.679647H22.2103C22.0367 0.679647 21.8941 0.737199 21.7824 0.852302C21.671 0.96754 21.6153 1.11485 21.6153 1.29382V5.03691L17.0781 1.1209C16.6819 0.788162 16.2107 0.621826 15.6652 0.621826C15.1197 0.621826 14.6486 0.788162 14.252 1.1209L0.881559 12.6192C0.757614 12.7214 0.689683 12.859 0.677047 13.0318C0.664477 13.2044 0.707789 13.3552 0.807114 13.4831L1.96 14.9036C2.05932 15.0187 2.18932 15.0891 2.35052 15.1149C2.49935 15.1278 2.64817 15.0828 2.797 14.9805L15.6648 3.90436L28.5327 14.9805C28.6321 15.0697 28.762 15.1143 28.9232 15.1143H28.9791C29.1401 15.089 29.2698 15.0182 29.3697 14.9033L30.5227 13.483C30.6218 13.3549 30.6652 13.2043 30.6523 13.0315C30.6396 12.8592 30.5715 12.7216 30.4478 12.6192Z" fill="white"/>
</svg>
